<svg width="65" height="41" viewBox="0 0 65 41" fill="none" xmlns="http://www.w3.org/2000/svg">
<path d="M0.25 18.1338V17.0054C1.78134 16.9965 2.8291 16.7054 3.39328 16.1323C3.96641 15.5502 4.25298 14.5025 4.25298 12.989V6.86363C4.25298 5.79796 4.35597 4.87558 4.56193 4.09647C4.77686 3.31737 5.10821 2.67259 5.55596 2.16214C6.00373 1.64274 6.58134 1.25766 7.2888 1.00692C7.99626 0.756172 8.84699 0.630799 9.841 0.630799V2.08154C8.87385 2.07259 8.0903 2.23826 7.49029 2.57856C6.89925 2.9099 6.46492 3.42931 6.18731 4.13677C5.91866 4.84423 5.78432 5.75318 5.78432 6.86363V13.3517C5.78432 14.1756 5.69477 14.8875 5.51567 15.4875C5.34552 16.0875 5.05447 16.5845 4.64254 16.9785C4.23059 17.3636 3.66641 17.6546 2.95 17.8517C2.23358 18.0397 1.33358 18.1338 0.25 18.1338ZM9.841 35.0188C8.84699 35.0188 7.99626 34.8935 7.2888 34.6427C6.58134 34.392 6.00373 34.0069 5.55596 33.4875C5.10821 32.977 4.77686 32.3323 4.56193 31.5531C4.35597 30.7741 4.25298 29.8517 4.25298 28.786V22.6607C4.25298 21.1472 3.96641 20.1039 3.39328 19.5308C2.8291 18.9487 1.78134 18.6532 0.25 18.6442V17.5159C1.33358 17.5248 2.23358 17.6278 2.95 17.8248C3.66641 18.0129 4.23059 18.2994 4.64254 18.6845C5.05447 19.0696 5.34552 19.5621 5.51567 20.1621C5.69477 20.7621 5.78432 21.4741 5.78432 22.298V28.786C5.78432 29.8965 5.91866 30.8054 6.18731 31.5129C6.46492 32.2203 6.89925 32.7398 7.49029 33.0711C8.0903 33.4024 8.87385 33.5681 9.841 33.5681V35.0188ZM0.25 18.6442V17.0054H3.24552V18.6442H0.25Z" fill="white"/>
<path d="M64.25 17.5937V18.722C62.7186 18.731 61.6709 19.0221 61.1067 19.5952C60.5336 20.1773 60.247 21.225 60.247 22.7385V28.8639C60.247 29.9295 60.144 30.8519 59.938 31.631C59.7231 32.4101 59.3917 33.0549 58.944 33.5653C58.4962 34.0847 57.9186 34.4698 57.2112 34.7205C56.5037 34.9713 55.6529 35.0967 54.6589 35.0967V33.6459C55.6261 33.6549 56.4097 33.4892 57.0097 33.1489C57.6007 32.8175 58.035 32.2982 58.3127 31.5907C58.5813 30.8832 58.7156 29.9743 58.7156 28.8639V22.3758C58.7156 21.5519 58.8052 20.84 58.9843 20.24C59.1544 19.64 59.4455 19.143 59.8575 18.7489C60.2694 18.3638 60.8335 18.0728 61.55 17.8758C62.2664 17.6877 63.1664 17.5937 64.25 17.5937ZM54.6589 0.708639C55.6529 0.708639 56.5037 0.834012 57.2112 1.08476C57.9186 1.3355 58.4962 1.72058 58.944 2.23998C59.3917 2.75043 59.7231 3.39521 59.938 4.17431C60.144 4.95341 60.247 5.8758 60.247 6.94147V13.0669C60.247 14.5803 60.5336 15.6236 61.1067 16.1967C61.6709 16.7788 62.7186 17.0743 64.25 17.0832V18.2116C63.1664 18.2027 62.2664 18.0996 61.55 17.9026C60.8335 17.7146 60.2694 17.4281 59.8575 17.043C59.4455 16.6579 59.1544 16.1653 58.9843 15.5653C58.8052 14.9653 58.7156 14.2534 58.7156 13.4295V6.94147C58.7156 5.83102 58.5813 4.92207 58.3127 4.21461C58.035 3.50715 57.6007 2.98774 57.0097 2.6564C56.4097 2.32506 55.6261 2.15938 54.6589 2.15938V0.708639ZM64.25 17.0832V18.722H61.2545V17.0832H64.25Z" fill="white"/>
<path d="M25.6006 0.60673H38.3357C38.3357 1.79591 37.3717 2.75994 36.1825 2.75994H27.7538C26.5646 2.75994 25.6006 1.79591 25.6006 0.60673Z" fill="white"/>
<path d="M25.0083 23.5148L25.7964 22.53L23.2595 20.5006L25.7964 18.4712L25.0083 17.4865L21.8561 20.0083C21.7822 20.0673 21.7226 20.1422 21.6816 20.2275C21.6407 20.3127 21.6194 20.4061 21.6194 20.5006C21.6194 20.5952 21.6407 20.6886 21.6816 20.7738C21.7226 20.859 21.7822 20.9339 21.8561 20.993L25.0083 23.5148ZM29.8004 14.9628L27.2786 26.3108L26.0473 26.0372L28.5691 14.6892L29.8004 14.9628Z" fill="white"/>
<path d="M31.1543 16.7173C31.054 16.7173 30.9578 16.7572 30.8868 16.8281C30.8159 16.899 30.776 16.9953 30.776 17.0956C30.776 17.1959 30.8159 17.2921 30.8868 17.3631C30.9578 17.434 31.054 17.4739 31.1543 17.4739H35.3153C35.4156 17.4739 35.5118 17.434 35.5827 17.3631C35.6537 17.2921 35.6935 17.1959 35.6935 17.0956C35.6935 16.9953 35.6537 16.899 35.5827 16.8281C35.5118 16.7572 35.4156 16.7173 35.3153 16.7173H31.1543ZM33.4239 18.9869C33.3236 18.9869 33.2274 19.0268 33.1564 19.0977C33.0855 19.1687 33.0456 19.2649 33.0456 19.3652C33.0456 19.4655 33.0855 19.5617 33.1564 19.6327C33.2274 19.7036 33.3236 19.7435 33.4239 19.7435H37.2066C37.3069 19.7435 37.4031 19.7036 37.4741 19.6327C37.545 19.5617 37.5849 19.4655 37.5849 19.3652C37.5849 19.2649 37.545 19.1687 37.4741 19.0977C37.4031 19.0268 37.3069 18.9869 37.2066 18.9869H33.4239ZM32.2891 21.6348C32.2891 21.5345 32.329 21.4383 32.3999 21.3673C32.4708 21.2964 32.5671 21.2565 32.6674 21.2565H40.2327C40.3331 21.2565 40.4293 21.2964 40.5002 21.3673C40.5712 21.4383 40.611 21.5345 40.611 21.6348C40.611 21.7351 40.5712 21.8313 40.5002 21.9023C40.4293 21.9732 40.3331 22.0131 40.2327 22.0131H32.6674C32.5671 22.0131 32.4708 21.9732 32.3999 21.9023C32.329 21.8313 32.2891 21.7351 32.2891 21.6348ZM31.1543 23.5261C31.054 23.5261 30.9578 23.566 30.8868 23.6369C30.8159 23.7079 30.776 23.8041 30.776 23.9044C30.776 24.0047 30.8159 24.101 30.8868 24.1719C30.9578 24.2428 31.054 24.2827 31.1543 24.2827H37.5849C37.6852 24.2827 37.7814 24.2428 37.8523 24.1719C37.9233 24.101 37.9631 24.0047 37.9631 23.9044C37.9631 23.8041 37.9233 23.7079 37.8523 23.6369C37.7814 23.566 37.6852 23.5261 37.5849 23.5261H31.1543ZM38.7197 19.3652C38.7197 19.2649 38.7595 19.1687 38.8305 19.0977C38.9014 19.0268 38.9976 18.9869 39.0979 18.9869H41.7458C41.8461 18.9869 41.9424 19.0268 42.0133 19.0977C42.0842 19.1687 42.1241 19.2649 42.1241 19.3652C42.1241 19.4655 42.0842 19.5617 42.0133 19.6327C41.9424 19.7036 41.8461 19.7435 41.7458 19.7435H39.0979C38.9976 19.7435 38.9014 19.7036 38.8305 19.6327C38.7595 19.5617 38.7197 19.4655 38.7197 19.3652ZM37.2066 16.7173C37.1063 16.7173 37.0101 16.7572 36.9391 16.8281C36.8682 16.899 36.8283 16.9953 36.8283 17.0956C36.8283 17.1959 36.8682 17.2921 36.9391 17.3631C37.0101 17.434 37.1063 17.4739 37.2066 17.4739H42.5024C42.6027 17.4739 42.6989 17.434 42.7698 17.3631C42.8408 17.2921 42.8806 17.1959 42.8806 17.0956C42.8806 16.9953 42.8408 16.899 42.7698 16.8281C42.6989 16.7572 42.6027 16.7173 42.5024 16.7173H37.2066Z" fill="white"/>
<path d="M59.1053 40.3933C60.9865 40.3933 62.5115 38.7994 62.5115 36.8335H36.7669C36.7249 37.1819 36.7669 37.5505 35.8513 37.5505H27.7538C27.3726 37.5505 27.1604 37.1819 27.1604 36.8335H1.98852C1.98852 38.7994 3.51353 40.3933 5.39472 40.3933H59.1053Z" fill="white"/>
</svg>
