<svg width="81" height="48" viewBox="0 0 81 48" fill="none" xmlns="http://www.w3.org/2000/svg">
<path d="M16.1709 38.2849L15.331 37.8C16.4641 37.1381 17.0274 36.5627 17.0207 36.074C17.014 35.5776 16.4475 35.0042 15.321 34.3538L10.7618 31.7215C9.96862 31.2636 9.35873 30.823 8.93214 30.3997C8.51221 29.9725 8.27892 29.553 8.23226 29.1412C8.17894 28.7256 8.32224 28.3119 8.66219 27.9002C9.00213 27.4884 9.54202 27.0689 10.2819 26.6418L11.3617 27.2652C10.6352 27.677 10.1753 28.0849 9.98195 28.489C9.78865 28.8853 9.85198 29.2952 10.1719 29.7185C10.4985 30.138 11.0751 30.5863 11.9016 31.0635L16.7308 33.8516C17.344 34.2056 17.8073 34.5501 18.1205 34.8849C18.4404 35.2158 18.5938 35.5545 18.5804 35.9008C18.5604 36.2433 18.3571 36.6108 17.9705 37.0034C17.5773 37.392 16.9774 37.8192 16.1709 38.2849ZM35.8774 41.4193C35.1375 41.8465 34.411 42.1582 33.6977 42.3544C32.9846 42.5507 32.268 42.6335 31.5482 42.6027C30.8349 42.5757 30.1084 42.4411 29.3685 42.1986C28.6353 41.9523 27.8721 41.6002 27.079 41.1423L22.5198 38.51C21.3933 37.8596 20.4035 37.5344 19.5503 37.5344C18.6971 37.5267 17.6973 37.85 16.5508 38.5042L15.711 38.0193C16.5241 37.5575 17.2707 37.215 17.9505 36.9918C18.6238 36.7648 19.257 36.6455 19.8502 36.6339C20.4434 36.6224 21.0267 36.709 21.5999 36.8937C22.1798 37.0746 22.7764 37.342 23.3896 37.6961L28.2188 40.4842C29.0453 40.9614 29.8218 41.2942 30.5483 41.4828C31.2815 41.6675 31.9914 41.7041 32.6779 41.5925C33.3712 41.477 34.0777 41.2115 34.7976 40.7959L35.8774 41.4193ZM16.5508 38.5042L15.331 37.8L17.5606 36.5127L18.7804 37.2169L16.5508 38.5042Z" fill="#FF003D"/>
<path d="M63.4049 10.5501L64.2448 11.035C63.1117 11.6969 62.5485 12.2722 62.555 12.761C62.5618 13.2574 63.1283 13.8308 64.2548 14.4812L68.814 17.1134C69.6072 17.5714 70.2171 18.012 70.6436 18.4353C71.0636 18.8625 71.2968 19.2819 71.3435 19.6937C71.3968 20.1093 71.2535 20.523 70.9136 20.9348C70.5737 21.3466 70.0337 21.766 69.2939 22.1932L68.2141 21.5698C68.9406 21.158 69.4005 20.75 69.5939 20.346C69.7871 19.9496 69.7238 19.5398 69.4039 19.1165C69.0773 18.697 68.5007 18.2487 67.6742 17.7715L62.845 14.9834C62.2318 14.6293 61.7686 14.2849 61.4552 13.9501C61.1353 13.6191 60.9821 13.2805 60.9954 12.9341C61.0154 12.5916 61.2186 12.2241 61.6053 11.8316C61.9985 11.4429 62.5984 11.0157 63.4049 10.5501ZM43.6984 7.41564C44.4383 6.98848 45.1648 6.67674 45.878 6.48049C46.5912 6.28423 47.3078 6.20149 48.0277 6.23226C48.7408 6.25922 49.4674 6.39391 50.2073 6.63635C50.9405 6.88262 51.7037 7.23475 52.4969 7.6927L57.0561 10.325C58.1826 10.9753 59.1724 11.3005 60.0255 11.3005C60.8787 11.3082 61.8785 10.985 63.025 10.3307L63.8649 10.8156C63.0517 11.2774 62.3051 11.6199 61.6252 11.8431C60.952 12.0702 60.3189 12.1895 59.7256 12.201C59.1324 12.2126 58.5491 12.126 57.9758 11.9413C57.396 11.7604 56.7994 11.4929 56.1862 11.1389L51.357 8.35078C50.5305 7.87359 49.754 7.54069 49.0275 7.35212C48.2943 7.16742 47.5844 7.13086 46.8979 7.24244C46.2047 7.3579 45.4981 7.62345 44.7782 8.03906L43.6984 7.41564ZM63.025 10.3307L64.2448 11.035L62.0152 12.3222L60.7954 11.618L63.025 10.3307Z" fill="#FF003D"/>
<path d="M21.994 19.8591L31.4729 14.3864C32.358 14.8975 32.3581 15.726 31.4729 16.237L25.1994 19.8591C24.3142 20.3701 22.8791 20.3701 21.994 19.8591Z" fill="#FF003D"/>
<path d="M38.604 29.9579L38.4576 29.196L35.0588 29.4141L35.4366 27.4518L34.117 27.3673L33.6478 29.8056C33.6368 29.8627 33.6482 29.9205 33.6811 29.9748C33.714 30.029 33.7677 30.0783 33.8381 30.1189C33.9085 30.1595 33.9938 30.1905 34.0877 30.2095C34.1817 30.2286 34.2818 30.2351 34.3807 30.2288L38.604 29.9579ZM35.8054 24.2235L42.3749 30.1838L41.2548 30.5953L34.6853 24.635L35.8054 24.2235Z" fill="#FF003D"/>
<path d="M38.1191 24.3957C38.0444 24.4388 38.0024 24.4973 38.0024 24.5582C38.0024 24.6192 38.0444 24.6777 38.1191 24.7208C38.1937 24.7639 38.295 24.7881 38.4006 24.7881C38.5062 24.7881 38.6075 24.7639 38.6822 24.7208L41.7792 22.9327C41.8539 22.8896 41.8958 22.8311 41.8958 22.7701C41.8958 22.7092 41.8539 22.6507 41.7792 22.6076C41.7046 22.5645 41.6033 22.5403 41.4977 22.5403C41.3921 22.5403 41.2908 22.5645 41.2161 22.6076L38.1191 24.3957ZM41.4977 24.3957C41.423 24.4388 41.3811 24.4973 41.3811 24.5582C41.3811 24.6192 41.423 24.6777 41.4977 24.7208C41.5723 24.7639 41.6736 24.7881 41.7792 24.7881C41.8848 24.7881 41.9861 24.7639 42.0608 24.7208L44.8763 23.0952C44.9509 23.0521 44.9929 22.9937 44.9929 22.9327C44.9929 22.8717 44.9509 22.8133 44.8763 22.7701C44.8016 22.727 44.7003 22.7028 44.5947 22.7028C44.4891 22.7028 44.3878 22.727 44.3132 22.7701L41.4977 24.3957ZM42.6239 26.0212C42.5492 25.9781 42.5073 25.9196 42.5073 25.8586C42.5073 25.7977 42.5492 25.7392 42.6239 25.6961L48.2549 22.445C48.3296 22.4019 48.4308 22.3777 48.5364 22.3777C48.642 22.3777 48.7433 22.4019 48.818 22.445C48.8927 22.4881 48.9346 22.5466 48.9346 22.6076C48.9346 22.6686 48.8927 22.727 48.818 22.7701L43.187 26.0212C43.1123 26.0643 43.011 26.0885 42.9054 26.0885C42.7998 26.0885 42.6985 26.0643 42.6239 26.0212ZM43.187 27.3216C43.1123 27.3647 43.0704 27.4232 43.0704 27.4842C43.0704 27.5451 43.1123 27.6036 43.187 27.6467C43.2616 27.6898 43.3629 27.7141 43.4685 27.7141C43.5741 27.7141 43.6754 27.6898 43.7501 27.6467L48.5364 24.8833C48.6111 24.8402 48.6531 24.7817 48.6531 24.7208C48.6531 24.6598 48.6111 24.6013 48.5364 24.5582C48.4618 24.5151 48.3605 24.4909 48.2549 24.4909C48.1493 24.4909 48.048 24.5151 47.9733 24.5582L43.187 27.3216ZM45.7209 22.2825C45.6463 22.2394 45.6043 22.1809 45.6043 22.1199C45.6043 22.059 45.6463 22.0005 45.7209 21.9574L47.6918 20.8195C47.7665 20.7764 47.8677 20.7522 47.9733 20.7522C48.0789 20.7522 48.1802 20.7764 48.2549 20.8195C48.3296 20.8626 48.3715 20.9211 48.3715 20.9821C48.3715 21.043 48.3296 21.1015 48.2549 21.1446L46.284 22.2825C46.2094 22.3256 46.1081 22.3498 46.0025 22.3498C45.8969 22.3498 45.7956 22.3256 45.7209 22.2825ZM42.6239 21.7948C42.5492 21.8379 42.5073 21.8964 42.5073 21.9574C42.5073 22.0183 42.5492 22.0768 42.6239 22.1199C42.6985 22.163 42.7998 22.1873 42.9054 22.1873C43.011 22.1873 43.1123 22.163 43.187 22.1199L47.1287 19.8442C47.2034 19.8011 47.2453 19.7426 47.2453 19.6816C47.2453 19.6207 47.2034 19.5622 47.1287 19.5191C47.054 19.476 46.9527 19.4517 46.8471 19.4517C46.7415 19.4517 46.6403 19.476 46.5656 19.5191L42.6239 21.7948Z" fill="#FF003D"/>
<path d="M76.5457 22.5586C77.9459 21.7502 77.8947 20.4099 76.4314 19.5651L57.2693 30.6283C57.4974 30.7961 57.803 30.9364 57.1215 31.3299L51.0944 34.8096C50.8107 34.9734 50.3784 34.9062 50.1191 34.7565L31.3833 45.5736C32.8466 46.4184 35.168 46.448 36.5682 45.6396L76.5457 22.5586Z" fill="#FF003D"/>
<path d="M14.7956 36.9097L13.9557 36.4248C15.0889 35.7629 15.6521 35.1876 15.6455 34.6989C15.6388 34.2024 15.0723 33.629 13.9458 32.9787L9.38657 30.3464C8.59338 29.8885 7.98349 29.4478 7.5569 29.0245C7.13697 28.5974 6.90368 28.1779 6.85702 27.7661C6.8037 27.3505 6.947 26.9368 7.28694 26.525C7.62688 26.1133 8.16677 25.6938 8.90663 25.2666L9.98644 25.8901C9.25991 26.3018 8.80001 26.7097 8.60671 27.1138C8.41341 27.5102 8.47673 27.92 8.79667 28.3434C9.12329 28.7628 9.69985 29.2112 10.5264 29.6884L15.3555 32.4765C15.9687 32.8305 16.432 33.1749 16.7453 33.5097C17.0652 33.8407 17.2185 34.1793 17.2052 34.5257C17.1852 34.8682 16.9819 35.2357 16.5953 35.6282C16.202 36.0169 15.6021 36.4441 14.7956 36.9097ZM34.5021 40.0442C33.7623 40.4714 33.0357 40.7831 32.3225 40.9793C31.6093 41.1756 30.8928 41.2583 30.1729 41.2276C29.4597 41.2006 28.7332 41.0659 27.9933 40.8235C27.2601 40.5772 26.4969 40.2251 25.7037 39.7671L21.1445 37.1349C20.018 36.4845 19.0282 36.1593 18.175 36.1593C17.3218 36.1516 16.322 36.4749 15.1755 37.1291L14.3357 36.6442C15.1489 36.1824 15.8954 35.8399 16.5753 35.6167C17.2485 35.3896 17.8817 35.2703 18.475 35.2588C19.0682 35.2473 19.6514 35.3338 20.2246 35.5186C20.8046 35.6994 21.4011 35.9669 22.0144 36.3209L26.8435 39.1091C27.67 39.5862 28.4465 39.9191 29.1731 40.1077C29.9063 40.2924 30.6162 40.329 31.3027 40.2174C31.9959 40.1019 32.7024 39.8364 33.4223 39.4208L34.5021 40.0442ZM15.1755 37.1291L13.9557 36.4248L16.1854 35.1376L17.4051 35.8418L15.1755 37.1291Z" fill="#636363"/>
<path d="M62.0297 9.17493L62.8695 9.65983C61.7364 10.3218 61.1732 10.8971 61.1798 11.3858C61.1866 11.8823 61.7531 12.4556 62.8796 13.106L67.4388 15.7383C68.232 16.1962 68.8418 16.6368 69.2684 17.0602C69.6884 17.4873 69.9216 17.9068 69.9683 18.3185C70.0216 18.7342 69.8783 19.1479 69.5383 19.5596C69.1985 19.9714 68.6585 20.3909 67.9186 20.8181L66.8388 20.1946C67.5654 19.7829 68.0253 19.3749 68.2186 18.9708C68.4119 18.5745 68.3486 18.1646 68.0287 17.7413C67.702 17.3218 67.1255 16.8735 66.2989 16.3964L61.4698 13.6082C60.8565 13.2542 60.3933 12.9098 60.08 12.575C59.7601 12.244 59.6068 11.9053 59.6201 11.559C59.6401 11.2165 59.8434 10.849 60.23 10.4564C60.6232 10.0678 61.2232 9.64058 62.0297 9.17493ZM42.3232 6.0405C43.063 5.61335 43.7896 5.30161 44.5028 5.10535C45.216 4.9091 45.9325 4.82636 46.6524 4.85713C47.3656 4.88409 48.0921 5.01877 48.832 5.26121C49.5652 5.50749 50.3284 5.85962 51.1216 6.31757L55.6808 8.94983C56.8073 9.6002 57.7971 9.92538 58.6503 9.92541C59.5035 9.93308 60.5033 9.60983 61.6498 8.95558L62.4896 9.44048C61.6765 9.90229 60.9298 10.2448 60.25 10.468C59.5768 10.695 58.9436 10.8143 58.3504 10.8259C57.7572 10.8374 57.1738 10.7509 56.6006 10.5661C56.0207 10.3852 55.4242 10.1178 54.811 9.76376L49.9818 6.97565C49.1553 6.49846 48.3788 6.16556 47.6522 5.97699C46.919 5.79228 46.2091 5.75573 45.5226 5.86731C44.8294 5.98276 44.1228 6.24831 43.403 6.66393L42.3232 6.0405ZM61.6498 8.95558L62.8695 9.65983L60.64 10.9471L59.4202 10.2428L61.6498 8.95558Z" fill="#636363"/>
<path d="M20.6188 18.4839L30.0977 13.0113C30.9828 13.5223 30.9828 14.3509 30.0977 14.8619L23.8241 18.4839C22.939 18.995 21.5039 18.995 20.6188 18.4839Z" fill="#636363"/>
<path d="M37.2288 28.5827L37.0824 27.8209L33.6836 28.039L34.0613 26.0767L32.7418 25.9922L32.2725 28.4305C32.2615 28.4876 32.2729 28.5454 32.3058 28.5996C32.3388 28.6539 32.3924 28.7031 32.4628 28.7438C32.5332 28.7844 32.6185 28.8154 32.7125 28.8344C32.8064 28.8534 32.9066 28.86 33.0055 28.8536L37.2288 28.5827ZM34.4301 22.8484L40.9997 28.8087L39.8796 29.2202L33.31 23.2599L34.4301 22.8484Z" fill="#636363"/>
<path d="M36.7438 23.0205C36.6692 23.0636 36.6272 23.1221 36.6272 23.1831C36.6272 23.2441 36.6692 23.3025 36.7438 23.3456C36.8185 23.3888 36.9198 23.413 37.0254 23.413C37.131 23.413 37.2323 23.3888 37.3069 23.3456L40.404 21.5576C40.4787 21.5144 40.5206 21.456 40.5206 21.395C40.5206 21.334 40.4787 21.2756 40.404 21.2325C40.3293 21.1893 40.228 21.1651 40.1224 21.1651C40.0168 21.1651 39.9156 21.1893 39.8409 21.2325L36.7438 23.0205ZM40.1224 23.0205C40.0478 23.0636 40.0058 23.1221 40.0058 23.1831C40.0058 23.2441 40.0478 23.3025 40.1224 23.3456C40.1971 23.3888 40.2984 23.413 40.404 23.413C40.5096 23.413 40.6109 23.3888 40.6855 23.3456L43.501 21.7201C43.5757 21.677 43.6177 21.6185 43.6177 21.5576C43.6177 21.4966 43.5757 21.4381 43.501 21.395C43.4264 21.3519 43.3251 21.3277 43.2195 21.3277C43.1139 21.3277 43.0126 21.3519 42.9379 21.395L40.1224 23.0205ZM41.2486 24.6461C41.174 24.603 41.132 24.5445 41.132 24.4835C41.132 24.4225 41.174 24.3641 41.2486 24.321L46.8796 21.0699C46.9543 21.0268 47.0556 21.0026 47.1612 21.0026C47.2668 21.0026 47.3681 21.0268 47.4427 21.0699C47.5174 21.113 47.5594 21.1715 47.5594 21.2325C47.5594 21.2934 47.5174 21.3519 47.4427 21.395L41.8117 24.6461C41.7371 24.6892 41.6358 24.7134 41.5302 24.7134C41.4246 24.7134 41.3233 24.6892 41.2486 24.6461ZM41.8117 25.9465C41.7371 25.9896 41.6951 26.0481 41.6951 26.109C41.6951 26.17 41.7371 26.2285 41.8117 26.2716C41.8864 26.3147 41.9877 26.3389 42.0933 26.3389C42.1989 26.3389 42.3002 26.3147 42.3748 26.2716L47.1612 23.5082C47.2359 23.4651 47.2778 23.4066 47.2778 23.3456C47.2778 23.2847 47.2359 23.2262 47.1612 23.1831C47.0865 23.14 46.9852 23.1158 46.8796 23.1158C46.774 23.1158 46.6728 23.14 46.5981 23.1831L41.8117 25.9465ZM44.3457 20.9073C44.271 20.8642 44.2291 20.8058 44.2291 20.7448C44.2291 20.6838 44.271 20.6254 44.3457 20.5822L46.3165 19.4444C46.3912 19.4013 46.4925 19.377 46.5981 19.377C46.7037 19.377 46.805 19.4013 46.8796 19.4444C46.9543 19.4875 46.9963 19.546 46.9963 19.6069C46.9963 19.6679 46.9543 19.7264 46.8796 19.7695L44.9088 20.9073C44.8341 20.9505 44.7328 20.9747 44.6272 20.9747C44.5216 20.9747 44.4204 20.9505 44.3457 20.9073ZM41.2486 20.4197C41.174 20.4628 41.132 20.5213 41.132 20.5822C41.132 20.6432 41.174 20.7017 41.2486 20.7448C41.3233 20.7879 41.4246 20.8121 41.5302 20.8121C41.6358 20.8121 41.7371 20.7879 41.8117 20.7448L45.7534 18.469C45.8281 18.4259 45.8701 18.3675 45.8701 18.3065C45.8701 18.2455 45.8281 18.1871 45.7534 18.1439C45.6788 18.1008 45.5775 18.0766 45.4719 18.0766C45.3663 18.0766 45.265 18.1008 45.1903 18.1439L41.2486 20.4197Z" fill="#636363"/>
<path d="M75.1705 21.1834C76.5707 20.375 76.5194 19.0348 75.0561 18.1899L55.8941 29.2531C56.1221 29.4209 56.4278 29.5613 55.7463 29.9547L49.7192 33.4344C49.4355 33.5983 49.0032 33.531 48.7439 33.3813L30.0081 44.1984C31.4714 45.0433 33.7928 45.0729 35.1929 44.2645L75.1705 21.1834Z" fill="#636363"/>
<path d="M13.4206 35.5346L12.5807 35.0497C13.7139 34.3878 14.2771 33.8125 14.2705 33.3237C14.2638 32.8273 13.6973 32.2539 12.5708 31.6035L8.01157 28.9713C7.21838 28.5133 6.60849 28.0727 6.1819 27.6494C5.76197 27.2222 5.52868 26.8027 5.48202 26.391C5.4287 25.9754 5.572 25.5617 5.91194 25.1499C6.25188 24.7381 6.79177 24.3187 7.53163 23.8915L8.61144 24.5149C7.88491 24.9267 7.42501 25.3346 7.23171 25.7387C7.03841 26.1351 7.10173 26.5449 7.42167 26.9682C7.74829 27.3877 8.32485 27.836 9.15137 28.3132L13.9805 31.1013C14.5937 31.4554 15.057 31.7998 15.3703 32.1346C15.6902 32.4655 15.8435 32.8042 15.8302 33.1506C15.8102 33.4931 15.6069 33.8606 15.2203 34.2531C14.827 34.6418 14.2271 35.0689 13.4206 35.5346ZM33.1271 38.6691C32.3873 39.0962 31.6607 39.4079 30.9475 39.6042C30.2343 39.8005 29.5178 39.8832 28.7979 39.8524C28.0847 39.8255 27.3582 39.6908 26.6183 39.4483C25.8851 39.202 25.1219 38.8499 24.3287 38.392L19.7695 35.7597C18.643 35.1094 17.6532 34.7842 16.8 34.7842C15.9468 34.7765 14.947 35.0997 13.8005 35.7539L12.9607 35.2691C13.7739 34.8073 14.5204 34.4648 15.2003 34.2415C15.8735 34.0145 16.5067 33.8952 17.1 33.8837C17.6932 33.8721 18.2764 33.9587 18.8496 34.1434C19.4296 34.3243 20.0261 34.5918 20.6394 34.9458L25.4685 37.7339C26.295 38.2111 27.0715 38.544 27.7981 38.7326C28.5313 38.9173 29.2412 38.9538 29.9277 38.8422C30.6209 38.7268 31.3274 38.4613 32.0473 38.0456L33.1271 38.6691ZM13.8005 35.7539L12.5807 35.0497L14.8104 33.7624L16.0301 34.4667L13.8005 35.7539Z" fill="black"/>
<path d="M60.6547 7.7998L61.4945 8.2847C60.3614 8.94664 59.7982 9.52195 59.8048 10.0107C59.8116 10.5071 60.3781 11.0805 61.5046 11.7309L66.0638 14.3631C66.857 14.8211 67.4668 15.2617 67.8934 15.685C68.3134 16.1122 68.5466 16.5317 68.5933 16.9434C68.6466 17.3591 68.5033 17.7728 68.1633 18.1845C67.8235 18.5963 67.2835 19.0158 66.5436 19.4429L65.4638 18.8195C66.1904 18.4077 66.6503 17.9998 66.8436 17.5957C67.0369 17.1993 66.9736 16.7895 66.6537 16.3662C66.327 15.9467 65.7505 15.4984 64.9239 15.0212L60.0948 12.2331C59.4815 11.879 59.0183 11.5346 58.705 11.1998C58.3851 10.8689 58.2318 10.5302 58.2451 10.1838C58.2651 9.84134 58.4684 9.47384 58.855 9.08131C59.2482 8.69264 59.8482 8.26545 60.6547 7.7998ZM40.9482 4.66537C41.688 4.23821 42.4146 3.92647 43.1278 3.73022C43.841 3.53397 44.5575 3.45122 45.2774 3.482C45.9906 3.50895 46.7171 3.64364 47.457 3.88608C48.1902 4.13235 48.9534 4.48449 49.7466 4.94244L54.3058 7.5747C55.4323 8.22507 56.4221 8.55024 57.2753 8.55028C58.1285 8.55795 59.1283 8.23469 60.2748 7.58045L61.1146 8.06535C60.3015 8.52716 59.5548 8.86966 58.875 9.09285C58.2018 9.3199 57.5686 9.43921 56.9754 9.45076C56.3822 9.4623 55.7988 9.37572 55.2256 9.191C54.6457 9.01011 54.0492 8.74267 53.436 8.38863L48.6068 5.60052C47.7803 5.12332 47.0038 4.79042 46.2772 4.60185C45.544 4.41715 44.8341 4.38059 44.1476 4.49217C43.4544 4.60763 42.7478 4.87318 42.028 5.2888L40.9482 4.66537ZM60.2748 7.58045L61.4945 8.2847L59.265 9.57195L58.0452 8.86771L60.2748 7.58045Z" fill="black"/>
<path d="M19.2438 17.1088L28.7227 11.6362C29.6078 12.1472 29.6078 12.9757 28.7227 13.4868L22.4491 17.1088C21.564 17.6198 20.1289 17.6198 19.2438 17.1088Z" fill="black"/>
<path d="M35.8538 27.2076L35.7074 26.4458L32.3086 26.6638L32.6863 24.7016L31.3668 24.617L30.8975 27.0553C30.8865 27.1124 30.8979 27.1703 30.9308 27.2245C30.9638 27.2787 31.0174 27.328 31.0878 27.3686C31.1582 27.4093 31.2435 27.4403 31.3375 27.4593C31.4314 27.4783 31.5316 27.4849 31.6305 27.4785L35.8538 27.2076ZM33.0551 21.4733L39.6247 27.4335L38.5046 27.8451L31.935 21.8848L33.0551 21.4733Z" fill="black"/>
<path d="M35.3688 21.6454C35.2942 21.6885 35.2522 21.747 35.2522 21.808C35.2522 21.8689 35.2942 21.9274 35.3688 21.9705C35.4435 22.0136 35.5448 22.0378 35.6504 22.0378C35.756 22.0378 35.8573 22.0136 35.9319 21.9705L39.029 20.1824C39.1037 20.1393 39.1456 20.0808 39.1456 20.0199C39.1456 19.9589 39.1037 19.9004 39.029 19.8573C38.9543 19.8142 38.853 19.79 38.7474 19.79C38.6418 19.79 38.5406 19.8142 38.4659 19.8573L35.3688 21.6454ZM38.7474 21.6454C38.6728 21.6885 38.6308 21.747 38.6308 21.808C38.6308 21.8689 38.6728 21.9274 38.7474 21.9705C38.8221 22.0136 38.9234 22.0378 39.029 22.0378C39.1346 22.0378 39.2359 22.0136 39.3105 21.9705L42.126 20.345C42.2007 20.3019 42.2427 20.2434 42.2427 20.1824C42.2427 20.1215 42.2007 20.063 42.126 20.0199C42.0514 19.9768 41.9501 19.9525 41.8445 19.9525C41.7389 19.9525 41.6376 19.9768 41.5629 20.0199L38.7474 21.6454ZM39.8736 23.2709C39.799 23.2278 39.757 23.1694 39.757 23.1084C39.757 23.0474 39.799 22.9889 39.8736 22.9458L45.5046 19.6948C45.5793 19.6517 45.6806 19.6274 45.7862 19.6274C45.8918 19.6274 45.9931 19.6517 46.0677 19.6948C46.1424 19.7379 46.1844 19.7963 46.1844 19.8573C46.1844 19.9183 46.1424 19.9768 46.0677 20.0199L40.4367 23.2709C40.3621 23.314 40.2608 23.3383 40.1552 23.3383C40.0496 23.3383 39.9483 23.314 39.8736 23.2709ZM40.4367 24.5714C40.3621 24.6145 40.3201 24.6729 40.3201 24.7339C40.3201 24.7949 40.3621 24.8534 40.4367 24.8965C40.5114 24.9396 40.6127 24.9638 40.7183 24.9638C40.8239 24.9638 40.9252 24.9396 40.9998 24.8965L45.7862 22.1331C45.8609 22.09 45.9028 22.0315 45.9028 21.9705C45.9028 21.9095 45.8609 21.8511 45.7862 21.808C45.7115 21.7648 45.6102 21.7406 45.5046 21.7406C45.399 21.7406 45.2978 21.7648 45.2231 21.808L40.4367 24.5714ZM42.9707 19.5322C42.896 19.4891 42.8541 19.4306 42.8541 19.3697C42.8541 19.3087 42.896 19.2502 42.9707 19.2071L44.9415 18.0692C45.0162 18.0261 45.1175 18.0019 45.2231 18.0019C45.3287 18.0019 45.43 18.0261 45.5046 18.0692C45.5793 18.1123 45.6213 18.1708 45.6213 18.2318C45.6213 18.2928 45.5793 18.3512 45.5046 18.3943L43.5338 19.5322C43.4591 19.5753 43.3578 19.5995 43.2522 19.5995C43.1466 19.5995 43.0454 19.5753 42.9707 19.5322ZM39.8736 19.0446C39.799 19.0877 39.757 19.1461 39.757 19.2071C39.757 19.2681 39.799 19.3265 39.8736 19.3697C39.9483 19.4128 40.0496 19.437 40.1552 19.437C40.2608 19.437 40.3621 19.4128 40.4367 19.3697L44.3784 17.0939C44.4531 17.0508 44.4951 16.9923 44.4951 16.9314C44.4951 16.8704 44.4531 16.8119 44.3784 16.7688C44.3038 16.7257 44.2025 16.7015 44.0969 16.7015C43.9913 16.7015 43.89 16.7257 43.8153 16.7688L39.8736 19.0446Z" fill="black"/>
<path d="M73.7955 19.8083C75.1957 18.9999 75.1444 17.6597 73.6811 16.8148L54.5191 27.878C54.7471 28.0458 55.0528 28.1861 54.3713 28.5796L48.3442 32.0593C48.0605 32.2231 47.6282 32.1559 47.3689 32.0062L28.6331 42.8233C30.0964 43.6682 32.4178 43.6977 33.8179 42.8893L73.7955 19.8083Z" fill="black"/>
</svg>
