<svg width="104" height="88" viewBox="0 0 104 88" fill="none" xmlns="http://www.w3.org/2000/svg">
<path d="M20.5484 69.3661L19.4571 68.4569C20.9295 67.2158 21.6614 66.1371 21.6527 65.2207C21.6441 64.2899 20.9079 63.2148 19.4441 61.9953L13.5197 57.0599C12.489 56.2012 11.6965 55.375 11.1421 54.5813C10.5965 53.7804 10.2933 52.9939 10.2327 52.2218C10.1634 51.4425 10.3496 50.6668 10.7914 49.8948C11.2331 49.1227 11.9346 48.3362 12.896 47.5353L14.2992 48.7042C13.3551 49.4763 12.7575 50.2411 12.5063 50.9987C12.2551 51.742 12.3374 52.5104 12.7532 53.3041C13.1776 54.0906 13.9268 54.9312 15.0008 55.826L21.276 61.0537C22.0728 61.7175 22.6748 62.3633 23.0818 62.9911C23.4976 63.6116 23.6968 64.2466 23.6795 64.896C23.6535 65.5382 23.3893 66.2273 22.887 66.9632C22.376 67.692 21.5964 68.493 20.5484 69.3661ZM46.1558 75.2432C45.1944 76.0441 44.2503 76.6286 43.3235 76.9965C42.3968 77.3646 41.4657 77.5197 40.5303 77.462C39.6035 77.4114 38.6594 77.1589 37.6979 76.7043C36.7452 76.2425 35.7535 75.5823 34.7228 74.7237L28.7984 69.7882C27.3346 68.5687 26.0484 67.959 24.9397 67.959C23.8311 67.9446 22.5319 68.5507 21.0421 69.7773L19.9508 68.8682C21.0075 68.0023 21.9775 67.3601 22.861 66.9416C23.7358 66.5159 24.5586 66.2922 25.3295 66.2706C26.1004 66.2489 26.8582 66.4113 27.6031 66.7576C28.3567 67.0968 29.1319 67.5983 29.9287 68.2621L36.2039 73.4898C37.2779 74.3845 38.2869 75.0086 39.2311 75.3623C40.1838 75.7086 41.1063 75.7772 41.9983 75.5679C42.8992 75.3514 43.8172 74.8536 44.7527 74.0743L46.1558 75.2432ZM21.0421 69.7773L19.4571 68.4569L22.3543 66.0433L23.9393 67.3637L21.0421 69.7773Z" fill="#161616"/>
<path d="M81.9262 17.3633L83.0175 18.2725C81.5451 19.5137 80.8132 20.5924 80.8218 21.5087C80.8306 22.4396 81.5668 23.5147 83.0306 24.7341L88.955 29.6696C89.9857 30.5282 90.7782 31.3544 91.3324 32.1481C91.8782 32.9491 92.1812 33.7356 92.2419 34.5076C92.3112 35.287 92.125 36.0626 91.6832 36.8347C91.2416 37.6067 90.5399 38.3933 89.5785 39.1942L88.1754 38.0253C89.1195 37.2532 89.7171 36.4883 89.9683 35.7307C90.2194 34.9875 90.1372 34.219 89.7215 33.4253C89.297 32.6388 88.5478 31.7982 87.4738 30.9035L81.1986 25.6758C80.4017 25.0119 79.7998 24.3661 79.3927 23.7384C78.9769 23.1178 78.7778 22.4828 78.7951 21.8334C78.8211 21.1912 79.0852 20.5022 79.5876 19.7662C80.0986 19.0374 80.8782 18.2364 81.9262 17.3633ZM56.3188 11.4863C57.2802 10.6854 58.2243 10.1008 59.1511 9.73287C60.0778 9.3649 61.0089 9.20975 61.9444 9.26746C62.8711 9.318 63.8152 9.57053 64.7766 10.0251C65.7294 10.4869 66.7211 11.1471 67.7518 12.0058L73.6762 16.9413C75.14 18.1607 76.4263 18.7704 77.5349 18.7705C78.6436 18.7849 79.9427 18.1788 81.4325 16.9521L82.5239 17.8612C81.4672 18.7271 80.497 19.3693 79.6136 19.7878C78.7388 20.2135 77.916 20.4372 77.1452 20.4589C76.3743 20.4805 75.6163 20.3182 74.8714 19.9718C74.1179 19.6327 73.3427 19.1312 72.5459 18.4674L66.2707 13.2397C65.1967 12.3449 64.1877 11.7207 63.2436 11.3672C62.2908 11.0209 61.3684 10.9523 60.4763 11.1615C59.5755 11.378 58.6573 11.8759 57.7219 12.6552L56.3188 11.4863ZM81.4325 16.9521L83.0175 18.2725L80.1203 20.6861L78.5353 19.3657L81.4325 16.9521Z" fill="#161616"/>
<path d="M28.1153 34.8177L40.4325 24.5565C41.5827 25.5147 41.5827 27.0682 40.4325 28.0264L32.2804 34.8177C31.1302 35.7759 29.2654 35.7759 28.1153 34.8177Z" fill="#161616"/>
<path d="M49.6989 53.7529L49.5087 52.3245L45.0922 52.7334L45.583 49.0541L43.8684 48.8956L43.2586 53.4674C43.2443 53.5745 43.2591 53.683 43.3019 53.7846C43.3447 53.8863 43.4144 53.9787 43.5059 54.0549C43.5973 54.1311 43.7082 54.1892 43.8303 54.2248C43.9524 54.2605 44.0825 54.2728 44.211 54.2609L49.6989 53.7529ZM46.0623 43.0011L54.599 54.1766L53.1435 54.9482L44.6068 43.7727L46.0623 43.0011Z" fill="#161616"/>
<path d="M49.0688 43.3238C48.9717 43.4047 48.9172 43.5143 48.9172 43.6286C48.9172 43.7429 48.9717 43.8526 49.0688 43.9334C49.1658 44.0142 49.2974 44.0597 49.4346 44.0597C49.5718 44.0597 49.7034 44.0142 49.8005 43.9334L53.8249 40.5808C53.9219 40.4999 53.9765 40.3903 53.9765 40.276C53.9765 40.1617 53.9219 40.052 53.8249 39.9712C53.7279 39.8903 53.5963 39.8449 53.4591 39.8449C53.3218 39.8449 53.1902 39.8903 53.0932 39.9712L49.0688 43.3238ZM53.4591 43.3238C53.362 43.4047 53.3075 43.5143 53.3075 43.6286C53.3075 43.7429 53.362 43.8526 53.4591 43.9334C53.5561 44.0142 53.6877 44.0597 53.8249 44.0597C53.9621 44.0597 54.0937 44.0142 54.1908 43.9334L57.8493 40.8855C57.9464 40.8047 58.0009 40.6951 58.0009 40.5808C58.0009 40.4664 57.9464 40.3568 57.8493 40.276C57.7523 40.1951 57.6207 40.1497 57.4835 40.1497C57.3463 40.1497 57.2147 40.1951 57.1176 40.276L53.4591 43.3238ZM54.9225 46.3717C54.8255 46.2909 54.7709 46.1812 54.7709 46.0669C54.7709 45.9526 54.8255 45.843 54.9225 45.7621L62.2396 39.6664C62.3367 39.5856 62.4683 39.5401 62.6055 39.5401C62.7427 39.5401 62.8743 39.5856 62.9713 39.6664C63.0684 39.7472 63.1229 39.8569 63.1229 39.9712C63.1229 40.0855 63.0684 40.1951 62.9713 40.276L55.6542 46.3717C55.5572 46.4525 55.4256 46.498 55.2883 46.498C55.1511 46.498 55.0195 46.4525 54.9225 46.3717ZM55.6542 48.81C55.5572 48.8908 55.5027 49.0005 55.5027 49.1148C55.5027 49.2291 55.5572 49.3387 55.6542 49.4196C55.7512 49.5004 55.8828 49.5458 56.0201 49.5458C56.1573 49.5458 56.2889 49.5004 56.3859 49.4196L62.6055 44.2382C62.7025 44.1574 62.757 44.0477 62.757 43.9334C62.757 43.8191 62.7025 43.7095 62.6055 43.6286C62.5085 43.5478 62.3769 43.5024 62.2396 43.5024C62.1024 43.5024 61.9708 43.5478 61.8738 43.6286L55.6542 48.81ZM58.9469 39.3616C58.8499 39.2808 58.7954 39.1711 58.7954 39.0568C58.7954 38.9425 58.8499 38.8329 58.9469 38.752L61.5079 36.6185C61.6049 36.5377 61.7366 36.4923 61.8738 36.4923C62.011 36.4923 62.1426 36.5377 62.2396 36.6185C62.3367 36.6994 62.3912 36.809 62.3912 36.9233C62.3912 37.0376 62.3367 37.1473 62.2396 37.2281L59.6786 39.3616C59.5816 39.4424 59.45 39.4879 59.3128 39.4879C59.1755 39.4879 59.0439 39.4424 58.9469 39.3616ZM54.9225 38.4472C54.8255 38.5281 54.7709 38.6377 54.7709 38.752C54.7709 38.8663 54.8255 38.976 54.9225 39.0568C55.0195 39.1377 55.1511 39.1831 55.2883 39.1831C55.4256 39.1831 55.5572 39.1377 55.6542 39.0568L60.7762 34.7898C60.8732 34.709 60.9277 34.5993 60.9277 34.485C60.9277 34.3707 60.8732 34.2611 60.7762 34.1802C60.6792 34.0994 60.5476 34.054 60.4103 34.054C60.2731 34.054 60.1415 34.0994 60.0445 34.1802L54.9225 38.4472Z" fill="#161616"/>
<path d="M99.0018 39.8793C100.821 38.3635 100.755 35.8506 98.8532 34.2665L73.9534 55.01C74.2497 55.3246 74.6468 55.5877 73.7613 56.3254L65.9295 62.8499C65.5608 63.1571 64.999 63.031 64.6621 62.7503L40.316 83.0324C42.2175 84.6165 45.234 84.6719 47.0535 83.1562L99.0018 39.8793Z" fill="#161616"/>
<path d="M18.7613 67.7408L17.6699 66.8316C19.1424 65.5905 19.8743 64.5118 19.8656 63.5954C19.857 62.6646 19.1208 61.5895 17.657 60.37L11.7326 55.4346C10.7019 54.5759 9.90936 53.7497 9.35503 52.956C8.80936 52.1551 8.50621 51.3686 8.44558 50.5965C8.3763 49.8172 8.56251 49.0415 9.00425 48.2695C9.44597 47.4974 10.1475 46.7109 11.1089 45.91L12.5121 47.0789C11.568 47.851 10.9704 48.6158 10.7192 49.3735C10.468 50.1167 10.5503 50.8851 10.966 51.6788C11.3905 52.4653 12.1397 53.306 13.2137 54.2007L19.4889 59.4284C20.2857 60.0922 20.8877 60.7381 21.2947 61.3658C21.7105 61.9863 21.9097 62.6213 21.8924 63.2707C21.8664 63.9129 21.6022 64.602 21.0999 65.338C20.5888 66.0667 19.8093 66.8677 18.7613 67.7408ZM44.3687 73.6179C43.4073 74.4188 42.4632 75.0033 41.5364 75.3712C40.6097 75.7393 39.6786 75.8944 38.7432 75.8367C37.8163 75.7861 36.8723 75.5337 35.9108 75.079C34.9581 74.6172 33.9664 73.957 32.9357 73.0984L27.0113 68.1629C25.5475 66.9435 24.2613 66.3337 23.1526 66.3337C22.044 66.3193 20.7448 66.9254 19.255 68.152L18.1637 67.2429C19.2204 66.377 20.1904 65.7348 21.0739 65.3163C21.9487 64.8906 22.7715 64.6669 23.5424 64.6453C24.3133 64.6236 25.0711 64.786 25.816 65.1323C26.5695 65.4715 27.3448 65.973 28.1416 66.6368L34.4168 71.8645C35.4908 72.7592 36.4998 73.3834 37.444 73.737C38.3967 74.0833 39.3192 74.1519 40.2112 73.9426C41.112 73.7261 42.0301 73.2283 42.9655 72.449L44.3687 73.6179ZM19.255 68.152L17.6699 66.8316L20.5672 64.418L22.1522 65.7384L19.255 68.152Z" fill="#C9C9C9"/>
<path d="M80.1391 15.738L81.2304 16.6472C79.758 17.8884 79.0261 18.9671 79.0347 19.8835C79.0435 20.8143 79.7797 21.8894 81.2435 23.1088L87.1679 28.0443C88.1985 28.903 88.9911 29.7291 89.5453 30.5228C90.0911 31.3238 90.3941 32.1103 90.4548 32.8823C90.5241 33.6617 90.3379 34.4373 89.8961 35.2094C89.4545 35.9815 88.7528 36.768 87.7914 37.5689L86.3883 36.4C87.3323 35.6279 87.93 34.863 88.1812 34.1054C88.4323 33.3622 88.3501 32.5937 87.9344 31.8C87.5099 31.0135 86.7607 30.1729 85.6867 29.2782L79.4115 24.0505C78.6146 23.3866 78.0127 22.7408 77.6056 22.1131C77.1898 21.4925 76.9907 20.8576 77.008 20.2081C77.034 19.5659 77.2981 18.8769 77.8005 18.1409C78.3115 17.4121 79.091 16.6111 80.1391 15.738ZM54.5317 9.86098C55.4931 9.06006 56.4372 8.47556 57.3639 8.10758C58.2907 7.73961 59.2218 7.58446 60.1573 7.64217C61.084 7.69271 62.0281 7.94524 62.9895 8.39982C63.9423 8.86158 64.934 9.52183 65.9647 10.3805L71.8891 15.316C73.3529 16.5354 74.6391 17.1451 75.7478 17.1452C76.8565 17.1596 78.1556 16.5535 79.6454 15.3268L80.7367 16.2359C79.6801 17.1018 78.7099 17.744 77.8265 18.1625C76.9517 18.5882 76.1289 18.8119 75.3581 18.8336C74.5872 18.8552 73.8292 18.6929 73.0843 18.3465C72.3308 18.0074 71.5556 17.5059 70.7588 16.8421L64.4836 11.6144C63.4096 10.7197 62.4006 10.0955 61.4565 9.74189C60.5037 9.39557 59.5813 9.32703 58.6892 9.53625C57.7884 9.75272 56.8702 10.2506 55.9348 11.0299L54.5317 9.86098ZM79.6454 15.3268L81.2304 16.6472L78.3332 19.0608L76.7482 17.7404L79.6454 15.3268Z" fill="#C9C9C9"/>
<path d="M26.3281 33.1924L38.6454 22.9312C39.7956 23.8894 39.7956 25.4429 38.6454 26.4011L30.4933 33.1924C29.3431 34.1506 27.4783 34.1506 26.3281 33.1924Z" fill="#C9C9C9"/>
<path d="M47.9118 52.1276L47.7216 50.6992L43.305 51.1081L43.7959 47.4288L42.0813 47.2703L41.4715 51.8422C41.4572 51.9493 41.472 52.0577 41.5148 52.1594C41.5576 52.261 41.6273 52.3534 41.7188 52.4296C41.8102 52.5058 41.9211 52.5639 42.0432 52.5996C42.1652 52.6352 42.2954 52.6475 42.4239 52.6356L47.9118 52.1276ZM44.2752 41.3758L52.8118 52.5513L51.3563 53.3229L42.8197 42.1474L44.2752 41.3758Z" fill="#C9C9C9"/>
<path d="M47.2817 41.6985C47.1846 41.7794 47.1301 41.889 47.1301 42.0033C47.1301 42.1177 47.1846 42.2273 47.2817 42.3081C47.3787 42.389 47.5103 42.4344 47.6475 42.4344C47.7847 42.4344 47.9163 42.389 48.0134 42.3081L52.0378 38.9555C52.1348 38.8746 52.1893 38.765 52.1893 38.6507C52.1893 38.5364 52.1348 38.4267 52.0378 38.3459C51.9408 38.2651 51.8092 38.2196 51.6719 38.2196C51.5347 38.2196 51.4031 38.2651 51.3061 38.3459L47.2817 41.6985ZM51.6719 41.6985C51.5749 41.7794 51.5204 41.889 51.5204 42.0033C51.5204 42.1177 51.5749 42.2273 51.6719 42.3081C51.769 42.389 51.9006 42.4344 52.0378 42.4344C52.175 42.4344 52.3066 42.389 52.4037 42.3081L56.0622 39.2603C56.1593 39.1794 56.2138 39.0698 56.2138 38.9555C56.2138 38.8411 56.1593 38.7315 56.0622 38.6507C55.9652 38.5698 55.8336 38.5244 55.6964 38.5244C55.5592 38.5244 55.4276 38.5698 55.3305 38.6507L51.6719 41.6985ZM53.1354 44.7464C53.0383 44.6656 52.9838 44.5559 52.9838 44.4416C52.9838 44.3273 53.0383 44.2177 53.1354 44.1368L60.4525 38.0411C60.5496 37.9603 60.6812 37.9149 60.8184 37.9149C60.9556 37.9149 61.0872 37.9603 61.1842 38.0411C61.2813 38.1219 61.3358 38.2316 61.3358 38.3459C61.3358 38.4602 61.2813 38.5698 61.1842 38.6507L53.8671 44.7464C53.7701 44.8273 53.6385 44.8727 53.5012 44.8727C53.364 44.8727 53.2324 44.8273 53.1354 44.7464ZM53.8671 47.1847C53.7701 47.2656 53.7155 47.3752 53.7155 47.4895C53.7155 47.6038 53.7701 47.7135 53.8671 47.7943C53.9641 47.8751 54.0957 47.9205 54.2329 47.9205C54.3702 47.9205 54.5018 47.8751 54.5988 47.7943L60.8184 42.6129C60.9154 42.5321 60.9699 42.4224 60.9699 42.3081C60.9699 42.1938 60.9154 42.0842 60.8184 42.0033C60.7213 41.9225 60.5897 41.8771 60.4525 41.8771C60.3153 41.8771 60.1837 41.9225 60.0867 42.0033L53.8671 47.1847ZM57.1598 37.7363C57.0628 37.6555 57.0083 37.5458 57.0083 37.4315C57.0083 37.3172 57.0628 37.2076 57.1598 37.1267L59.7208 34.9932C59.8178 34.9124 59.9494 34.867 60.0867 34.867C60.2239 34.867 60.3555 34.9124 60.4525 34.9932C60.5496 35.0741 60.6041 35.1837 60.6041 35.298C60.6041 35.4123 60.5496 35.522 60.4525 35.6028L57.8915 37.7363C57.7945 37.8171 57.6629 37.8626 57.5257 37.8626C57.3884 37.8626 57.2568 37.8171 57.1598 37.7363ZM53.1354 36.822C53.0383 36.9028 52.9838 37.0124 52.9838 37.1267C52.9838 37.2411 53.0383 37.3507 53.1354 37.4315C53.2324 37.5124 53.364 37.5578 53.5012 37.5578C53.6385 37.5578 53.7701 37.5124 53.8671 37.4315L58.9891 33.1645C59.0861 33.0837 59.1406 32.974 59.1406 32.8597C59.1406 32.7454 59.0861 32.6358 58.9891 32.5549C58.8921 32.4741 58.7605 32.4287 58.6232 32.4287C58.486 32.4287 58.3544 32.4741 58.2574 32.5549L53.1354 36.822Z" fill="#C9C9C9"/>
<path d="M97.2147 38.254C99.0342 36.7382 98.9676 34.2253 97.0661 32.6412L72.1663 53.3847C72.4626 53.6993 72.8597 53.9624 71.9741 54.7001L64.1424 61.2246C63.7737 61.5318 63.2119 61.4057 62.875 61.125L38.5289 81.4071C40.4304 82.9912 43.4469 83.0466 45.2664 81.5309L97.2147 38.254Z" fill="#C9C9C9"/>
<path d="M16.9744 66.1155L15.8831 65.2063C17.3555 63.9652 18.0874 62.8865 18.0788 61.9701C18.0701 61.0393 17.3339 59.9642 15.8701 58.7448L9.94572 53.8093C8.91501 52.9506 8.1225 52.1244 7.56816 51.3307C7.0225 50.5298 6.71935 49.7433 6.65872 48.9712C6.58943 48.1919 6.77564 47.4163 7.21738 46.6442C7.65911 45.8721 8.36066 45.0856 9.32206 44.2847L10.7252 45.4536C9.78113 46.2257 9.18352 46.9905 8.93233 47.7482C8.68115 48.4914 8.76344 49.2598 9.17918 50.0536C9.6036 50.8401 10.3528 51.6807 11.4268 52.5754L17.702 57.8031C18.4988 58.4669 19.1008 59.1128 19.5079 59.7405C19.9236 60.361 20.1229 60.996 20.1055 61.6454C20.0795 62.2876 19.8154 62.9767 19.313 63.7127C18.802 64.4415 18.0225 65.2424 16.9744 66.1155ZM42.5818 71.9926C41.6204 72.7935 40.6764 73.378 39.7495 73.746C38.8228 74.114 37.8917 74.2691 36.9563 74.2114C36.0295 74.1609 35.0854 73.9084 34.124 73.4537C33.1712 72.992 32.1795 72.3317 31.1488 71.4731L25.2244 66.5376C23.7606 65.3182 22.4744 64.7085 21.3658 64.7084C20.2571 64.694 18.9579 65.3001 17.4681 66.5268L16.3768 65.6176C17.4335 64.7517 18.4036 64.1095 19.287 63.691C20.1618 63.2653 20.9847 63.0416 21.7555 63.02C22.5264 62.9984 23.2842 63.1607 24.0291 63.507C24.7827 63.8462 25.5579 64.3477 26.3547 65.0115L32.6299 70.2392C33.7039 71.134 34.713 71.7581 35.6571 72.1117C36.6098 72.458 37.5323 72.5266 38.4244 72.3173C39.3252 72.1008 40.2433 71.603 41.1787 70.8237L42.5818 71.9926ZM17.4681 66.5268L15.8831 65.2063L18.7803 62.7927L20.3654 64.1131L17.4681 66.5268Z" fill="#161616"/>
<path d="M78.3522 14.1128L79.4436 15.0219C77.9711 16.2631 77.2393 17.3418 77.2478 18.2582C77.2566 19.189 77.9928 20.2641 79.4566 21.4835L85.381 26.419C86.4117 27.2777 87.2042 28.1038 87.7585 28.8976C88.3042 29.6985 88.6073 30.485 88.6679 31.257C88.7372 32.0364 88.551 32.8121 88.1093 33.5841C87.6676 34.3562 86.966 35.1427 86.0046 35.9436L84.6014 34.7747C85.5455 34.0026 86.1431 33.2377 86.3943 32.4801C86.6455 31.7369 86.5632 30.9685 86.1475 30.1747C85.7231 29.3882 84.9739 28.5477 83.8999 27.6529L77.6247 22.4252C76.8278 21.7613 76.2258 21.1155 75.8187 20.4878C75.403 19.8673 75.2039 19.2323 75.2211 18.5828C75.2471 17.9406 75.5113 17.2516 76.0136 16.5156C76.5246 15.7868 77.3042 14.9858 78.3522 14.1128ZM52.7448 8.23569C53.7062 7.43477 54.6503 6.85027 55.5771 6.48229C56.5038 6.11432 57.4349 5.95917 58.3704 6.01688C59.2971 6.06742 60.2412 6.31995 61.2027 6.77453C62.1554 7.23629 63.1472 7.89654 64.1779 8.7552L70.1023 13.6907C71.5661 14.9101 72.8523 15.5198 73.9609 15.5199C75.0696 15.5343 76.3688 14.9282 77.8585 13.7015L78.9499 14.6107C77.8932 15.4766 76.923 16.1187 76.0396 16.5372C75.1648 16.9629 74.342 17.1867 73.5712 17.2083C72.8003 17.2299 72.0423 17.0676 71.2975 16.7212C70.5439 16.3821 69.7688 15.8806 68.9719 15.2168L62.6967 9.9891C61.6227 9.09436 60.6137 8.47017 59.6696 8.1166C58.7168 7.77028 57.7944 7.70174 56.9023 7.91096C56.0015 8.12743 55.0834 8.62534 54.1479 9.40462L52.7448 8.23569ZM77.8585 13.7015L79.4436 15.0219L76.5463 17.4355L74.9613 16.1151L77.8585 13.7015Z" fill="#161616"/>
<path d="M24.5413 31.5671L36.8585 21.3059C38.0087 22.2641 38.0087 23.8176 36.8586 24.7758L28.7065 31.5671C27.5563 32.5253 25.6914 32.5253 24.5413 31.5671Z" fill="#161616"/>
<path d="M46.1249 50.5023L45.9347 49.0739L41.5182 49.4828L42.009 45.8035L40.2944 45.6451L39.6846 50.2169C39.6703 50.324 39.6851 50.4324 39.7279 50.5341C39.7707 50.6358 39.8404 50.7281 39.9319 50.8043C40.0234 50.8805 40.1342 50.9386 40.2563 50.9743C40.3784 51.0099 40.5085 51.0222 40.6371 51.0103L46.1249 50.5023ZM42.4883 39.7505L51.025 50.926L49.5695 51.6976L41.0328 40.5221L42.4883 39.7505Z" fill="#161616"/>
<path d="M45.4948 40.0733C45.3978 40.1541 45.3432 40.2637 45.3432 40.378C45.3432 40.4924 45.3978 40.602 45.4948 40.6828C45.5918 40.7637 45.7234 40.8091 45.8606 40.8091C45.9979 40.8091 46.1295 40.7637 46.2265 40.6828L50.2509 37.3302C50.348 37.2493 50.4025 37.1397 50.4025 37.0254C50.4025 36.9111 50.348 36.8014 50.2509 36.7206C50.1539 36.6398 50.0223 36.5944 49.8851 36.5944C49.7479 36.5944 49.6163 36.6398 49.5192 36.7206L45.4948 40.0733ZM49.8851 40.0733C49.788 40.1541 49.7335 40.2637 49.7335 40.378C49.7335 40.4924 49.788 40.602 49.8851 40.6828C49.9821 40.7637 50.1137 40.8091 50.2509 40.8091C50.3882 40.8091 50.5198 40.7637 50.6168 40.6828L54.2754 37.635C54.3724 37.5541 54.4269 37.4445 54.4269 37.3302C54.4269 37.2159 54.3724 37.1062 54.2754 37.0254C54.1783 36.9446 54.0467 36.8991 53.9095 36.8991C53.7723 36.8991 53.6407 36.9446 53.5437 37.0254L49.8851 40.0733ZM51.3485 43.1211C51.2515 43.0403 51.197 42.9307 51.197 42.8163C51.197 42.702 51.2515 42.5924 51.3485 42.5116L58.6657 36.4158C58.7627 36.335 58.8943 36.2896 59.0315 36.2896C59.1687 36.2896 59.3003 36.335 59.3974 36.4158C59.4944 36.4966 59.5489 36.6063 59.5489 36.7206C59.5489 36.8349 59.4944 36.9446 59.3974 37.0254L52.0802 43.1211C51.9832 43.202 51.8516 43.2474 51.7144 43.2474C51.5771 43.2474 51.4455 43.202 51.3485 43.1211ZM52.0802 45.5594C51.9832 45.6403 51.9287 45.7499 51.9287 45.8642C51.9287 45.9785 51.9832 46.0882 52.0802 46.169C52.1773 46.2498 52.3089 46.2952 52.4461 46.2952C52.5833 46.2952 52.7149 46.2498 52.8119 46.169L59.0315 40.9876C59.1285 40.9068 59.1831 40.7972 59.1831 40.6828C59.1831 40.5685 59.1285 40.4589 59.0315 40.378C58.9345 40.2972 58.8029 40.2518 58.6657 40.2518C58.5284 40.2518 58.3968 40.2972 58.2998 40.378L52.0802 45.5594ZM55.3729 36.111C55.2759 36.0302 55.2214 35.9206 55.2214 35.8062C55.2214 35.6919 55.2759 35.5823 55.3729 35.5015L57.9339 33.3679C58.031 33.2871 58.1626 33.2417 58.2998 33.2417C58.437 33.2417 58.5686 33.2871 58.6657 33.3679C58.7627 33.4488 58.8172 33.5584 58.8172 33.6727C58.8172 33.787 58.7627 33.8967 58.6657 33.9775L56.1047 36.111C56.0076 36.1919 55.876 36.2373 55.7388 36.2373C55.6016 36.2373 55.47 36.1919 55.3729 36.111ZM51.3485 35.1967C51.2515 35.2775 51.197 35.3871 51.197 35.5014C51.197 35.6158 51.2515 35.7254 51.3485 35.8062C51.4455 35.8871 51.5771 35.9325 51.7144 35.9325C51.8516 35.9325 51.9832 35.8871 52.0802 35.8062L57.2022 31.5392C57.2993 31.4584 57.3538 31.3487 57.3538 31.2344C57.3538 31.1201 57.2993 31.0105 57.2022 30.9296C57.1052 30.8488 56.9736 30.8034 56.8364 30.8034C56.6991 30.8034 56.5675 30.8488 56.4705 30.9296L51.3485 35.1967Z" fill="#161616"/>
<path d="M95.4278 36.6287C97.2473 35.1129 97.1807 32.6 95.2793 31.0159L70.3794 51.7594C70.6757 52.074 71.0729 52.3371 70.1873 53.0749L62.3555 59.5993C61.9868 59.9065 61.4251 59.7805 61.0881 59.4997L36.7421 79.7818C38.6436 81.3659 41.6601 81.4214 43.4795 79.9056L95.4278 36.6287Z" fill="#161616"/>
</svg>
