<svg width="100" height="100" viewBox="0 0 100 100" fill="none" xmlns="http://www.w3.org/2000/svg">
<path d="M54.875 16.6668L75 36.7918V83.3335H25V16.6668H54.875ZM58.3333 8.3335H25C20.4167 8.3335 16.6667 12.0835 16.6667 16.6668V83.3335C16.6667 87.9168 20.4167 91.6668 25 91.6668H75C79.5833 91.6668 83.3333 87.9168 83.3333 83.3335V33.3335L58.3333 8.3335ZM62.5 45.8335H45.8333V50.0002H58.3333C60.625 50.0002 62.5 51.8752 62.5 54.1668V66.6668C62.5 68.9585 60.625 70.8335 58.3333 70.8335H54.1667V75.0002H45.8333V70.8335H37.5V62.5002H54.1667V58.3335H41.6667C39.375 58.3335 37.5 56.4585 37.5 54.1668V41.6668C37.5 39.3752 39.375 37.5002 41.6667 37.5002H45.8333V33.3335H54.1667V37.5002H62.5V45.8335Z" fill="#636363"/>
</svg>
