<svg width="100" height="100" viewBox="0 0 100 100" fill="none" xmlns="http://www.w3.org/2000/svg">
<path d="M29.1667 38.3333H43.75C44.6528 38.3333 45.4 38.0375 45.9917 37.4458C46.5806 36.8569 46.875 36.1111 46.875 35.2083C46.875 34.3056 46.5806 33.5583 45.9917 32.9667C45.4 32.3778 44.6528 32.0833 43.75 32.0833H29.1667C28.2639 32.0833 27.5181 32.3778 26.9292 32.9667C26.3375 33.5583 26.0417 34.3056 26.0417 35.2083C26.0417 36.1111 26.3375 36.8569 26.9292 37.4458C27.5181 38.0375 28.2639 38.3333 29.1667 38.3333ZM57.2917 71.875H71.875C72.7778 71.875 73.525 71.5806 74.1167 70.9917C74.7056 70.4 75 69.6528 75 68.75C75 67.8472 74.7056 67.1014 74.1167 66.5125C73.525 65.9208 72.7778 65.625 71.875 65.625H57.2917C56.3889 65.625 55.6431 65.9208 55.0542 66.5125C54.4625 67.1014 54.1667 67.8472 54.1667 68.75C54.1667 69.6528 54.4625 70.4 55.0542 70.9917C55.6431 71.5806 56.3889 71.875 57.2917 71.875ZM57.2917 61.4583H71.875C72.7778 61.4583 73.525 61.1625 74.1167 60.5708C74.7056 59.9819 75 59.2361 75 58.3333C75 57.4306 74.7056 56.6833 74.1167 56.0917C73.525 55.5028 72.7778 55.2083 71.875 55.2083H57.2917C56.3889 55.2083 55.6431 55.5028 55.0542 56.0917C54.4625 56.6833 54.1667 57.4306 54.1667 58.3333C54.1667 59.2361 54.4625 59.9819 55.0542 60.5708C55.6431 61.1625 56.3889 61.4583 57.2917 61.4583ZM36.4583 75C37.3611 75 38.1083 74.7056 38.7 74.1167C39.2889 73.525 39.5833 72.7778 39.5833 71.875V66.6667H44.7917C45.6944 66.6667 46.4417 66.3708 47.0333 65.7792C47.6222 65.1903 47.9167 64.4444 47.9167 63.5417C47.9167 62.6389 47.6222 61.8917 47.0333 61.3C46.4417 60.7111 45.6944 60.4167 44.7917 60.4167H39.5833V55.2083C39.5833 54.3056 39.2889 53.5583 38.7 52.9667C38.1083 52.3778 37.3611 52.0833 36.4583 52.0833C35.5556 52.0833 34.8097 52.3778 34.2208 52.9667C33.6292 53.5583 33.3333 54.3056 33.3333 55.2083V60.4167H28.125C27.2222 60.4167 26.4764 60.7111 25.8875 61.3C25.2958 61.8917 25 62.6389 25 63.5417C25 64.4444 25.2958 65.1903 25.8875 65.7792C26.4764 66.3708 27.2222 66.6667 28.125 66.6667H33.3333V71.875C33.3333 72.7778 33.6292 73.525 34.2208 74.1167C34.8097 74.7056 35.5556 75 36.4583 75ZM56.5625 43.4375C57.1875 44.0625 57.9167 44.375 58.75 44.375C59.5833 44.375 60.3125 44.0625 60.9375 43.4375L64.5833 39.7917L68.3333 43.5417C68.8889 44.0972 69.5833 44.375 70.4167 44.375C71.25 44.375 71.9792 44.0625 72.6042 43.4375C73.1597 42.8819 73.4375 42.1694 73.4375 41.3C73.4375 40.4333 73.1597 39.6875 72.6042 39.0625L68.9583 35.2083L72.7083 31.4583C73.2639 30.9028 73.5417 30.2083 73.5417 29.375C73.5417 28.5417 73.2292 27.8125 72.6042 27.1875C71.9792 26.5625 71.25 26.25 70.4167 26.25C69.5833 26.25 68.8542 26.5625 68.2292 27.1875L64.5833 30.8333L60.8333 27.0833C60.2778 26.5278 59.5833 26.25 58.75 26.25C57.9167 26.25 57.1875 26.5625 56.5625 27.1875C55.9375 27.8125 55.625 28.5417 55.625 29.375C55.625 30.2083 55.9375 30.9375 56.5625 31.5625L60.2083 35.2083L56.4583 39.0625C55.9028 39.6875 55.625 40.4167 55.625 41.25C55.625 42.0833 55.9375 42.8125 56.5625 43.4375ZM20.8333 87.5C18.5417 87.5 16.5792 86.6847 14.9458 85.0542C13.3153 83.4208 12.5 81.4583 12.5 79.1667V20.8333C12.5 18.5417 13.3153 16.5792 14.9458 14.9458C16.5792 13.3153 18.5417 12.5 20.8333 12.5H79.1667C81.4583 12.5 83.4208 13.3153 85.0542 14.9458C86.6847 16.5792 87.5 18.5417 87.5 20.8333V79.1667C87.5 81.4583 86.6847 83.4208 85.0542 85.0542C83.4208 86.6847 81.4583 87.5 79.1667 87.5H20.8333ZM20.8333 79.1667H79.1667V20.8333H20.8333V79.1667ZM20.8333 79.1667V20.8333V79.1667Z" fill="#636363"/>
</svg>
