<svg width="100" height="100" viewBox="0 0 100 100" fill="none" xmlns="http://www.w3.org/2000/svg">
<path d="M25 44.7917C25 43.5605 25.2425 42.3414 25.7136 41.204C26.1848 40.0666 26.8753 39.0331 27.7459 38.1625C28.6164 37.292 29.6499 36.6014 30.7873 36.1303C31.9248 35.6592 33.1439 35.4167 34.375 35.4167C35.6061 35.4167 36.8252 35.6592 37.9627 36.1303C39.1001 36.6014 40.1336 37.292 41.0041 38.1625C41.8747 39.0331 42.5652 40.0666 43.0364 41.204C43.5075 42.3414 43.75 43.5605 43.75 44.7917C43.75 47.2781 42.7623 49.6626 41.0041 51.4208C39.246 53.1789 36.8614 54.1667 34.375 54.1667C31.8886 54.1667 29.504 53.1789 27.7459 51.4208C25.9877 49.6626 25 47.2781 25 44.7917V44.7917ZM34.375 41.6667C33.5462 41.6667 32.7513 41.9959 32.1653 42.582C31.5792 43.168 31.25 43.9629 31.25 44.7917C31.25 45.6205 31.5792 46.4153 32.1653 47.0014C32.7513 47.5874 33.5462 47.9167 34.375 47.9167C35.2038 47.9167 35.9987 47.5874 36.5847 47.0014C37.1708 46.4153 37.5 45.6205 37.5 44.7917C37.5 43.9629 37.1708 43.168 36.5847 42.582C35.9987 41.9959 35.2038 41.6667 34.375 41.6667ZM34.375 58.3333C31.8886 58.3333 29.504 59.3211 27.7459 61.0792C25.9877 62.8374 25 65.2219 25 67.7083C25 70.1947 25.9877 72.5793 27.7459 74.3375C29.504 76.0956 31.8886 77.0833 34.375 77.0833C36.8614 77.0833 39.246 76.0956 41.0041 74.3375C42.7623 72.5793 43.75 70.1947 43.75 67.7083C43.75 65.2219 42.7623 62.8374 41.0041 61.0792C39.246 59.3211 36.8614 58.3333 34.375 58.3333ZM31.25 67.7083C31.25 66.8795 31.5792 66.0847 32.1653 65.4986C32.7513 64.9126 33.5462 64.5833 34.375 64.5833C35.2038 64.5833 35.9987 64.9126 36.5847 65.4986C37.1708 66.0847 37.5 66.8795 37.5 67.7083C37.5 68.5371 37.1708 69.332 36.5847 69.918C35.9987 70.5041 35.2038 70.8333 34.375 70.8333C33.5462 70.8333 32.7513 70.5041 32.1653 69.918C31.5792 69.332 31.25 68.5371 31.25 67.7083ZM50 44.7917C50 43.9629 50.3292 43.168 50.9153 42.582C51.5013 41.9959 52.2962 41.6667 53.125 41.6667H71.875C72.7038 41.6667 73.4987 41.9959 74.0847 42.582C74.6708 43.168 75 43.9629 75 44.7917C75 45.6205 74.6708 46.4153 74.0847 47.0014C73.4987 47.5874 72.7038 47.9167 71.875 47.9167H53.125C52.2962 47.9167 51.5013 47.5874 50.9153 47.0014C50.3292 46.4153 50 45.6205 50 44.7917ZM53.125 64.5833C52.2962 64.5833 51.5013 64.9126 50.9153 65.4986C50.3292 66.0847 50 66.8795 50 67.7083C50 68.5371 50.3292 69.332 50.9153 69.918C51.5013 70.5041 52.2962 70.8333 53.125 70.8333H71.875C72.7038 70.8333 73.4987 70.5041 74.0847 69.918C74.6708 69.332 75 68.5371 75 67.7083C75 66.8795 74.6708 66.0847 74.0847 65.4986C73.4987 64.9126 72.7038 64.5833 71.875 64.5833H53.125ZM25 28.125C25 27.2962 25.3292 26.5013 25.9153 25.9153C26.5013 25.3292 27.2962 25 28.125 25H71.875C72.7038 25 73.4987 25.3292 74.0847 25.9153C74.6708 26.5013 75 27.2962 75 28.125C75 28.9538 74.6708 29.7487 74.0847 30.3347C73.4987 30.9208 72.7038 31.25 71.875 31.25H28.125C27.2962 31.25 26.5013 30.9208 25.9153 30.3347C25.3292 29.7487 25 28.9538 25 28.125ZM26.0417 12.5C22.4502 12.5 19.0058 13.9267 16.4663 16.4663C13.9267 19.0058 12.5 22.4502 12.5 26.0417V73.9583C12.5 77.5498 13.9267 80.9942 16.4663 83.5337C19.0058 86.0733 22.4502 87.5 26.0417 87.5H73.9583C77.5498 87.5 80.9942 86.0733 83.5337 83.5337C86.0733 80.9942 87.5 77.5498 87.5 73.9583V26.0417C87.5 22.4502 86.0733 19.0058 83.5337 16.4663C80.9942 13.9267 77.5498 12.5 73.9583 12.5H26.0417ZM18.75 26.0417C18.75 22.0167 22.0167 18.75 26.0417 18.75H73.9583C77.9833 18.75 81.25 22.0167 81.25 26.0417V73.9583C81.25 75.8922 80.4818 77.7469 79.1143 79.1143C77.7469 80.4818 75.8922 81.25 73.9583 81.25H26.0417C24.1078 81.25 22.2531 80.4818 20.8857 79.1143C19.5182 77.7469 18.75 75.8922 18.75 73.9583V26.0417Z" fill="#636363"/>
</svg>
