<svg width="505" height="678" viewBox="0 0 505 678" fill="none" xmlns="http://www.w3.org/2000/svg">
<path d="M231.111 446C238.773 446 246.121 449.044 251.539 454.461C256.956 459.879 260 467.227 260 474.889V648.222C260 655.884 256.956 663.232 251.539 668.65C246.121 674.067 238.773 677.111 231.111 677.111H28.8889C21.2271 677.111 13.8791 674.067 8.46136 668.65C3.04364 663.232 0 655.884 0 648.222V474.889C0 467.227 3.04364 459.879 8.46136 454.461C13.8791 449.044 21.2271 446 28.8889 446H231.111ZM231.111 532.667H28.8889V633.778C28.8894 637.316 30.1883 640.73 32.5392 643.374C34.8902 646.018 38.1297 647.707 41.6433 648.121L43.3333 648.222H216.667C220.205 648.222 223.619 646.923 226.263 644.572C228.907 642.221 230.596 638.981 231.01 635.468L231.111 633.778V532.667ZM43.3333 474.889C39.5024 474.889 35.8284 476.411 33.1196 479.12C30.4107 481.828 28.8889 485.502 28.8889 489.333C28.8889 493.164 30.4107 496.838 33.1196 499.547C35.8284 502.256 39.5024 503.778 43.3333 503.778C47.1642 503.778 50.8382 502.256 53.5471 499.547C56.256 496.838 57.7778 493.164 57.7778 489.333C57.7778 485.502 56.256 481.828 53.5471 479.12C50.8382 476.411 47.1642 474.889 43.3333 474.889ZM86.6667 474.889C82.8358 474.889 79.1618 476.411 76.4529 479.12C73.744 481.828 72.2222 485.502 72.2222 489.333C72.2222 493.164 73.744 496.838 76.4529 499.547C79.1618 502.256 82.8358 503.778 86.6667 503.778C90.4976 503.778 94.1716 502.256 96.8804 499.547C99.5893 496.838 101.111 493.164 101.111 489.333C101.111 485.502 99.5893 481.828 96.8804 479.12C94.1716 476.411 90.4976 474.889 86.6667 474.889ZM130 474.889C126.169 474.889 122.495 476.411 119.786 479.12C117.077 481.828 115.556 485.502 115.556 489.333C115.556 493.164 117.077 496.838 119.786 499.547C122.495 502.256 126.169 503.778 130 503.778C133.831 503.778 137.505 502.256 140.214 499.547C142.923 496.838 144.444 493.164 144.444 489.333C144.444 485.502 142.923 481.828 140.214 479.12C137.505 476.411 133.831 474.889 130 474.889Z" fill="#161616"/>
<path d="M259.24 358C259.96 352.06 260.5 346.12 260.5 340C260.5 333.88 259.96 327.94 259.24 322H289.66C291.1 327.76 292 333.79 292 340C292 346.21 291.1 352.24 289.66 358M243.31 408.04C248.71 398.05 252.85 387.25 255.73 376H282.28C273.561 391.014 259.727 402.388 243.31 408.04ZM241.06 358H198.94C198.04 352.06 197.5 346.12 197.5 340C197.5 333.88 198.04 327.85 198.94 322H241.06C241.87 327.85 242.5 333.88 242.5 340C242.5 346.12 241.87 352.06 241.06 358ZM220 411.64C212.53 400.84 206.5 388.87 202.81 376H237.19C233.5 388.87 227.47 400.84 220 411.64ZM184 304H157.72C166.35 288.945 180.173 277.553 196.6 271.96C191.2 281.95 187.15 292.75 184 304ZM157.72 376H184C187.15 387.25 191.2 398.05 196.6 408.04C180.208 402.385 166.404 391.009 157.72 376ZM150.34 358C148.9 352.24 148 346.21 148 340C148 333.79 148.9 327.76 150.34 322H180.76C180.04 327.94 179.5 333.88 179.5 340C179.5 346.12 180.04 352.06 180.76 358M220 268.27C227.47 279.07 233.5 291.13 237.19 304H202.81C206.5 291.13 212.53 279.07 220 268.27ZM282.28 304H255.73C252.913 292.853 248.742 282.093 243.31 271.96C259.87 277.63 273.64 289.06 282.28 304ZM220 250C170.23 250 130 290.5 130 340C130 363.869 139.482 386.761 156.36 403.64C164.718 411.997 174.639 418.626 185.558 423.149C196.478 427.672 208.181 430 220 430C243.869 430 266.761 420.518 283.64 403.64C300.518 386.761 310 363.869 310 340C310 328.181 307.672 316.478 303.149 305.558C298.626 294.639 291.997 284.718 283.64 276.36C275.282 268.003 265.361 261.374 254.442 256.851C243.522 252.328 231.819 250 220 250Z" fill="#161616"/>
<path d="M80.4375 207.75C78.1997 207.75 76.0536 208.639 74.4713 210.221C72.8889 211.804 72 213.95 72 216.188C72 218.425 72.8889 220.571 74.4713 222.154C76.0536 223.736 78.1997 224.625 80.4375 224.625H131.063C133.3 224.625 135.446 223.736 137.029 222.154C138.611 220.571 139.5 218.425 139.5 216.188C139.5 213.95 138.611 211.804 137.029 210.221C135.446 208.639 133.3 207.75 131.063 207.75H80.4375ZM83.25 182.438C83.25 180.2 84.1389 178.054 85.7213 176.471C87.3036 174.889 89.4497 174 91.6875 174H153.563C155.8 174 157.946 174.889 159.529 176.471C161.111 178.054 162 180.2 162 182.438C162 184.675 161.111 186.821 159.529 188.404C157.946 189.986 155.8 190.875 153.563 190.875H91.6875C89.4497 190.875 87.3036 189.986 85.7213 188.404C84.1389 186.821 83.25 184.675 83.25 182.438ZM102.938 241.5C100.7 241.5 98.5536 242.389 96.9713 243.971C95.3889 245.554 94.5 247.7 94.5 249.938C94.5 252.175 95.3889 254.321 96.9713 255.904C98.5536 257.486 100.7 258.375 102.938 258.375H153.563C155.8 258.375 157.946 257.486 159.529 255.904C161.111 254.321 162 252.175 162 249.938C162 247.7 161.111 245.554 159.529 243.971C157.946 242.389 155.8 241.5 153.563 241.5H102.938Z" fill="#161616"/>
<path d="M27 148.688C27 137.82 35.82 129 46.6875 129H187.313C198.18 129 207 137.82 207 148.688V289.313C207 294.534 204.926 299.542 201.234 303.234C197.542 306.926 192.534 309 187.313 309H46.6875C41.4661 309 36.4585 306.926 32.7663 303.234C29.0742 299.542 27 294.534 27 289.313V148.688ZM46.6875 145.875C45.9416 145.875 45.2262 146.171 44.6988 146.699C44.1713 147.226 43.875 147.942 43.875 148.688V289.313C43.875 290.865 45.135 292.125 46.6875 292.125H187.313C188.058 292.125 188.774 291.829 189.301 291.301C189.829 290.774 190.125 290.058 190.125 289.313V148.688C190.125 147.942 189.829 147.226 189.301 146.699C188.774 146.171 188.058 145.875 187.313 145.875H46.6875Z" fill="#161616"/>
<path d="M479 0H271C264.104 0 257.491 2.73928 252.615 7.61522C247.739 12.4912 245 19.1044 245 26V78C245 84.8956 247.739 91.5088 252.615 96.3848C257.491 101.261 264.104 104 271 104H479C485.896 104 492.509 101.261 497.385 96.3848C502.261 91.5088 505 84.8956 505 78V26C505 19.1044 502.261 12.4912 497.385 7.61522C492.509 2.73928 485.896 0 479 0ZM271 78V26H479V78H271ZM479 130H271C264.104 130 257.491 132.739 252.615 137.615C247.739 142.491 245 149.104 245 156V208C245 214.896 247.739 221.509 252.615 226.385C257.491 231.261 264.104 234 271 234H479C485.896 234 492.509 231.261 497.385 226.385C502.261 221.509 505 214.896 505 208V156C505 149.104 502.261 142.491 497.385 137.615C492.509 132.739 485.896 130 479 130ZM271 208V156H479V208H271Z" fill="#161616"/>
<path d="M440 39H466V65H440V39ZM401 39H427V65H401V39ZM440 169H466V195H440V169ZM401 169H427V195H401V169Z" fill="#161616"/>
</svg>
