<svg width="260" height="268" viewBox="0 0 260 268" fill="none" xmlns="http://www.w3.org/2000/svg">
<path d="M208.679 4V245.099C208.679 248.413 205.993 251.099 202.679 251.099H43C39.6863 251.099 37 248.413 37 245.099V10C37 6.68629 39.6863 4 43 4H185.809C189.123 4 191.809 6.68629 191.809 10V235.221" stroke="#2F2F2F" stroke-width="8"/>
<path d="M159.062 157.771V98.3206C159.062 95.0069 156.375 92.3206 153.062 92.3206H93.6113C90.2976 92.3206 87.6113 95.0069 87.6113 98.3206V157.771C87.6113 161.085 90.2976 163.771 93.6113 163.771H153.062C156.375 163.771 159.062 161.085 159.062 157.771Z" stroke="#2F2F2F" stroke-width="6"/>
<path d="M120.791 128.388H125.291V145.996C125.283 147.611 124.94 149 124.264 150.166C123.587 151.324 122.641 152.216 121.427 152.844C120.22 153.464 118.814 153.773 117.208 153.773C115.741 153.773 114.42 153.513 113.246 152.991C112.081 152.461 111.155 151.678 110.471 150.643C109.786 149.608 109.443 148.32 109.443 146.779H113.955C113.964 147.456 114.11 148.038 114.396 148.528C114.689 149.017 115.093 149.392 115.606 149.653C116.12 149.913 116.711 150.044 117.379 150.044C118.105 150.044 118.72 149.893 119.226 149.591C119.731 149.282 120.114 148.825 120.375 148.222C120.644 147.619 120.783 146.877 120.791 145.996V128.388Z" fill="#2F2F2F"/>
<path d="M143.822 135.272C143.708 134.205 143.227 133.373 142.379 132.778C141.54 132.183 140.447 131.885 139.102 131.885C138.157 131.885 137.346 132.028 136.669 132.313C135.992 132.599 135.475 132.986 135.116 133.475C134.757 133.964 134.574 134.523 134.566 135.15C134.566 135.672 134.684 136.124 134.92 136.508C135.165 136.891 135.495 137.217 135.911 137.486C136.327 137.747 136.787 137.967 137.293 138.146C137.798 138.325 138.307 138.476 138.821 138.599L141.169 139.185C142.114 139.406 143.023 139.703 143.896 140.078C144.776 140.453 145.563 140.926 146.256 141.497C146.957 142.067 147.511 142.756 147.919 143.563C148.326 144.37 148.53 145.316 148.53 146.4C148.53 147.867 148.155 149.159 147.405 150.276C146.655 151.385 145.571 152.253 144.152 152.881C142.742 153.5 141.034 153.81 139.029 153.81C137.081 153.81 135.389 153.508 133.954 152.905C132.528 152.302 131.411 151.422 130.604 150.264C129.805 149.106 129.373 147.696 129.308 146.033H133.771C133.836 146.905 134.105 147.631 134.578 148.21C135.051 148.788 135.666 149.221 136.424 149.506C137.191 149.791 138.047 149.934 138.992 149.934C139.979 149.934 140.843 149.787 141.585 149.494C142.335 149.192 142.921 148.776 143.345 148.246C143.769 147.708 143.985 147.081 143.993 146.363C143.985 145.711 143.794 145.173 143.419 144.749C143.044 144.317 142.518 143.958 141.841 143.673C141.173 143.38 140.39 143.119 139.494 142.891L136.644 142.157C134.582 141.627 132.952 140.824 131.753 139.748C130.563 138.664 129.968 137.225 129.968 135.431C129.968 133.956 130.367 132.664 131.166 131.555C131.973 130.447 133.07 129.586 134.456 128.975C135.841 128.356 137.411 128.046 139.163 128.046C140.941 128.046 142.498 128.356 143.834 128.975C145.18 129.586 146.235 130.438 147.002 131.531C147.768 132.615 148.163 133.862 148.188 135.272H143.822Z" fill="#2F2F2F"/>
<path d="M223.564 16.9008V258C223.564 261.314 220.878 264 217.564 264H57.8848C54.5711 264 51.8848 261.314 51.8848 258V22.9008C51.8848 19.5871 54.5711 16.9008 57.8848 16.9008H200.694C204.008 16.9008 206.694 19.5871 206.694 22.9008V248.122" stroke="#FF003D" stroke-width="8"/>
<path d="M173.946 170.672V111.221C173.946 107.908 171.26 105.221 167.946 105.221H108.496C105.182 105.221 102.496 107.908 102.496 111.221V170.672C102.496 173.985 105.182 176.672 108.496 176.672H167.946C171.26 176.672 173.946 173.985 173.946 170.672Z" stroke="#FF003D" stroke-width="6"/>
<path d="M135.676 141.289H140.176V158.897C140.167 160.511 139.825 161.901 139.148 163.067C138.472 164.225 137.526 165.117 136.312 165.745C135.105 166.364 133.699 166.674 132.093 166.674C130.626 166.674 129.305 166.413 128.131 165.892C126.965 165.362 126.04 164.579 125.355 163.544C124.671 162.509 124.328 161.221 124.328 159.68H128.84C128.848 160.356 128.995 160.939 129.28 161.428C129.574 161.918 129.977 162.292 130.491 162.553C131.005 162.814 131.596 162.945 132.264 162.945C132.99 162.945 133.605 162.794 134.11 162.492C134.616 162.182 134.999 161.726 135.26 161.123C135.529 160.519 135.668 159.778 135.676 158.897V141.289Z" fill="#FF003D"/>
<path d="M158.707 148.173C158.593 147.105 158.112 146.274 157.264 145.679C156.424 145.084 155.332 144.786 153.987 144.786C153.041 144.786 152.23 144.929 151.554 145.214C150.877 145.499 150.359 145.887 150.001 146.376C149.642 146.865 149.459 147.423 149.45 148.051C149.45 148.573 149.569 149.025 149.805 149.408C150.05 149.791 150.38 150.118 150.796 150.387C151.211 150.647 151.672 150.868 152.177 151.047C152.683 151.226 153.192 151.377 153.706 151.499L156.054 152.086C156.999 152.306 157.908 152.604 158.78 152.979C159.661 153.354 160.447 153.827 161.14 154.397C161.841 154.968 162.396 155.657 162.803 156.464C163.211 157.271 163.415 158.217 163.415 159.301C163.415 160.768 163.04 162.06 162.29 163.177C161.54 164.286 160.456 165.154 159.037 165.782C157.627 166.401 155.919 166.711 153.914 166.711C151.965 166.711 150.274 166.409 148.839 165.806C147.412 165.203 146.296 164.322 145.489 163.165C144.69 162.007 144.258 160.597 144.192 158.934H148.656C148.721 159.806 148.99 160.532 149.463 161.11C149.935 161.689 150.551 162.121 151.309 162.407C152.075 162.692 152.931 162.835 153.877 162.835C154.863 162.835 155.727 162.688 156.469 162.394C157.219 162.093 157.806 161.677 158.23 161.147C158.654 160.609 158.87 159.981 158.878 159.264C158.87 158.612 158.678 158.074 158.303 157.65C157.929 157.218 157.403 156.859 156.726 156.574C156.058 156.28 155.275 156.02 154.378 155.791L151.529 155.058C149.467 154.528 147.836 153.725 146.638 152.649C145.448 151.565 144.853 150.126 144.853 148.332C144.853 146.857 145.252 145.565 146.051 144.456C146.858 143.347 147.955 142.487 149.34 141.876C150.726 141.256 152.295 140.947 154.048 140.947C155.825 140.947 157.382 141.256 158.719 141.876C160.064 142.487 161.12 143.339 161.886 144.432C162.653 145.516 163.048 146.763 163.072 148.173H158.707Z" fill="#FF003D"/>
</svg>
