<svg width="260" height="260" viewBox="0 0 260 260" fill="none" xmlns="http://www.w3.org/2000/svg">
<path d="M40 236.28H194.689C198.003 236.28 200.689 233.594 200.689 230.28V11C200.689 7.68629 198.003 5 194.689 5H46C42.6863 5 40 7.68629 40 11V205.384C40 208.698 42.6863 211.384 46 211.384H172.526C175.839 211.384 178.526 214.07 178.526 217.384V230.28C178.526 233.594 175.839 236.28 172.526 236.28H40Z" stroke="#2F2F2F" stroke-width="8"/>
<g clip-path="url(#clip0_805_1317)">
<path d="M87.4824 83.6226L93.4914 151.013L120.457 158.501L147.493 151.004L153.511 83.6226H87.4871H87.4824ZM142.34 146.717L120.607 152.74V152.773L120.551 152.754L120.495 152.773V152.74L98.761 146.717L93.6225 89.1355H147.479L142.34 146.717ZM130.641 122.391L129.686 133.108L120.457 135.598L111.252 133.117L110.662 126.519H102.365L103.52 139.501L120.49 144.195L137.408 139.501L139.678 114.126H109.553L108.799 105.66H140.426L141.166 97.3956H99.7625L101.995 122.391H130.641Z" fill="#2F2F2F"/>
</g>
<path d="M58.7197 255H213.409C216.722 255 219.409 252.314 219.409 249V29.7197C219.409 26.406 216.722 23.7197 213.409 23.7197H64.7197C61.406 23.7197 58.7197 26.406 58.7197 29.7197V224.104C58.7197 227.417 61.406 230.104 64.7197 230.104H191.245C194.559 230.104 197.245 232.79 197.245 236.104V249C197.245 252.314 194.559 255 191.245 255H58.7197Z" stroke="#FF003D" stroke-width="8"/>
<g clip-path="url(#clip1_805_1317)">
<path d="M106.201 102.342L112.21 169.733L139.176 177.221L166.212 169.724L172.23 102.342H106.206H106.201ZM161.059 165.437L139.326 171.46V171.493L139.269 171.474L139.213 171.493V171.46L117.48 165.437L112.341 107.855H166.198L161.059 165.437ZM149.359 141.111L148.405 151.828L139.176 154.317L129.97 151.837L129.381 145.238H121.083L122.239 158.22L139.209 162.914L156.127 158.22L158.396 132.846H128.272L127.518 124.38H159.145L159.884 116.115H118.481L120.714 141.111H149.359Z" fill="#FF003D"/>
</g>
<defs>
<clipPath id="clip0_805_1317">
<rect width="74.8787" height="74.8787" fill="white" transform="translate(83.0557 83.6226)"/>
</clipPath>
<clipPath id="clip1_805_1317">
<rect width="74.8787" height="74.8787" fill="white" transform="translate(101.774 102.342)"/>
</clipPath>
</defs>
</svg>
