<svg width="260" height="260" viewBox="0 0 260 260" fill="none" xmlns="http://www.w3.org/2000/svg">
<path d="M35.5486 179.747L32.6381 178.067C36.565 175.773 38.5169 173.779 38.4938 172.085C38.4707 170.365 36.5074 168.378 32.6036 166.124L16.8037 157.002C14.0549 155.415 11.9414 153.888 10.463 152.421C9.00775 150.941 8.19928 149.487 8.03758 148.06C7.8528 146.62 8.34941 145.186 9.52749 143.759C10.7055 142.332 12.5765 140.878 15.1405 139.398L18.8825 141.558C16.3648 142.985 14.771 144.399 14.1011 145.799C13.4312 147.173 13.6507 148.593 14.7594 150.06C15.8913 151.514 17.8894 153.068 20.7537 154.721L37.489 164.384C39.6141 165.61 41.2196 166.804 42.3051 167.964C43.4139 169.111 43.9452 170.285 43.899 171.485C43.8297 172.672 43.1251 173.946 41.7854 175.306C40.4225 176.653 38.3436 178.133 35.5486 179.747ZM103.841 190.609C101.277 192.09 98.7595 193.17 96.2878 193.85C93.8163 194.53 91.3331 194.817 88.8385 194.71C86.3667 194.617 83.8491 194.15 81.2849 193.31C78.7441 192.456 76.0993 191.236 73.3505 189.649L57.5507 180.527C53.6469 178.273 50.2167 177.146 47.2599 177.146C44.3033 177.12 40.8385 178.24 36.8653 180.507L33.9549 178.827C36.773 177.226 39.36 176.039 41.7161 175.266C44.0491 174.479 46.2436 174.066 48.2994 174.026C50.3552 173.986 52.3763 174.286 54.3629 174.926C56.3726 175.553 58.44 176.48 60.5651 177.707L77.3005 187.369C80.1647 189.022 82.8557 190.176 85.3736 190.829C87.9144 191.47 90.3746 191.596 92.7537 191.209C95.1561 190.809 97.6045 189.889 100.099 188.449L103.841 190.609ZM36.8653 180.507L32.6381 178.067L40.3648 173.606L44.5919 176.046L36.8653 180.507Z" fill="#2F2F2F"/>
<path d="M199.238 83.6324L202.148 85.3128C198.221 87.6068 196.27 89.6005 196.292 91.2942C196.316 93.0146 198.279 95.0017 202.183 97.2555L217.983 106.378C220.732 107.965 222.845 109.492 224.323 110.959C225.779 112.439 226.587 113.893 226.749 115.319C226.933 116.76 226.437 118.194 225.259 119.62C224.081 121.047 222.21 122.501 219.646 123.982L215.904 121.821C218.421 120.394 220.015 118.98 220.685 117.58C221.355 116.206 221.136 114.786 220.027 113.319C218.895 111.865 216.897 110.312 214.033 108.658L197.297 98.996C195.172 97.769 193.567 96.5754 192.481 95.4152C191.372 94.2682 190.841 93.0946 190.887 91.8943C190.957 90.7073 191.661 89.4338 193.001 88.0735C194.364 86.7265 196.443 85.2461 199.238 83.6324ZM130.945 72.7701C133.509 71.2898 136.027 70.2095 138.498 69.5294C140.97 68.8492 143.453 68.5625 145.948 68.6691C148.419 68.7626 150.937 69.2293 153.501 70.0695C156.042 70.9229 158.687 72.1432 161.436 73.7303L177.236 82.8523C181.14 85.1062 184.57 86.2331 187.526 86.2332C190.483 86.2598 193.948 85.1395 197.921 82.8723L200.832 84.5527C198.013 86.1531 195.426 87.34 193.07 88.1135C190.737 88.9003 188.543 89.3138 186.487 89.3538C184.431 89.3938 182.41 89.0938 180.423 88.4536C178.414 87.8267 176.346 86.8999 174.221 85.673L157.486 76.0108C154.622 74.3571 151.931 73.2035 149.413 72.55C146.872 71.9099 144.412 71.7832 142.033 72.1699C139.63 72.57 137.182 73.4903 134.687 74.9306L130.945 72.7701ZM197.921 82.8723L202.148 85.3128L194.422 89.7738L190.194 87.3332L197.921 82.8723Z" fill="#2F2F2F"/>
<path d="M55.7288 115.893L88.5777 96.9273C91.6451 98.6983 91.6453 101.569 88.5778 103.34L66.8369 115.893C63.7695 117.664 58.7961 117.664 55.7288 115.893Z" fill="#2F2F2F"/>
<path d="M113.29 150.89L112.783 148.25L101.005 149.005L102.314 142.205L97.7409 141.912L96.1147 150.362C96.0765 150.56 96.116 150.76 96.2301 150.948C96.3443 151.136 96.5302 151.307 96.7741 151.448C97.0181 151.589 97.3138 151.696 97.6393 151.762C97.9649 151.828 98.3119 151.851 98.6548 151.829L113.29 150.89ZM103.592 131.018L126.358 151.673L122.477 153.099L99.7102 132.444L103.592 131.018Z" fill="#2F2F2F"/>
<path d="M111.61 131.614C111.351 131.764 111.206 131.966 111.206 132.177C111.206 132.389 111.351 132.591 111.61 132.741C111.869 132.89 112.22 132.974 112.586 132.974C112.952 132.974 113.303 132.89 113.561 132.741L124.294 126.544C124.553 126.395 124.698 126.192 124.698 125.981C124.698 125.77 124.553 125.567 124.294 125.418C124.035 125.268 123.684 125.184 123.318 125.184C122.952 125.184 122.601 125.268 122.343 125.418L111.61 131.614ZM123.318 131.614C123.06 131.764 122.914 131.966 122.914 132.177C122.914 132.389 123.06 132.591 123.318 132.741C123.577 132.89 123.928 132.974 124.294 132.974C124.66 132.974 125.011 132.89 125.27 132.741L135.027 127.108C135.286 126.958 135.431 126.756 135.431 126.544C135.431 126.333 135.286 126.13 135.027 125.981C134.768 125.831 134.417 125.748 134.051 125.748C133.685 125.748 133.334 125.831 133.075 125.981L123.318 131.614ZM127.221 137.247C126.962 137.098 126.817 136.895 126.817 136.684C126.817 136.473 126.962 136.27 127.221 136.121L146.735 124.854C146.994 124.705 147.345 124.621 147.711 124.621C148.077 124.621 148.428 124.705 148.687 124.854C148.946 125.004 149.091 125.206 149.091 125.418C149.091 125.629 148.946 125.831 148.687 125.981L129.173 137.247C128.914 137.397 128.563 137.481 128.197 137.481C127.831 137.481 127.48 137.397 127.221 137.247ZM129.173 141.754C128.914 141.903 128.768 142.106 128.768 142.317C128.768 142.529 128.914 142.731 129.173 142.881C129.431 143.03 129.782 143.114 130.148 143.114C130.514 143.114 130.865 143.03 131.124 142.881L147.711 133.304C147.97 133.155 148.115 132.952 148.115 132.741C148.115 132.53 147.97 132.327 147.711 132.177C147.452 132.028 147.101 131.944 146.735 131.944C146.369 131.944 146.018 132.028 145.76 132.177L129.173 141.754ZM137.954 124.291C137.695 124.142 137.55 123.939 137.55 123.728C137.55 123.516 137.695 123.314 137.954 123.164L144.784 119.221C145.043 119.072 145.394 118.988 145.76 118.988C146.126 118.988 146.477 119.072 146.735 119.221C146.994 119.37 147.14 119.573 147.14 119.784C147.14 119.996 146.994 120.198 146.735 120.348L139.905 124.291C139.647 124.44 139.296 124.524 138.93 124.524C138.564 124.524 138.213 124.44 137.954 124.291ZM127.221 122.601C126.962 122.75 126.817 122.953 126.817 123.164C126.817 123.376 126.962 123.578 127.221 123.728C127.48 123.877 127.831 123.961 128.197 123.961C128.563 123.961 128.914 123.877 129.173 123.728L142.833 115.841C143.091 115.692 143.237 115.489 143.237 115.278C143.237 115.066 143.091 114.864 142.833 114.714C142.574 114.565 142.223 114.481 141.857 114.481C141.491 114.481 141.14 114.565 140.881 114.714L127.221 122.601Z" fill="#2F2F2F"/>
<path d="M244.777 125.248C249.629 122.446 249.452 117.802 244.381 114.874L177.975 153.213C178.765 153.795 179.824 154.281 177.462 155.644L156.576 167.703C155.593 168.271 154.094 168.038 153.196 167.519L88.2671 205.006C93.3382 207.934 101.383 208.036 106.235 205.235L244.777 125.248Z" fill="#2F2F2F"/>
<path d="M39.2457 164.099L36.3351 162.419C40.2621 160.125 42.214 158.131 42.1908 156.438C42.1677 154.717 40.2044 152.73 36.3006 150.476L20.5007 141.354C17.7519 139.767 15.6384 138.24 14.16 136.773C12.7048 135.293 11.8963 133.839 11.7346 132.412C11.5498 130.972 12.0464 129.538 13.2245 128.111C14.4026 126.684 16.2735 125.231 18.8375 123.751L22.5796 125.911C20.0618 127.338 18.468 128.752 17.7981 130.152C17.1283 131.526 17.3477 132.946 18.4565 134.413C19.5883 135.867 21.5864 137.42 24.4507 139.074L41.186 148.736C43.3111 149.963 44.9166 151.157 46.0021 152.317C47.1109 153.464 47.6422 154.637 47.596 155.838C47.5267 157.025 46.8222 158.298 45.4824 159.658C44.1196 161.005 42.0407 162.486 39.2457 164.099ZM107.538 174.962C104.974 176.442 102.457 177.522 99.9848 178.203C97.5133 178.883 95.0301 179.169 92.5355 179.063C90.0638 178.969 87.5461 178.503 84.9819 177.662C82.4411 176.809 79.7963 175.589 77.0475 174.002L61.2477 164.88C57.3439 162.626 53.9137 161.499 50.957 161.499C48.0003 161.472 44.5355 162.593 40.5623 164.86L37.6519 163.179C40.47 161.579 43.057 160.392 45.4131 159.618C47.7462 158.832 49.9406 158.418 51.9964 158.378C54.0523 158.338 56.0734 158.638 58.0599 159.278C60.0696 159.905 62.137 160.832 64.2621 162.059L80.9975 171.721C83.8618 173.375 86.5527 174.528 89.0706 175.182C91.6115 175.822 94.0716 175.949 96.4507 175.562C98.8531 175.162 101.302 174.242 103.796 172.801L107.538 174.962ZM40.5623 164.86L36.3351 162.419L44.0618 157.958L48.289 160.399L40.5623 164.86Z" fill="#FF003D"/>
<path d="M202.935 67.985L205.845 69.6654C201.918 71.9593 199.967 73.9531 199.989 75.6467C200.013 77.3671 201.976 79.3542 205.88 81.6081L221.68 90.7301C224.429 92.3171 226.542 93.8441 228.02 95.3111C229.476 96.7915 230.284 98.2451 230.446 99.672C230.631 101.112 230.134 102.546 228.956 103.973C227.778 105.4 225.907 106.854 223.343 108.334L219.601 106.174C222.118 104.747 223.712 103.333 224.382 101.933C225.052 100.559 224.833 99.1387 223.724 97.6716C222.592 96.2179 220.594 94.6644 217.73 93.0107L200.994 83.3485C198.869 82.1215 197.264 80.9279 196.178 79.7677C195.069 78.6208 194.538 77.4471 194.584 76.2468C194.654 75.0599 195.358 73.7863 196.698 72.426C198.061 71.0791 200.14 69.5987 202.935 67.985ZM134.642 57.1226C137.206 55.6423 139.724 54.562 142.195 53.8819C144.667 53.2018 147.15 52.915 149.645 53.0217C152.116 53.1151 154.634 53.5818 157.198 54.422C159.739 55.2755 162.384 56.4958 165.133 58.0828L180.933 67.2049C184.837 69.4587 188.267 70.5856 191.223 70.5857C194.18 70.6123 197.645 69.4921 201.618 67.2248L204.529 68.9052C201.711 70.5056 199.123 71.6925 196.767 72.466C194.434 73.2528 192.24 73.6663 190.184 73.7063C188.128 73.7463 186.107 73.4463 184.12 72.8061C182.111 72.1793 180.043 71.2525 177.918 70.0255L161.183 60.3634C158.319 58.7097 155.628 57.556 153.11 56.9025C150.569 56.2624 148.109 56.1357 145.73 56.5224C143.327 56.9225 140.879 57.8428 138.384 59.2831L134.642 57.1226ZM201.618 67.2248L205.845 69.6654L198.119 74.1263L193.891 71.6858L201.618 67.2248Z" fill="#FF003D"/>
<path d="M59.4258 100.245L92.2748 81.2798C95.3421 83.0508 95.3423 85.922 92.2748 87.693L70.5339 100.245C67.4665 102.016 62.4932 102.016 59.4258 100.245Z" fill="#FF003D"/>
<path d="M116.987 135.242L116.48 132.602L104.702 133.358L106.011 126.558L101.438 126.265L99.8117 134.715C99.7735 134.913 99.813 135.113 99.9271 135.301C100.041 135.489 100.227 135.66 100.471 135.8C100.715 135.941 101.011 136.049 101.336 136.115C101.662 136.18 102.009 136.203 102.352 136.181L116.987 135.242ZM107.289 115.37L130.055 136.025L126.174 137.452L103.407 116.796L107.289 115.37Z" fill="#FF003D"/>
<path d="M115.307 115.967C115.048 116.116 114.903 116.319 114.903 116.53C114.903 116.741 115.048 116.944 115.307 117.093C115.566 117.243 115.917 117.327 116.283 117.327C116.649 117.327 117 117.243 117.258 117.093L127.991 110.897C128.25 110.747 128.395 110.545 128.395 110.333C128.395 110.122 128.25 109.92 127.991 109.77C127.732 109.621 127.381 109.537 127.015 109.537C126.649 109.537 126.298 109.621 126.04 109.77L115.307 115.967ZM127.015 115.967C126.757 116.116 126.611 116.319 126.611 116.53C126.611 116.741 126.757 116.944 127.015 117.093C127.274 117.243 127.625 117.327 127.991 117.327C128.357 117.327 128.708 117.243 128.967 117.093L138.724 111.46C138.983 111.311 139.128 111.108 139.128 110.897C139.128 110.685 138.983 110.483 138.724 110.333C138.465 110.184 138.114 110.1 137.748 110.1C137.382 110.1 137.031 110.184 136.772 110.333L127.015 115.967ZM130.918 121.6C130.659 121.451 130.514 121.248 130.514 121.037C130.514 120.825 130.659 120.623 130.918 120.473L150.432 109.207C150.691 109.057 151.042 108.973 151.408 108.973C151.774 108.973 152.125 109.057 152.384 109.207C152.643 109.356 152.788 109.559 152.788 109.77C152.788 109.981 152.643 110.184 152.384 110.333L132.87 121.6C132.611 121.749 132.26 121.833 131.894 121.833C131.528 121.833 131.177 121.749 130.918 121.6ZM132.87 126.107C132.611 126.256 132.465 126.459 132.465 126.67C132.465 126.881 132.611 127.084 132.87 127.233C133.128 127.383 133.479 127.467 133.845 127.467C134.211 127.467 134.562 127.383 134.821 127.233L151.408 117.657C151.667 117.507 151.812 117.305 151.812 117.093C151.812 116.882 151.667 116.679 151.408 116.53C151.149 116.381 150.798 116.297 150.432 116.297C150.066 116.297 149.715 116.381 149.457 116.53L132.87 126.107ZM141.651 108.643C141.392 108.494 141.247 108.291 141.247 108.08C141.247 107.869 141.392 107.666 141.651 107.517L148.481 103.574C148.74 103.424 149.091 103.34 149.457 103.34C149.823 103.34 150.174 103.424 150.432 103.574C150.691 103.723 150.837 103.926 150.837 104.137C150.837 104.348 150.691 104.551 150.432 104.7L143.602 108.643C143.344 108.793 142.993 108.877 142.627 108.877C142.261 108.877 141.91 108.793 141.651 108.643ZM130.918 106.953C130.659 107.103 130.514 107.306 130.514 107.517C130.514 107.728 130.659 107.931 130.918 108.08C131.177 108.23 131.528 108.313 131.894 108.313C132.26 108.313 132.611 108.23 132.87 108.08L146.53 100.194C146.788 100.044 146.934 99.8415 146.934 99.6303C146.934 99.419 146.788 99.2163 146.53 99.0669C146.271 98.9175 145.92 98.8336 145.554 98.8336C145.188 98.8336 144.837 98.9175 144.578 99.0669L130.918 106.953Z" fill="#FF003D"/>
<path d="M248.474 109.6C253.326 106.799 253.149 102.154 248.078 99.2263L181.672 137.566C182.462 138.147 183.521 138.633 181.16 139.997L160.273 152.056C159.29 152.624 157.791 152.391 156.893 151.872L91.9642 189.358C97.0352 192.286 105.08 192.389 109.932 189.587L248.474 109.6Z" fill="#FF003D"/>
</svg>
