<svg width="260" height="268" viewBox="0 0 260 268" fill="none" xmlns="http://www.w3.org/2000/svg">
<mask id="mask0_805_1233" style="mask-type:luminance" maskUnits="userSpaceOnUse" x="77" y="81" width="94" height="94">
<path d="M77.1631 89.6119C77.1631 85.1937 80.7448 81.6119 85.1631 81.6119H162.297C166.716 81.6119 170.297 85.1937 170.297 89.6119V166.746C170.297 171.165 166.716 174.746 162.297 174.746H85.1631C80.7448 174.746 77.1631 171.165 77.1631 166.746V89.6119Z" fill="white"/>
</mask>
<g mask="url(#mask0_805_1233)">
<path fill-rule="evenodd" clip-rule="evenodd" d="M109.819 81.6119C100.323 81.6119 92.6858 89.5788 92.6858 99.3385C92.6858 105.272 95.5109 110.542 99.8533 113.759C97.6152 115.436 95.8012 117.613 94.5565 120.118C93.3118 122.622 92.6711 125.383 92.6858 128.179C92.6858 134.116 95.5109 139.382 99.8533 142.599C97.6152 144.276 95.8012 146.454 94.5565 148.958C93.3118 151.462 92.6711 154.223 92.6858 157.02C92.6858 166.779 100.323 174.746 109.819 174.746C119.311 174.746 126.951 166.779 126.951 157.02V142.033C129.952 144.535 133.735 145.907 137.643 145.91C147.138 145.906 154.775 137.939 154.775 128.179C154.791 125.383 154.151 122.621 152.906 120.117C151.661 117.613 149.847 115.435 147.608 113.759C149.846 112.082 151.66 109.904 152.905 107.4C154.149 104.896 154.79 102.135 154.775 99.3385C154.775 89.5788 147.138 81.6119 137.643 81.6119H109.819ZM99.1237 99.3385C99.1237 93.1645 103.943 88.2206 109.819 88.2206H120.51V110.456H109.819C103.943 110.456 99.1237 105.509 99.1237 99.3385ZM137.643 110.453H126.951V88.2167H137.643C143.522 88.2167 148.337 93.1645 148.337 99.3385C148.337 105.509 143.522 110.453 137.643 110.453ZM99.1276 128.179C99.1276 122.009 103.947 117.061 109.823 117.061H120.514V139.297H109.819C103.94 139.297 99.1276 134.349 99.1276 128.179ZM126.951 128.179C126.951 122.009 131.771 117.061 137.646 117.061C143.525 117.061 148.341 122.005 148.341 128.179C148.341 134.349 143.525 139.297 137.646 139.297C131.771 139.297 126.955 134.353 126.955 128.179H126.951ZM99.1276 157.02C99.1276 150.85 103.947 145.906 109.823 145.906H120.514V157.02C120.514 163.194 115.702 168.138 109.823 168.138C103.947 168.138 99.1276 163.194 99.1276 157.02Z" fill="#2F2F2F"/>
</g>
<path d="M197.463 252.358V12C197.463 7.58172 193.881 4 189.463 4H58C53.5817 4 50 7.58172 50 12V244.358C50 248.776 53.5817 252.358 58 252.358H105.491C109.909 252.358 113.491 248.776 113.491 244.358V242.896C113.491 238.477 117.073 234.896 121.491 234.896H133.972" stroke="#2F2F2F" stroke-width="8"/>
<path d="M92.6865 27.2836L150.895 27.2836" stroke="#2F2F2F" stroke-width="8"/>
<mask id="mask1_805_1233" style="mask-type:luminance" maskUnits="userSpaceOnUse" x="88" y="93" width="94" height="94">
<path d="M88.8057 93.2537H181.94V186.388H88.8057V93.2537Z" fill="white"/>
</mask>
<g mask="url(#mask1_805_1233)">
<path fill-rule="evenodd" clip-rule="evenodd" d="M121.461 93.2537C111.965 93.2537 104.328 101.221 104.328 110.98C104.328 116.914 107.153 122.184 111.496 125.401C109.258 127.077 107.444 129.255 106.199 131.759C104.954 134.263 104.314 137.024 104.328 139.821C104.328 145.758 107.153 151.024 111.496 154.241C109.258 155.918 107.444 158.096 106.199 160.6C104.954 163.104 104.314 165.865 104.328 168.661C104.328 178.421 111.965 186.388 121.461 186.388C130.953 186.388 138.594 178.421 138.594 168.661V153.675C141.595 156.177 145.378 157.548 149.285 157.551C158.781 157.547 166.418 149.581 166.418 139.821C166.434 137.024 165.793 134.263 164.548 131.759C163.304 129.254 161.489 127.077 159.25 125.401C161.488 123.724 163.303 121.546 164.547 119.042C165.792 116.538 166.433 113.777 166.418 110.98C166.418 101.221 158.781 93.2537 149.285 93.2537H121.461ZM110.766 110.98C110.766 104.806 115.586 99.8624 121.461 99.8624H132.152V122.098H121.461C115.586 122.098 110.766 117.15 110.766 110.98ZM149.285 122.094H138.594V99.8585H149.285C155.164 99.8585 159.98 104.806 159.98 110.98C159.98 117.15 155.164 122.094 149.285 122.094ZM110.77 139.821C110.77 133.651 115.59 128.703 121.465 128.703H132.156V150.939H121.461C115.582 150.939 110.77 145.991 110.77 139.821ZM138.594 139.821C138.594 133.651 143.414 128.703 149.289 128.703C155.168 128.703 159.984 133.647 159.984 139.821C159.984 145.991 155.168 150.939 149.289 150.939C143.414 150.939 138.598 145.995 138.598 139.821H138.594ZM110.77 168.661C110.77 162.491 115.59 157.547 121.465 157.547H132.156V168.661C132.156 174.836 127.344 179.779 121.465 179.779C115.59 179.779 110.77 174.836 110.77 168.661Z" fill="#FF003D"/>
</g>
<path d="M209.104 264V23.6418C209.104 19.2235 205.523 15.6418 201.104 15.6418H69.6416C65.2233 15.6418 61.6416 19.2235 61.6416 23.6418V256C61.6416 260.418 65.2233 264 69.6416 264H117.132C121.551 264 125.132 260.418 125.132 256V254.537C125.132 250.119 128.714 246.537 133.132 246.537H145.613" stroke="#FF003D" stroke-width="8"/>
<path d="M104.328 38.9254L162.537 38.9254" stroke="#FF003D" stroke-width="8"/>
</svg>
