<svg width="85" height="84" viewBox="0 0 85 84" fill="none" xmlns="http://www.w3.org/2000/svg">
<path d="M2.77008 38.209V35.6579C4.68624 35.6579 6.02415 35.2667 6.78381 34.4844C7.54347 33.6907 7.9233 32.3811 7.9233 30.5557V25.6746C7.9233 23.9398 8.11605 22.4829 8.50155 21.3037C8.89838 20.1132 9.49931 19.1608 10.3043 18.4465C11.1093 17.7322 12.1298 17.2163 13.3656 16.8988C14.6015 16.5813 16.0585 16.4226 17.7365 16.4226V20.4533C16.4213 20.4533 15.3952 20.6461 14.6582 21.0316C13.9212 21.4171 13.4053 22.018 13.1105 22.8344C12.8271 23.6394 12.6853 24.6711 12.6853 25.9297V32.1203C12.6853 32.9934 12.555 33.8041 12.2942 34.5524C12.0334 35.2894 11.5515 35.93 10.8486 36.4742C10.1456 37.0185 9.14215 37.4436 7.83826 37.7498C6.53437 38.0559 4.84497 38.209 2.77008 38.209ZM17.7365 59.8083C16.0585 59.8083 14.6015 59.6495 13.3656 59.3321C12.1298 59.0146 11.1093 58.4987 10.3043 57.7844C9.49931 57.0701 8.89838 56.1177 8.50155 54.9272C8.11605 53.748 7.9233 52.291 7.9233 50.5563V45.6582C7.9233 43.8441 7.54347 42.5402 6.78381 41.7465C6.02415 40.9528 4.68624 40.556 2.77008 40.556V38.0219C4.84497 38.0219 6.53437 38.175 7.83826 38.4811C9.14215 38.7759 10.1456 39.2011 10.8486 39.7566C11.5515 40.3009 12.0334 40.9471 12.2942 41.6955C12.555 42.4324 12.6853 43.2375 12.6853 44.1105V50.3012C12.6853 51.5484 12.8271 52.5745 13.1105 53.3795C13.4053 54.1958 13.9212 54.7968 14.6582 55.1823C15.3952 55.5791 16.4213 55.7775 17.7365 55.7775V59.8083ZM2.77008 40.556V35.6579H7.48111V40.556H2.77008Z" fill="#FF003D"/>
<path d="M82.7701 38.209V35.6579C80.8539 35.6579 79.516 35.2667 78.7564 34.4844C77.9967 33.6907 77.6169 32.3811 77.6169 30.5557V25.6746C77.6169 23.9398 77.4241 22.4829 77.0386 21.3037C76.6418 20.1132 76.0409 19.1608 75.2358 18.4465C74.4308 17.7322 73.4104 17.2163 72.1745 16.8988C70.9387 16.5813 69.4817 16.4226 67.8036 16.4226V20.4533C69.1189 20.4533 70.145 20.6461 70.882 21.0316C71.619 21.4171 72.1348 22.018 72.4296 22.8344C72.7131 23.6394 72.8548 24.6711 72.8548 25.9297V32.1203C72.8548 32.9934 72.9852 33.8041 73.246 34.5524C73.5068 35.2894 73.9886 35.93 74.6916 36.4742C75.3946 37.0185 76.398 37.4436 77.7019 37.7498C79.0058 38.0559 80.6952 38.209 82.7701 38.209ZM67.8036 59.8083C69.4817 59.8083 70.9387 59.6495 72.1745 59.3321C73.4104 59.0146 74.4308 58.4987 75.2358 57.7844C76.0409 57.0701 76.6418 56.1177 77.0386 54.9272C77.4241 53.748 77.6169 52.291 77.6169 50.5563V45.6582C77.6169 43.8441 77.9967 42.5402 78.7564 41.7465C79.516 40.9528 80.8539 40.556 82.7701 40.556V38.0219C80.6952 38.0219 79.0058 38.175 77.7019 38.4811C76.398 38.7759 75.3946 39.2011 74.6916 39.7566C73.9886 40.3009 73.5068 40.9471 73.246 41.6955C72.9852 42.4324 72.8548 43.2375 72.8548 44.1105V50.3012C72.8548 51.5484 72.7131 52.5745 72.4296 53.3795C72.1348 54.1958 71.619 54.7968 70.882 55.1823C70.145 55.5791 69.1189 55.7775 67.8036 55.7775V59.8083ZM82.7701 40.556V35.6579H78.0591V40.556H82.7701Z" fill="#FF003D"/>
<path d="M26.8383 16.4226L58.6969 16.1972C58.6969 17.6804 58.6969 21.0316 54.6537 21.0316H30.6381C26.8383 21.0316 26.8383 17.9057 26.8383 16.4226Z" fill="#FF003D"/>
<path d="M31.065 44.7683L32.0479 43.5401L28.8838 41.009L32.0479 38.4779L31.065 37.2497L27.1335 40.3949C27.0414 40.4685 26.967 40.562 26.9159 40.6683C26.8648 40.7746 26.8383 40.891 26.8383 41.009C26.8383 41.1269 26.8648 41.2434 26.9159 41.3497C26.967 41.456 27.0414 41.5494 27.1335 41.6231L31.065 44.7683ZM37.0416 34.1022L33.8964 48.2555L32.3608 47.9142L35.506 33.7609L37.0416 34.1022Z" fill="#FF003D"/>
<path d="M38.7303 36.2904C38.6051 36.2904 38.4851 36.3401 38.3967 36.4286C38.3082 36.5171 38.2585 36.6371 38.2585 36.7622C38.2585 36.8873 38.3082 37.0073 38.3967 37.0958C38.4851 37.1843 38.6051 37.234 38.7303 37.234H43.9198C44.0449 37.234 44.1649 37.1843 44.2534 37.0958C44.3419 37.0073 44.3916 36.8873 44.3916 36.7622C44.3916 36.6371 44.3419 36.5171 44.2534 36.4286C44.1649 36.3401 44.0449 36.2904 43.9198 36.2904H38.7303ZM41.5609 39.1211C41.4358 39.1211 41.3158 39.1708 41.2273 39.2593C41.1388 39.3477 41.0891 39.4677 41.0891 39.5929C41.0891 39.718 41.1388 39.838 41.2273 39.9265C41.3158 40.0149 41.4358 40.0646 41.5609 40.0646H46.2787C46.4038 40.0646 46.5238 40.0149 46.6123 39.9265C46.7008 39.838 46.7505 39.718 46.7505 39.5929C46.7505 39.4677 46.7008 39.3477 46.6123 39.2593C46.5238 39.1708 46.4038 39.1211 46.2787 39.1211H41.5609ZM40.1456 42.4235C40.1456 42.2984 40.1953 42.1784 40.2838 42.0899C40.3722 42.0015 40.4922 41.9517 40.6174 41.9517H50.0529C50.178 41.9517 50.298 42.0015 50.3865 42.0899C50.475 42.1784 50.5247 42.2984 50.5247 42.4235C50.5247 42.5487 50.475 42.6686 50.3865 42.7571C50.298 42.8456 50.178 42.8953 50.0529 42.8953H40.6174C40.4922 42.8953 40.3722 42.8456 40.2838 42.7571C40.1953 42.6686 40.1456 42.5487 40.1456 42.4235ZM38.7303 44.7824C38.6051 44.7824 38.4851 44.8321 38.3967 44.9206C38.3082 45.0091 38.2585 45.1291 38.2585 45.2542C38.2585 45.3793 38.3082 45.4993 38.3967 45.5878C38.4851 45.6763 38.6051 45.726 38.7303 45.726H46.7505C46.8756 45.726 46.9956 45.6763 47.0841 45.5878C47.1725 45.4993 47.2223 45.3793 47.2223 45.2542C47.2223 45.1291 47.1725 45.0091 47.0841 44.9206C46.9956 44.8321 46.8756 44.7824 46.7505 44.7824H38.7303ZM48.1658 39.5929C48.1658 39.4677 48.2155 39.3477 48.304 39.2593C48.3925 39.1708 48.5125 39.1211 48.6376 39.1211H51.94C52.0651 39.1211 52.1851 39.1708 52.2736 39.2593C52.3621 39.3477 52.4118 39.4677 52.4118 39.5929C52.4118 39.718 52.3621 39.838 52.2736 39.9265C52.1851 40.0149 52.0651 40.0646 51.94 40.0646H48.6376C48.5125 40.0646 48.3925 40.0149 48.304 39.9265C48.2155 39.838 48.1658 39.718 48.1658 39.5929ZM46.2787 36.2904C46.1536 36.2904 46.0336 36.3401 45.9451 36.4286C45.8566 36.5171 45.8069 36.6371 45.8069 36.7622C45.8069 36.8873 45.8566 37.0073 45.9451 37.0958C46.0336 37.1843 46.1536 37.234 46.2787 37.234H52.8836C53.0087 37.234 53.1287 37.1843 53.2172 37.0958C53.3057 37.0073 53.3554 36.8873 53.3554 36.7622C53.3554 36.6371 53.3057 36.5171 53.2172 36.4286C53.1287 36.3401 53.0087 36.2904 52.8836 36.2904H46.2787Z" fill="#FF003D"/>
<path d="M76.0443 67.8028C78.3906 67.8028 80.7462 64.5757 80.7462 62.1237H48.6376C48.5851 62.5582 48.6376 63.0179 47.4956 63.0179H37.3964C36.921 63.0179 36.6563 62.5582 36.6563 62.1237H5.26184C5.26184 64.5757 6.71014 67.8028 9.05637 67.8028H76.0443Z" fill="#FF003D"/>
</svg>
