<svg width="17" height="17" viewBox="0 0 17 17" fill="none" xmlns="http://www.w3.org/2000/svg">
<path d="M14.0833 15.1667H4.75C4.21957 15.1667 3.71086 14.9559 3.33579 14.5809C2.96071 14.2058 2.75 13.6971 2.75 13.1667V3.83333C2.75 3.3029 2.96071 2.79419 3.33579 2.41911C3.71086 2.04404 4.21957 1.83333 4.75 1.83333H14.0833C14.2601 1.83333 14.4297 1.90357 14.5547 2.02859C14.6798 2.15361 14.75 2.32318 14.75 2.49999V14.5C14.75 14.6768 14.6798 14.8464 14.5547 14.9714C14.4297 15.0964 14.2601 15.1667 14.0833 15.1667ZM13.4167 13.8333V12.5H4.75C4.57319 12.5 4.40362 12.5702 4.2786 12.6953C4.15357 12.8203 4.08333 12.9899 4.08333 13.1667C4.08333 13.3435 4.15357 13.513 4.2786 13.6381C4.40362 13.7631 4.57319 13.8333 4.75 13.8333H13.4167ZM4.08333 11.28C4.292 11.2067 4.51667 11.1667 4.75 11.1667H13.4167V3.16666H4.75C4.57319 3.16666 4.40362 3.2369 4.2786 3.36192C4.15357 3.48695 4.08333 3.65652 4.08333 3.83333V11.28ZM8.75 7.16666C8.39638 7.16666 8.05724 7.02619 7.80719 6.77614C7.55714 6.52609 7.41667 6.18695 7.41667 5.83333C7.41667 5.47971 7.55714 5.14057 7.80719 4.89052C8.05724 4.64047 8.39638 4.49999 8.75 4.49999C9.10362 4.49999 9.44276 4.64047 9.69281 4.89052C9.94286 5.14057 10.0833 5.47971 10.0833 5.83333C10.0833 6.18695 9.94286 6.52609 9.69281 6.77614C9.44276 7.02619 9.10362 7.16666 8.75 7.16666ZM6.75 9.83333C6.75 9.3029 6.96071 8.79419 7.33579 8.41911C7.71086 8.04404 8.21957 7.83333 8.75 7.83333C9.28043 7.83333 9.78914 8.04404 10.1642 8.41911C10.5393 8.79419 10.75 9.3029 10.75 9.83333H6.75Z" fill="black"/>
</svg>
