<svg width="17" height="17" viewBox="0 0 17 17" fill="none" xmlns="http://www.w3.org/2000/svg">
<g clip-path="url(#clip0_921_510)">
<path d="M14.0833 3.16667H3.41659C2.68325 3.16667 2.08325 3.76667 2.08325 4.5V12.5C2.08325 13.2333 2.68325 13.8333 3.41659 13.8333H14.0833C14.8166 13.8333 15.4166 13.2333 15.4166 12.5V4.5C15.4166 3.76667 14.8166 3.16667 14.0833 3.16667ZM14.0833 12.5H3.41659V4.5H14.0833V12.5ZM3.41659 0.5H14.0833V1.83333H3.41659V0.5ZM3.41659 15.1667H14.0833V16.5H3.41659V15.1667ZM8.74992 8.5C9.19195 8.5 9.61587 8.32441 9.92843 8.01184C10.241 7.69928 10.4166 7.27536 10.4166 6.83333C10.4166 6.39131 10.241 5.96738 9.92843 5.65482C9.61587 5.34226 9.19195 5.16667 8.74992 5.16667C8.30789 5.16667 7.88397 5.34226 7.57141 5.65482C7.25885 5.96738 7.08325 6.39131 7.08325 6.83333C7.08325 7.27536 7.25885 7.69928 7.57141 8.01184C7.88397 8.32441 8.30789 8.5 8.74992 8.5ZM8.74992 6.16667C9.11659 6.16667 9.41659 6.46667 9.41659 6.83333C9.41659 7.2 9.11659 7.5 8.74992 7.5C8.38325 7.5 8.08325 7.2 8.08325 6.83333C8.08325 6.46667 8.38325 6.16667 8.74992 6.16667ZM12.0833 11.16C12.0833 9.76667 9.87659 9.16667 8.74992 9.16667C7.62325 9.16667 5.41659 9.76667 5.41659 11.16V11.8333H12.0833V11.16ZM6.62325 10.8333C7.02992 10.4867 7.97659 10.1667 8.74992 10.1667C9.52992 10.1667 10.4766 10.4867 10.8833 10.8333H6.62325Z" fill="black"/>
</g>
<defs>
<clipPath id="clip0_921_510">
<rect width="16" height="16" fill="white" transform="translate(0.75 0.5)"/>
</clipPath>
</defs>
</svg>
