<svg width="33" height="33" viewBox="0 0 33 33" fill="none" xmlns="http://www.w3.org/2000/svg">
<path d="M7.0721 28.7478L14.8668 20.9531C15.4338 21.1051 16.0351 21.0657 16.5775 20.8411C17.1199 20.6165 17.573 20.2192 17.8665 19.7108C18.1601 19.2024 18.2777 18.6114 18.201 18.0293C18.1244 17.4473 17.8579 16.9068 17.4428 16.4917C17.0277 16.0766 16.4872 15.8101 15.9052 15.7335C15.3232 15.6569 14.7321 15.7745 14.2237 16.068C13.7154 16.3615 13.3181 16.8146 13.0934 17.357C12.8688 17.8994 12.8295 18.5007 12.9814 19.0678L5.18677 26.8624L3.77344 25.4491C7.54277 21.0491 8.95744 16.1771 10.8428 8.00642L19.3281 7.06375L26.8708 14.6064L25.9281 23.0918C17.7574 24.9771 12.8854 26.3917 8.48677 30.1624L7.0721 28.7491V28.7478ZM22.6281 2.82109L31.0908 11.2824C31.178 11.3695 31.2393 11.479 31.2681 11.5988C31.2968 11.7186 31.2917 11.8441 31.2535 11.9612C31.2152 12.0784 31.1452 12.1826 31.0513 12.2624C30.9574 12.3421 30.8432 12.3943 30.7214 12.4131L28.7561 12.7198L21.2148 5.17842L21.4974 3.19842C21.515 3.07598 21.5663 2.96084 21.6456 2.86589C21.7248 2.77094 21.829 2.69991 21.9463 2.66075C22.0636 2.62159 22.1895 2.61585 22.31 2.64417C22.4304 2.67248 22.5405 2.73374 22.6281 2.82109Z" fill="#636363"/>
</svg>
