<svg width="33" height="33" viewBox="0 0 33 33" fill="none" xmlns="http://www.w3.org/2000/svg">
<g clip-path="url(#clip0_1000_654)">
<path d="M26.1 13.6989C26.1 11.1528 25.0886 8.71105 23.2882 6.9107C21.4879 5.11035 19.0461 4.09893 16.5 4.09893C13.9539 4.09893 11.5121 5.11035 9.71178 6.9107C7.91143 8.71105 6.9 11.1528 6.9 13.6989V31.2989H3.7C2.85131 31.2989 2.03737 30.9618 1.43726 30.3617C0.837142 29.7616 0.5 28.9476 0.5 28.0989V21.6989C0.5 20.8502 0.837142 20.0363 1.43726 19.4362C2.03737 18.8361 2.85131 18.4989 3.7 18.4989V13.6989C3.7 10.3042 5.04857 7.04842 7.44903 4.64796C9.8495 2.24749 13.1052 0.898926 16.5 0.898926C19.8948 0.898926 23.1505 2.24749 25.551 4.64796C27.9514 7.04842 29.3 10.3042 29.3 13.6989V18.4989C30.1487 18.4989 30.9626 18.8361 31.5627 19.4362C32.1629 20.0363 32.5 20.8502 32.5 21.6989V28.0989C32.5 28.9476 32.1629 29.7616 31.5627 30.3617C30.9626 30.9618 30.1487 31.2989 29.3 31.2989H26.1V13.6989ZM19.7 16.8989H24.5V32.8989H19.7V16.8989ZM8.5 16.8989H13.3V32.8989H8.5V16.8989Z" fill="#636363"/>
</g>
<defs>
<clipPath id="clip0_1000_654">
<rect width="32" height="32" fill="white" transform="translate(0.5 0.898926)"/>
</clipPath>
</defs>
</svg>
