<svg width="33" height="33" viewBox="0 0 33 33" fill="none" xmlns="http://www.w3.org/2000/svg">
<path d="M4.50008 4.39893H28.5001C28.8537 4.39893 29.1928 4.5394 29.4429 4.78945C29.6929 5.0395 29.8334 5.37864 29.8334 5.73226V27.0656C29.8334 27.4192 29.6929 27.7584 29.4429 28.0084C29.1928 28.2585 28.8537 28.3989 28.5001 28.3989H4.50008C4.14646 28.3989 3.80732 28.2585 3.55727 28.0084C3.30722 27.7584 3.16675 27.4192 3.16675 27.0656V5.73226C3.16675 5.37864 3.30722 5.0395 3.55727 4.78945C3.80732 4.5394 4.14646 4.39893 4.50008 4.39893V4.39893ZM22.4521 21.1136L27.1667 16.3989L22.4521 11.6843L20.5667 13.5723L23.3961 16.3989L20.5667 19.2269L22.4521 21.1136V21.1136ZM9.60408 16.3989L12.4334 13.5709L10.5481 11.6843L5.83341 16.3989L10.5481 21.1136L12.4334 19.2256L9.60408 16.3989ZM15.4921 23.0656L20.3454 9.73226H17.5081L12.6547 23.0656H15.4921Z" fill="#636363"/>
</svg>
