<svg width="32" height="33" viewBox="0 0 32 33" fill="none" xmlns="http://www.w3.org/2000/svg">
<path d="M26.9959 4.94428C26.9039 4.92028 24.6732 4.36694 21.5932 4.36694C17.8039 4.36694 12.4359 5.22028 8.37989 9.28294C1.25989 16.4149 3.92655 27.4296 4.04389 27.8963C4.10288 28.1304 4.22434 28.3441 4.39529 28.5146C4.56624 28.6851 4.78028 28.8059 5.01455 28.8643C5.10655 28.8883 7.31589 29.4323 10.3719 29.4323C14.1706 29.4323 19.5506 28.5776 23.6146 24.5149C30.7279 17.4016 28.0826 6.38161 27.9666 5.91628C27.9075 5.68175 27.7861 5.46756 27.6152 5.29643C27.4444 5.12531 27.2303 5.00362 26.9959 4.94428ZM22.2799 17.2936L20.3946 19.1789L18.0039 16.7896L15.8892 18.9043L18.2786 21.2949L16.3932 23.1803L14.0039 20.7896L11.6132 23.1803L9.72789 21.2949L12.1186 18.9043L9.72789 16.5123L11.6132 14.6269L14.0039 17.0189L16.1186 14.9043L13.7266 12.5136L15.6119 10.6283L18.0039 13.0189L20.3946 10.6283L22.2799 12.5136L19.8892 14.9043L22.2799 17.2936Z" fill="#636363"/>
</svg>
