<svg width="33" height="33" viewBox="0 0 33 33" fill="none" xmlns="http://www.w3.org/2000/svg">
<path d="M30.3794 22.4061L27.9375 9.53857C27.3838 7.0167 26.5 5.10107 22.4375 5.10107H9.56252C5.43752 5.10107 4.61627 7.0167 4.06252 9.53857L1.62502 22.4061C1.18752 24.5386 1.9019 26.2342 3.71065 26.8942C5.5194 27.5542 6.93752 26.5386 7.94877 24.5573L8.91252 22.6498C8.99599 22.4848 9.12359 22.3461 9.28116 22.2492C9.43872 22.1523 9.62006 22.1011 9.80502 22.1011H22.1975C22.3825 22.1011 22.5638 22.1523 22.7214 22.2492C22.879 22.3461 23.0066 22.4848 23.09 22.6498L24.0538 24.5573C25.0625 26.5386 26.4838 27.5573 28.2919 26.8942C30.1 26.2311 30.8125 24.5386 30.3794 22.4061ZM14.5 15.1011H11.5V18.1011H9.50002V15.1011H6.50002V13.1011H9.50002V10.1011H11.5V13.1011H14.5V15.1011ZM18.75 15.3511C18.5028 15.3511 18.2611 15.2778 18.0556 15.1404C17.85 15.0031 17.6898 14.8078 17.5952 14.5794C17.5006 14.351 17.4758 14.0997 17.524 13.8572C17.5723 13.6147 17.6913 13.392 17.8661 13.2172C18.041 13.0424 18.2637 12.9233 18.5062 12.8751C18.7486 12.8269 19 12.8516 19.2284 12.9462C19.4568 13.0408 19.652 13.201 19.7894 13.4066C19.9267 13.6122 20 13.8538 20 14.1011C20 14.4326 19.8683 14.7505 19.6339 14.985C19.3995 15.2194 19.0815 15.3511 18.75 15.3511ZM21.5 18.1011C21.2528 18.1011 21.0111 18.0278 20.8056 17.8904C20.6 17.7531 20.4398 17.5578 20.3452 17.3294C20.2506 17.101 20.2258 16.8497 20.274 16.6072C20.3223 16.3647 20.4413 16.142 20.6161 15.9672C20.791 15.7924 21.0137 15.6733 21.2562 15.6251C21.4986 15.5769 21.75 15.6016 21.9784 15.6962C22.2068 15.7908 22.402 15.951 22.5394 16.1566C22.6767 16.3622 22.75 16.6038 22.75 16.8511C22.75 17.1826 22.6183 17.5005 22.3839 17.735C22.1495 17.9694 21.8315 18.1011 21.5 18.1011ZM21.5 12.6011C21.2528 12.6011 21.0111 12.5278 20.8056 12.3904C20.6 12.2531 20.4398 12.0578 20.3452 11.8294C20.2506 11.601 20.2258 11.3497 20.274 11.1072C20.3223 10.8647 20.4413 10.642 20.6161 10.4672C20.791 10.2924 21.0137 10.1733 21.2562 10.1251C21.4986 10.0769 21.75 10.1016 21.9784 10.1962C22.2068 10.2908 22.402 10.451 22.5394 10.6566C22.6767 10.8622 22.75 11.1038 22.75 11.3511C22.75 11.6826 22.6183 12.0005 22.3839 12.235C22.1495 12.4694 21.8315 12.6011 21.5 12.6011ZM24.25 15.3511C24.0028 15.3511 23.7611 15.2778 23.5556 15.1404C23.35 15.0031 23.1898 14.8078 23.0952 14.5794C23.0006 14.351 22.9758 14.0997 23.024 13.8572C23.0723 13.6147 23.1913 13.392 23.3661 13.2172C23.541 13.0424 23.7637 12.9233 24.0062 12.8751C24.2486 12.8269 24.5 12.8516 24.7284 12.9462C24.9568 13.0408 25.152 13.201 25.2894 13.4066C25.4267 13.6122 25.5 13.8538 25.5 14.1011C25.5 14.4326 25.3683 14.7505 25.1339 14.985C24.8995 15.2194 24.5815 15.3511 24.25 15.3511Z" fill="#636363"/>
</svg>
