<svg width="88" height="88" viewBox="0 0 88 88" fill="none" xmlns="http://www.w3.org/2000/svg">
<path d="M40.875 15.8748C37.375 15.8748 34.1063 16.831 31.3125 18.4998C31.0113 15.2947 29.9855 12.2001 28.3125 9.44975C32.3644 7.42609 36.8452 6.41094 41.3736 6.49061C45.9021 6.57028 50.3443 7.74242 54.3226 9.90735C58.3008 12.0723 61.6974 15.166 64.2234 18.9253C66.7494 22.6846 68.3302 26.9984 68.8313 31.4998H76.8188C82.8563 31.4998 87.7563 36.3997 87.7563 42.4372V70.5622C87.7563 71.9991 87.4731 73.4219 86.9231 74.7493C86.373 76.0767 85.5668 77.2827 84.5505 78.2984C83.5342 79.3142 82.3277 80.1197 81 80.669C79.6723 81.2183 78.2494 81.5006 76.8125 81.4997H48.6875C45.7867 81.4997 43.0047 80.3474 40.9535 78.2962C38.9023 76.2451 37.75 73.4631 37.75 70.5622V62.581C35.5833 62.3406 33.4522 61.8477 31.4 61.1122C31.4625 59.6372 31.5 58.0998 31.5 56.4997V55.9997C31.5 54.4998 31.5 52.731 31.4375 50.831C33.3853 51.9718 35.5242 52.749 37.75 53.1247V42.4372C37.75 36.3997 42.65 31.4998 48.6875 31.4998H59.3688C58.6301 27.1297 56.3673 23.1626 52.9818 20.3023C49.5963 17.4419 45.307 15.8733 40.875 15.8748ZM68.3063 40.8747C67.1252 46.0401 64.5112 50.7676 60.7645 54.5143C57.0178 58.261 52.2903 60.8749 47.125 62.056V70.5622C47.125 71.4248 47.825 72.1247 48.6875 72.1247H76.8125C77.2269 72.1247 77.6243 71.9601 77.9174 71.6671C78.2104 71.3741 78.375 70.9767 78.375 70.5622V42.4372C78.375 42.0229 78.2104 41.6254 77.9174 41.3324C77.6243 41.0394 77.2269 40.8747 76.8125 40.8747H68.3063ZM58.5563 40.8747H48.6875C48.2731 40.8747 47.8757 41.0394 47.5826 41.3324C47.2896 41.6254 47.125 42.0229 47.125 42.4372V52.3122C49.7625 51.3772 52.158 49.8652 54.1367 47.8864C56.1154 45.9077 57.6275 43.5122 58.5625 40.8747H58.5563ZM16.3813 1.031C16.9 1.48476 17.2542 2.0973 17.3887 2.77326C17.5233 3.44923 17.4305 4.1507 17.125 4.7685C17.0721 4.95135 17.0447 5.14065 17.0438 5.331C17.0438 5.72475 17.1438 6.47475 18.0875 7.41225C18.5438 7.8685 18.8938 8.1935 19.275 8.54975C19.5875 8.83725 19.9188 9.13725 20.3375 9.54975C21.15 10.3247 22.0063 11.2372 22.775 12.381C24.3688 14.7747 25.25 17.7685 25.25 22.1248C25.25 27.3247 23.375 31.7685 20.425 34.5747C22.25 36.4248 23.3125 38.8435 23.9688 41.2622C25.25 45.9622 25.25 51.7747 25.25 56.2685V56.4997C25.25 69.3623 22.8438 76.9997 20.1188 81.5435C19.0893 83.3326 17.7373 84.9156 16.1313 86.2122C15.4952 86.7084 14.8029 87.1279 14.0688 87.4622C14.0688 87.4622 13.275 87.7497 12.75 87.7497C12.2994 87.714 11.8558 87.6172 11.4313 87.4622C10.6971 87.1279 10.0048 86.7084 9.36875 86.2122C7.76267 84.9156 6.41069 83.3326 5.38125 81.5435C2.65625 77.006 0.25 69.3623 0.25 56.4997V56.2747C0.25 51.7747 0.25 45.9685 1.53125 41.256C2.1875 38.8435 3.25 36.4248 5.075 34.5685C2.125 31.7748 0.25 27.3247 0.25 22.1248C0.25 20.0872 0.79375 17.656 1.54375 15.4123C2.29375 13.1623 3.34375 10.8372 4.55625 8.96225C6 6.52475 8.03125 4.481 9.60625 3.106C10.4697 2.3466 11.3709 1.63111 12.3063 0.962249L12.4938 0.837249L12.55 0.793499L12.5688 0.781L12.5813 0.774749C13.1544 0.392728 13.8376 0.210743 14.5248 0.257084C15.212 0.303424 15.8646 0.575494 16.3813 1.031Z" fill="#636363"/>
</svg>
