<svg width="90" height="91" viewBox="0 0 90 91" fill="none" xmlns="http://www.w3.org/2000/svg">
<path d="M88.3026 41.4212L49.018 2.12656C47.9305 1.04002 46.4561 0.429688 44.9188 0.429688C43.3815 0.429687 41.9071 1.04002 40.8196 2.12656L32.6513 10.2888L43.0013 20.6388C48.4374 18.8027 53.5843 24.0078 51.718 29.4138L61.6944 39.3902C68.5709 37.0196 73.985 45.6179 68.82 50.7788C63.4984 56.1004 54.7153 50.2022 57.57 43.2775L48.2586 33.9781V58.4569C53.3412 60.9761 52.7305 66.8643 50.0828 69.506C48.7891 70.7989 47.035 71.5252 45.2061 71.5252C43.3771 71.5252 41.623 70.7989 40.3294 69.506C36.7997 65.9703 38.1055 60.0821 42.5894 58.256V33.5462C38.4109 31.8366 37.6475 27.3708 38.8448 24.506L28.6415 14.2906L1.6977 41.2384C0.610671 42.3256 0 43.8002 0 45.3376C0 46.8751 0.610671 48.3496 1.6977 49.4368L40.9944 88.7315C42.0815 89.8179 43.5556 90.4282 45.0926 90.4282C46.6295 90.4282 48.1036 89.8179 49.1908 88.7315L88.3026 49.6196C89.3896 48.5324 90.0003 47.0579 90.0003 45.5204C90.0003 43.983 89.3896 42.5085 88.3026 41.4212Z" fill="#636363"/>
</svg>
