<svg width="111" height="110" viewBox="0 0 111 110" fill="none" xmlns="http://www.w3.org/2000/svg">
<path d="M97.1667 5.73413H13.8333C9.23096 5.73413 5.5 9.39787 5.5 13.9173V95.7492C5.5 100.269 9.23096 103.932 13.8333 103.932H97.1667C101.769 103.932 105.5 100.269 105.5 95.7492V13.9173C105.5 9.39787 101.769 5.73413 97.1667 5.73413Z" stroke="#636363" stroke-width="8" stroke-linejoin="round"/>
<path d="M38.8333 38.4669C38.8333 36.2966 39.7113 34.2151 41.2741 32.6805C42.8369 31.1458 44.9565 30.2837 47.1666 30.2837H55.5V46.6501H47.1666C44.9565 46.6501 42.8369 45.7879 41.2741 44.2533C39.7113 42.7186 38.8333 40.6372 38.8333 38.4669ZM38.8333 54.8332C38.8333 52.6629 39.7113 50.5815 41.2741 49.0469C42.8369 47.5122 44.9565 46.6501 47.1666 46.6501H55.5V63.0164H47.1666C44.9565 63.0164 42.8369 62.1543 41.2741 60.6196C39.7113 59.085 38.8333 57.0036 38.8333 54.8332ZM38.8333 71.1996C38.8333 69.0293 39.7113 66.9479 41.2741 65.4132C42.8369 63.8786 44.9565 63.0164 47.1666 63.0164H55.5V71.1996C55.5 73.3699 54.622 75.4513 53.0592 76.986C51.4964 78.5206 49.3768 79.3828 47.1666 79.3828C44.9565 79.3828 42.8369 78.5206 41.2741 76.986C39.7113 75.4513 38.8333 73.3699 38.8333 71.1996ZM55.5 30.2837H63.8333C66.0434 30.2837 68.1631 31.1458 69.7259 32.6805C71.2887 34.2151 72.1666 36.2966 72.1666 38.4669C72.1666 40.6372 71.2887 42.7186 69.7259 44.2533C68.1631 45.7879 66.0434 46.6501 63.8333 46.6501H55.5V30.2837Z" stroke="#636363" stroke-width="4" stroke-linejoin="round"/>
<path d="M55.5 54.8331C55.5 52.6628 56.378 50.5813 57.9408 49.0467C59.5036 47.5121 61.6232 46.6499 63.8333 46.6499C66.0435 46.6499 68.1631 47.5121 69.7259 49.0467C71.2887 50.5813 72.1667 52.6628 72.1667 54.8331C72.1667 57.0034 71.2887 59.0848 69.7259 60.6195C68.1631 62.1541 66.0435 63.0163 63.8333 63.0163C61.6232 63.0163 59.5036 62.1541 57.9408 60.6195C56.378 59.0848 55.5 57.0034 55.5 54.8331Z" stroke="#636363" stroke-width="4" stroke-linejoin="round"/>
</svg>
