<svg width="17" height="17" viewBox="0 0 17 17" fill="none" xmlns="http://www.w3.org/2000/svg">
<path fill-rule="evenodd" clip-rule="evenodd" d="M12.0833 5.16666C12.0833 4.63623 11.8726 4.12752 11.4975 3.75245C11.1225 3.37738 10.6138 3.16666 10.0833 3.16666H7.41667C6.88623 3.16666 6.37753 3.37738 6.00245 3.75245C5.62738 4.12752 5.41667 4.63623 5.41667 5.16666H4.75C4.21957 5.16666 3.71086 5.37738 3.33579 5.75245C2.96071 6.12752 2.75 6.63623 2.75 7.16666V12.5C2.75 13.0304 2.96071 13.5391 3.33579 13.9142C3.71086 14.2893 4.21957 14.5 4.75 14.5H12.75C13.2804 14.5 13.7891 14.2893 14.1642 13.9142C14.5393 13.5391 14.75 13.0304 14.75 12.5V7.16666C14.75 6.63623 14.5393 6.12752 14.1642 5.75245C13.7891 5.37738 13.2804 5.16666 12.75 5.16666H12.0833ZM10.0833 4.5H7.41667C7.23986 4.5 7.07029 4.57024 6.94526 4.69526C6.82024 4.82028 6.75 4.98985 6.75 5.16666H10.75C10.75 4.98985 10.6798 4.82028 10.5547 4.69526C10.4297 4.57024 10.2601 4.5 10.0833 4.5ZM4.75 6.5H12.75C12.9268 6.5 13.0964 6.57024 13.2214 6.69526C13.3464 6.82028 13.4167 6.98985 13.4167 7.16666V12.5C13.4167 12.6768 13.3464 12.8464 13.2214 12.9714C13.0964 13.0964 12.9268 13.1667 12.75 13.1667H4.75C4.57319 13.1667 4.40362 13.0964 4.2786 12.9714C4.15357 12.8464 4.08333 12.6768 4.08333 12.5V7.16666C4.08333 6.98985 4.15357 6.82028 4.2786 6.69526C4.40362 6.57024 4.57319 6.5 4.75 6.5Z" fill="black"/>
</svg>
