<svg width="17" height="16" viewBox="0 0 17 16" fill="none" xmlns="http://www.w3.org/2000/svg">
<g clip-path="url(#clip0_866_599)">
<path fill-rule="evenodd" clip-rule="evenodd" d="M10.8539 6.14601C10.9005 6.19245 10.9374 6.24763 10.9626 6.30837C10.9878 6.36912 11.0008 6.43424 11.0008 6.50001C11.0008 6.56578 10.9878 6.6309 10.9626 6.69164C10.9374 6.75239 10.9005 6.80756 10.8539 6.85401L7.8539 9.85401C7.80745 9.90057 7.75228 9.93751 7.69153 9.96272C7.63079 9.98793 7.56567 10.0009 7.4999 10.0009C7.43413 10.0009 7.36901 9.98793 7.30827 9.96272C7.24752 9.93751 7.19235 9.90057 7.1459 9.85401L5.6459 8.35401C5.59941 8.30752 5.56254 8.25233 5.53738 8.19159C5.51222 8.13085 5.49927 8.06575 5.49927 8.00001C5.49927 7.93426 5.51222 7.86916 5.53738 7.80843C5.56254 7.74769 5.59941 7.6925 5.6459 7.64601C5.69239 7.59952 5.74758 7.56264 5.80832 7.53749C5.86906 7.51233 5.93416 7.49938 5.9999 7.49938C6.06564 7.49938 6.13074 7.51233 6.19148 7.53749C6.25222 7.56264 6.30741 7.59952 6.3539 7.64601L7.4999 8.79301L10.1459 6.14601C10.1923 6.09945 10.2475 6.0625 10.3083 6.0373C10.369 6.01209 10.4341 5.99911 10.4999 5.99911C10.5657 5.99911 10.6308 6.01209 10.6915 6.0373C10.7523 6.0625 10.8075 6.09945 10.8539 6.14601Z" fill="black"/>
<path d="M10.7729 2.513L9.85193 1.569L10.5669 0.871004L11.1889 1.508L12.0789 1.497C12.4642 1.49244 12.8465 1.56496 13.2033 1.71029C13.5601 1.85562 13.8842 2.07083 14.1567 2.34326C14.4291 2.61569 14.6443 2.93985 14.7896 3.29667C14.935 3.65348 15.0075 4.03575 15.0029 4.421L14.9929 5.311L15.6289 5.933C15.9044 6.20217 16.1233 6.52369 16.2727 6.87865C16.4221 7.23361 16.4991 7.61487 16.4991 8C16.4991 8.38514 16.4221 8.76639 16.2727 9.12136C16.1233 9.47632 15.9044 9.79783 15.6289 10.067L14.9919 10.689L15.0029 11.579C15.0075 11.9643 14.935 12.3465 14.7896 12.7033C14.6443 13.0602 14.4291 13.3843 14.1567 13.6567C13.8842 13.9292 13.5601 14.1444 13.2033 14.2897C12.8465 14.435 12.4642 14.5076 12.0789 14.503L11.1889 14.493L10.5669 15.129C10.2978 15.4045 9.97624 15.6233 9.62128 15.7728C9.26632 15.9222 8.88506 15.9992 8.49993 15.9992C8.11479 15.9992 7.73354 15.9222 7.37857 15.7728C7.02361 15.6233 6.7021 15.4045 6.43293 15.129L5.81093 14.492L4.92093 14.503C4.53568 14.5076 4.1534 14.435 3.79659 14.2897C3.43977 14.1444 3.11562 13.9292 2.84319 13.6567C2.57075 13.3843 2.35555 13.0602 2.21022 12.7033C2.06489 12.3465 1.99237 11.9643 1.99693 11.579L2.00693 10.689L1.37093 10.067C1.09547 9.79783 0.876588 9.47632 0.727151 9.12136C0.577713 8.76639 0.500732 8.38514 0.500732 8C0.500732 7.61487 0.577713 7.23361 0.727151 6.87865C0.876588 6.52369 1.09547 6.20217 1.37093 5.933L2.00793 5.311L1.99693 4.421C1.99237 4.03575 2.06489 3.65348 2.21022 3.29667C2.35555 2.93985 2.57075 2.61569 2.84319 2.34326C3.11562 2.07083 3.43977 1.85562 3.79659 1.71029C4.1534 1.56496 4.53568 1.49244 4.92093 1.497L5.81093 1.507L6.43293 0.871004C6.7021 0.595544 7.02361 0.376665 7.37857 0.227227C7.73354 0.0777894 8.11479 0.000808716 8.49993 0.000808716C8.88506 0.000808716 9.26632 0.0777894 9.62128 0.227227C9.97624 0.376665 10.2978 0.595544 10.5669 0.871004L9.85193 1.569C9.67589 1.38879 9.4656 1.24559 9.23342 1.14782C9.00124 1.05005 8.75185 0.999684 8.49993 0.999684C8.248 0.999684 7.99862 1.05005 7.76644 1.14782C7.53426 1.24559 7.32397 1.38879 7.14793 1.569L6.22793 2.513L4.90793 2.497C4.65611 2.49419 4.40626 2.54173 4.17307 2.63683C3.93988 2.73193 3.72805 2.87268 3.55002 3.0508C3.37199 3.22893 3.23135 3.44083 3.13637 3.67407C3.04139 3.90731 2.99398 4.15718 2.99693 4.409L3.01293 5.727L2.06893 6.648C1.88871 6.82404 1.74551 7.03433 1.64774 7.26651C1.54997 7.49869 1.49961 7.74808 1.49961 8C1.49961 8.25193 1.54997 8.50131 1.64774 8.73349C1.74551 8.96567 1.88871 9.17596 2.06893 9.352L3.01293 10.272L2.99693 11.592C2.99411 11.8438 3.04165 12.0937 3.13675 12.3269C3.23186 12.5601 3.3726 12.7719 3.55073 12.9499C3.72885 13.1279 3.94076 13.2686 4.174 13.3636C4.40724 13.4585 4.65711 13.5059 4.90893 13.503L6.22693 13.487L7.14793 14.431C7.32397 14.6112 7.53426 14.7544 7.76644 14.8522C7.99862 14.95 8.248 15.0003 8.49993 15.0003C8.75185 15.0003 9.00124 14.95 9.23342 14.8522C9.4656 14.7544 9.67589 14.6112 9.85193 14.431L10.7719 13.487L12.0919 13.503C12.3437 13.5058 12.5936 13.4583 12.8268 13.3632C13.06 13.2681 13.2718 13.1273 13.4498 12.9492C13.6279 12.7711 13.7685 12.5592 13.8635 12.3259C13.9585 12.0927 14.0059 11.8428 14.0029 11.591L13.9869 10.273L14.9309 9.352C15.1111 9.17596 15.2543 8.96567 15.3521 8.73349C15.4499 8.50131 15.5002 8.25193 15.5002 8C15.5002 7.74808 15.4499 7.49869 15.3521 7.26651C15.2543 7.03433 15.1111 6.82404 14.9309 6.648L13.9869 5.728L14.0029 4.408C14.0057 4.15618 13.9582 3.90634 13.8631 3.67315C13.768 3.43996 13.6273 3.22812 13.4491 3.05009C13.271 2.87206 13.0591 2.73143 12.8259 2.63645C12.5926 2.54147 12.3427 2.49406 12.0909 2.497L10.7729 2.513Z" fill="black"/>
</g>
<defs>
<clipPath id="clip0_866_599">
<rect width="16" height="16" fill="white" transform="translate(0.5)"/>
</clipPath>
</defs>
</svg>
