<svg width="101" height="101" viewBox="0 0 101 101" fill="none" xmlns="http://www.w3.org/2000/svg">
<path d="M67.7796 48.7916L74.3213 42.2499L58.6963 26.6249L52.1546 33.1666L34.9046 15.9583C31.6546 12.7083 26.363 12.7083 23.113 15.9583L15.1963 23.8749C11.9463 27.1249 11.9463 32.4166 15.1963 35.6666L32.4046 52.8749L13.238 72.0833C12.8213 72.4999 12.613 72.9999 12.613 73.5833V86.2499C12.613 87.4166 13.5296 88.3333 14.6963 88.3333H27.363C27.9046 88.3333 28.4463 88.1249 28.8213 87.7083L48.0713 68.4583L65.2796 85.6666C70.7796 91.1666 76.7796 85.9583 77.0713 85.6666L84.988 77.7499C88.238 74.4999 88.238 69.2083 84.988 65.9583L67.7796 48.7916ZM38.363 46.9583L21.113 29.7499L28.988 21.8333L34.2796 27.1249L32.3213 29.1666C31.5422 29.9457 31.1046 31.0023 31.1046 32.1041C31.1046 33.2059 31.5422 34.2625 32.3213 35.0416C33.1004 35.8207 34.157 36.2584 35.2588 36.2584C36.3606 36.2584 37.4172 35.8207 38.1963 35.0416L40.1963 33.0416L46.238 39.0833L38.363 46.9583ZM71.1963 79.8333L53.988 62.6249L61.9046 54.7083L67.9463 60.7499L65.9463 62.7499C65.5606 63.1357 65.2545 63.5937 65.0458 64.0977C64.837 64.6017 64.7296 65.1419 64.7296 65.6874C64.7296 66.233 64.837 66.7732 65.0458 67.2772C65.2545 67.7812 65.5606 68.2392 65.9463 68.6249C66.3321 69.0107 66.79 69.3167 67.294 69.5255C67.7981 69.7342 68.3383 69.8417 68.8838 69.8417C69.4293 69.8417 69.9696 69.7342 70.4736 69.5255C70.9776 69.3167 71.4355 69.0107 71.8213 68.6249L73.8213 66.6249L79.113 71.9166L71.1963 79.8333ZM86.4046 30.1666C86.7909 29.7811 87.0974 29.3233 87.3064 28.8192C87.5155 28.3152 87.6232 27.7748 87.6232 27.2291C87.6232 26.6834 87.5155 26.1431 87.3064 25.639C87.0974 25.1349 86.7909 24.6771 86.4046 24.2916L76.6546 14.5416C74.6963 12.5833 71.988 13.3333 70.7796 14.5416L63.1546 22.1666L78.7796 37.7916L86.4046 30.1666Z" fill="#636363"/>
</svg>
