<svg width="17" height="17" viewBox="0 0 17 17" fill="none" xmlns="http://www.w3.org/2000/svg">
<path d="M10.7499 12.5C11.3261 12.9343 12.0284 13.1686 12.7499 13.1673C13.4712 13.1686 14.1733 12.9348 14.7499 12.5013V14.6653C14.7501 14.7509 14.7283 14.8352 14.6866 14.9099C14.6449 14.9847 14.5847 15.0475 14.5118 15.0923C14.4388 15.1371 14.3556 15.1625 14.2701 15.1659C14.1845 15.1694 14.0996 15.1508 14.0233 15.112L13.9633 15.0753L12.7499 14.2273L11.5366 15.0753C11.4665 15.1243 11.3851 15.1544 11.3 15.1629C11.215 15.1714 11.1292 15.158 11.0508 15.1239C10.9725 15.0898 10.9041 15.0361 10.8524 14.9681C10.8007 14.9001 10.7672 14.82 10.7553 14.7353L10.7506 14.6653L10.7499 12.5007V12.5ZM13.5833 2.50267C14.0501 2.50265 14.4994 2.68073 14.8395 3.0006C15.1795 3.32047 15.3847 3.75802 15.4133 4.224L15.4166 4.336L15.4173 7.83334C15.1469 7.4734 14.8068 7.17162 14.4173 6.946L14.4166 4.336C14.4167 4.1297 14.3402 3.93069 14.2021 3.77749C14.0639 3.62429 13.8738 3.5278 13.6686 3.50667L13.5833 3.50267H3.91659C3.71028 3.50258 3.51127 3.57901 3.35807 3.71719C3.20488 3.85536 3.10838 4.04545 3.08725 4.25067L3.08325 4.336V10.6693C3.08325 11.1007 3.41125 11.456 3.83125 11.498L3.91659 11.5027H9.86325C9.92992 11.6173 10.0033 11.728 10.0833 11.8333V12.5027H3.91659C3.44962 12.5027 3.00025 12.3245 2.66017 12.0045C2.32009 11.6845 2.11494 11.2468 2.08659 10.7807L2.08325 10.6693V4.336C2.08323 3.86915 2.26131 3.41987 2.58118 3.07981C2.90105 2.73975 3.3386 2.53452 3.80459 2.506L3.91659 2.50267H13.5833ZM12.7499 7.16667C13.4572 7.16667 14.1354 7.44762 14.6355 7.94772C15.1356 8.44782 15.4166 9.12609 15.4166 9.83334C15.4166 10.5406 15.1356 11.2189 14.6355 11.719C14.1354 12.2191 13.4572 12.5 12.7499 12.5C12.0427 12.5 11.3644 12.2191 10.8643 11.719C10.3642 11.2189 10.0833 10.5406 10.0833 9.83334C10.0833 9.12609 10.3642 8.44782 10.8643 7.94772C11.3644 7.44762 12.0427 7.16667 12.7499 7.16667ZM8.24992 8.83334C8.3766 8.83338 8.49855 8.8815 8.59111 8.96799C8.68368 9.05447 8.73997 9.17287 8.7486 9.29926C8.75724 9.42565 8.71758 9.5506 8.63763 9.64887C8.55769 9.74714 8.44342 9.8114 8.31792 9.82867L8.24992 9.83334H5.24992C5.12324 9.8333 5.00129 9.78517 4.90872 9.69869C4.81616 9.6122 4.75987 9.4938 4.75123 9.36742C4.7426 9.24103 4.78226 9.11608 4.86221 9.0178C4.94215 8.91953 5.05642 8.85527 5.18192 8.838L5.24992 8.83334H8.24992ZM12.2499 5.16667C12.3766 5.16671 12.4985 5.21483 12.5911 5.30132C12.6837 5.3878 12.74 5.5062 12.7486 5.63259C12.7572 5.75898 12.7176 5.88393 12.6376 5.9822C12.5577 6.08047 12.4434 6.14474 12.3179 6.162L12.2499 6.16667H5.24992C5.12324 6.16663 5.00129 6.11851 4.90872 6.03202C4.81616 5.94554 4.75987 5.82714 4.75123 5.70075C4.7426 5.57436 4.78226 5.44941 4.86221 5.35114C4.94215 5.25287 5.05642 5.1886 5.18192 5.17134L5.24992 5.16667H12.2499Z" fill="black"/>
</svg>
