<svg width="85" height="84" viewBox="0 0 85 84" fill="none" xmlns="http://www.w3.org/2000/svg">
<path fill-rule="evenodd" clip-rule="evenodd" d="M29.6169 42H19.5369C18.5585 43.6946 17.0484 45.019 15.2406 45.7678C13.4328 46.5166 11.4284 46.648 9.53833 46.1416C7.64826 45.6351 5.97812 44.5192 4.78693 42.9668C3.59574 41.4144 2.95007 39.5123 2.95007 37.5556C2.95007 35.5988 3.59574 33.6968 4.78693 32.1444C5.97812 30.592 7.64826 29.476 9.53833 28.9696C11.4284 28.4632 13.4328 28.5945 15.2406 29.3433C17.0484 30.0921 18.5585 31.4166 19.5369 33.1111H29.6169V10.889C29.6169 8.53151 30.5534 6.27059 32.2204 4.60361C33.8874 2.93662 36.1483 2.00012 38.5058 2.00012H74.0612C76.4187 2.00012 78.6796 2.93662 80.3466 4.60361C82.0136 6.27059 82.9501 8.53151 82.9501 10.889V73.111C82.9501 75.4685 82.0136 77.7294 80.3466 79.3964C78.6796 81.0634 76.4187 81.9999 74.0612 81.9999H38.5058C36.1483 81.9999 33.8874 81.0634 32.2204 79.3964C30.5534 77.7294 29.6169 75.4685 29.6169 73.111V42ZM38.5058 42V73.111H74.0612V10.889H38.5058V33.1111H48.5857C49.5641 31.4166 51.0743 30.0921 52.8821 29.3433C54.6899 28.5945 56.6942 28.4632 58.5843 28.9696C60.4744 29.476 62.1445 30.592 63.3357 32.1444C64.5269 33.6968 65.1726 35.5988 65.1726 37.5556C65.1726 39.5123 64.5269 41.4144 63.3357 42.9668C62.1445 44.5192 60.4744 45.6351 58.5843 46.1416C56.6942 46.648 54.6899 46.5166 52.8821 45.7678C51.0743 45.019 49.5641 43.6946 48.5857 42H38.5058Z" fill="#636363"/>
</svg>
