<svg width="85" height="84" viewBox="0 0 85 84" fill="none" xmlns="http://www.w3.org/2000/svg">
<g clip-path="url(#clip0_1489_567)">
<path d="M74.0612 6.44444C76.4187 6.44444 78.6796 7.38095 80.3466 9.04794C82.0136 10.7149 82.9501 12.9759 82.9501 15.3333V68.6667C82.9501 71.0241 82.0136 73.2851 80.3466 74.9521C78.6796 76.619 76.4187 77.5555 74.0612 77.5555H11.839C9.48148 77.5555 7.22056 76.619 5.55357 74.9521C3.88658 73.2851 2.95007 71.0241 2.95007 68.6667V15.3333C2.95007 12.9759 3.88658 10.7149 5.55357 9.04794C7.22056 7.38095 9.48148 6.44444 11.839 6.44444H74.0612ZM74.0612 33.1111H11.839V64.2222C11.8391 65.3108 12.2388 66.3615 12.9621 67.175C13.6855 67.9885 14.6823 68.5082 15.7634 68.6356L16.2834 68.6667H69.6167C70.7053 68.6665 71.756 68.2669 72.5695 67.5435C73.383 66.8201 73.9027 65.8233 74.0301 64.7422L74.0612 64.2222V33.1111ZM16.2834 15.3333C15.1047 15.3333 13.9742 15.8016 13.1407 16.6351C12.3072 17.4686 11.839 18.599 11.839 19.7778C11.839 20.9565 12.3072 22.087 13.1407 22.9205C13.9742 23.754 15.1047 24.2222 16.2834 24.2222C17.4621 24.2222 18.5926 23.754 19.4261 22.9205C20.2596 22.087 20.7279 20.9565 20.7279 19.7778C20.7279 18.599 20.2596 17.4686 19.4261 16.6351C18.5926 15.8016 17.4621 15.3333 16.2834 15.3333ZM29.6167 15.3333C28.438 15.3333 27.3075 15.8016 26.474 16.6351C25.6406 17.4686 25.1723 18.599 25.1723 19.7778C25.1723 20.9565 25.6406 22.087 26.474 22.9205C27.3075 23.754 28.438 24.2222 29.6167 24.2222C30.7955 24.2222 31.9259 23.754 32.7594 22.9205C33.5929 22.087 34.0612 20.9565 34.0612 19.7778C34.0612 18.599 33.5929 17.4686 32.7594 16.6351C31.9259 15.8016 30.7955 15.3333 29.6167 15.3333ZM42.9501 15.3333C41.7713 15.3333 40.6409 15.8016 39.8074 16.6351C38.9739 17.4686 38.5056 18.599 38.5056 19.7778C38.5056 20.9565 38.9739 22.087 39.8074 22.9205C40.6409 23.754 41.7713 24.2222 42.9501 24.2222C44.1288 24.2222 45.2593 23.754 46.0928 22.9205C46.9263 22.087 47.3945 20.9565 47.3945 19.7778C47.3945 18.599 46.9263 17.4686 46.0928 16.6351C45.2593 15.8016 44.1288 15.3333 42.9501 15.3333Z" fill="#636363"/>
</g>
<defs>
<clipPath id="clip0_1489_567">
<rect width="84" height="84" fill="white" transform="translate(0.950073)"/>
</clipPath>
</defs>
</svg>
