<svg width="40" height="41" viewBox="0 0 40 41" fill="none" xmlns="http://www.w3.org/2000/svg">
<path d="M20 11.6688C14.9331 11.6688 10.8438 15.7581 10.8438 20.8251C10.8438 25.892 14.9331 29.9813 20 29.9813C25.067 29.9813 29.1563 25.892 29.1563 20.8251C29.1563 15.7581 25.067 11.6688 20 11.6688ZM20 26.776C16.7233 26.776 14.0491 24.1018 14.0491 20.8251C14.0491 17.5483 16.7233 14.8742 20 14.8742C23.2768 14.8742 25.9509 17.5483 25.9509 20.8251C25.9509 24.1018 23.2768 26.776 20 26.776ZM29.5313 9.15988C28.3483 9.15988 27.3929 10.1152 27.3929 11.2983C27.3929 12.4813 28.3483 13.4367 29.5313 13.4367C30.7143 13.4367 31.6697 12.4858 31.6697 11.2983C31.67 11.0174 31.615 10.7391 31.5076 10.4795C31.4003 10.2199 31.2428 9.98405 31.0441 9.78541C30.8455 9.58678 30.6096 9.42928 30.35 9.32194C30.0904 9.2146 29.8122 9.15953 29.5313 9.15988ZM37.8483 20.8251C37.8483 18.3608 37.8706 15.9188 37.7322 13.459C37.5938 10.6018 36.942 8.06613 34.8527 5.97684C32.759 3.88309 30.2277 3.23577 27.3706 3.09738C24.9063 2.95899 22.4643 2.98131 20.0045 2.98131C17.5402 2.98131 15.0983 2.95899 12.6384 3.09738C9.78129 3.23577 7.24557 3.88756 5.15629 5.97684C3.06254 8.07059 2.41522 10.6018 2.27682 13.459C2.13843 15.9233 2.16075 18.3652 2.16075 20.8251C2.16075 23.2849 2.13843 25.7313 2.27682 28.1911C2.41522 31.0483 3.067 33.584 5.15629 35.6733C7.25004 37.767 9.78129 38.4143 12.6384 38.5527C15.1027 38.6911 17.5447 38.6688 20.0045 38.6688C22.4688 38.6688 24.9108 38.6911 27.3706 38.5527C30.2277 38.4143 32.7634 37.7626 34.8527 35.6733C36.9465 33.5795 37.5938 31.0483 37.7322 28.1911C37.875 25.7313 37.8483 23.2893 37.8483 20.8251ZM33.9197 31.3518C33.5938 32.1643 33.2009 32.7715 32.5715 33.3965C31.942 34.026 31.3393 34.4188 30.5268 34.7447C28.1786 35.6777 22.6027 35.4679 20 35.4679C17.3974 35.4679 11.817 35.6777 9.46879 34.7492C8.65629 34.4233 8.04915 34.0304 7.42415 33.401C6.79468 32.7715 6.40182 32.1688 6.07593 31.3563C5.14736 29.0036 5.35718 23.4277 5.35718 20.8251C5.35718 18.2224 5.14736 12.642 6.07593 10.2938C6.40182 9.48131 6.79468 8.87417 7.42415 8.24917C8.05361 7.62417 8.65629 7.22684 9.46879 6.90095C11.817 5.97238 17.3974 6.1822 20 6.1822C22.6027 6.1822 28.1831 5.97238 30.5313 6.90095C31.3438 7.22684 31.9509 7.6197 32.5759 8.24917C33.2054 8.87863 33.5983 9.48131 33.9242 10.2938C34.8527 12.642 34.6429 18.2224 34.6429 20.8251C34.6429 23.4277 34.8527 29.0036 33.9197 31.3518Z" fill="#FF003D"/>
</svg>
