<svg width="90" height="91" viewBox="0 0 90 91" fill="none" xmlns="http://www.w3.org/2000/svg">
<path d="M80.3571 0.428711H9.64286C4.3192 0.428711 0 4.74791 0 10.0716V80.7859C0 86.1095 4.3192 90.4287 9.64286 90.4287H80.3571C85.6808 90.4287 90 86.1095 90 80.7859V10.0716C90 4.74791 85.6808 0.428711 80.3571 0.428711ZM48.9777 70.6207C48.9777 79.3796 43.8348 83.3774 36.3415 83.3774C29.5714 83.3774 25.654 79.8818 23.6451 75.643L30.5357 71.4845C31.8616 73.835 33.067 75.8238 35.9799 75.8238C38.7522 75.8238 40.5201 74.739 40.5201 70.5001V41.7524H48.9777V70.6207ZM68.9866 83.3774C61.1317 83.3774 56.0491 79.6408 53.5781 74.739L60.4687 70.7613C62.2768 73.7144 64.6473 75.9042 68.8058 75.9042C72.3013 75.9042 74.5513 74.1564 74.5513 71.7256C74.5513 68.8327 72.2612 67.8082 68.3839 66.1006L66.2746 65.1966C60.1674 62.605 56.1295 59.3305 56.1295 52.4399C56.1295 46.0917 60.971 41.2702 68.5045 41.2702C73.8884 41.2702 77.7455 43.1385 80.5179 48.0403L73.9286 52.2591C72.4821 49.6675 70.9152 48.643 68.4844 48.643C66.0134 48.643 64.4464 50.21 64.4464 52.2591C64.4464 54.7903 66.0134 55.8149 69.6496 57.4019L71.7589 58.3059C78.9509 61.3796 82.9888 64.5336 82.9888 71.605C82.9888 79.1988 77.0022 83.3774 68.9866 83.3774Z" fill="#636363"/>
</svg>
