<svg width="40" height="41" viewBox="0 0 40 41" fill="none" xmlns="http://www.w3.org/2000/svg">
<path d="M34.9866 2.24365H5.01336C3.42854 2.24365 2.14282 3.52937 2.14282 5.11419V35.0874C2.14282 36.6722 3.42854 37.9579 5.01336 37.9579H34.9866C36.5714 37.9579 37.8571 36.6722 37.8571 35.0874V5.11419C37.8571 3.52937 36.5714 2.24365 34.9866 2.24365ZM34.9866 35.1008C14.9955 35.0963 4.99997 35.0919 4.99997 35.0874C5.00443 15.0963 5.00889 5.1008 5.01336 5.1008C25.0044 5.10526 35 5.10972 35 5.11419C34.9955 25.1053 34.991 35.1008 34.9866 35.1008ZM7.43747 15.632H12.7366V32.6767H7.43747V15.632ZM10.0893 13.3017C11.7812 13.3017 13.1607 11.9267 13.1607 10.2303C13.1607 9.82691 13.0812 9.42752 12.9269 9.05487C12.7725 8.68223 12.5463 8.34364 12.2611 8.05843C11.9759 7.77322 11.6373 7.54698 11.2646 7.39263C10.892 7.23828 10.4926 7.15883 10.0893 7.15883C9.68591 7.15883 9.28651 7.23828 8.91387 7.39263C8.54122 7.54698 8.20263 7.77322 7.91742 8.05843C7.63221 8.34364 7.40597 8.68223 7.25162 9.05487C7.09727 9.42752 7.01782 9.82691 7.01782 10.2303C7.01336 11.9267 8.38836 13.3017 10.0893 13.3017ZM21.3526 24.2437C21.3526 22.0204 21.7768 19.8687 24.5312 19.8687C27.2455 19.8687 27.2857 22.4088 27.2857 24.3865V32.6767H32.5803V23.3285C32.5803 18.7392 31.5893 15.2079 26.2276 15.2079C23.6518 15.2079 21.9241 16.6231 21.2143 17.9624H21.1428V15.632H16.058V32.6767H21.3526V24.2437Z" fill="#FF003D"/>
</svg>
