<svg width="248" height="144" viewBox="0 0 248 144" fill="none" xmlns="http://www.w3.org/2000/svg">
<path d="M42.6227 112.765L39.9429 111.218C43.5586 109.106 45.3558 107.27 45.3344 105.711C45.3132 104.127 43.5055 102.297 39.9111 100.222L25.3635 91.8227C22.8325 90.3615 20.8865 88.9555 19.5253 87.6048C18.1854 86.2418 17.441 84.9033 17.2921 83.5895C17.122 82.2633 17.5793 80.9433 18.664 79.6294C19.7486 78.3155 21.4713 76.9771 23.8321 75.6141L27.2775 77.6033C24.9593 78.9172 23.4919 80.2188 22.8751 81.5081C22.2583 82.7729 22.4604 84.0806 23.4812 85.4313C24.5234 86.7698 26.3631 88.2003 29.0004 89.723L44.4093 98.6193C46.366 99.749 47.8442 100.848 48.8437 101.916C49.8646 102.972 50.3538 104.053 50.3112 105.158C50.2474 106.251 49.5987 107.424 48.3651 108.676C47.1103 109.916 45.1962 111.279 42.6227 112.765ZM105.503 122.767C103.142 124.13 100.824 125.124 98.5478 125.75C96.2722 126.377 93.9858 126.641 91.6889 126.542C89.4131 126.456 87.0949 126.027 84.734 125.253C82.3946 124.467 79.9594 123.344 77.4285 121.882L62.8809 113.483C59.2865 111.408 56.1282 110.371 53.4058 110.371C50.6835 110.346 47.4933 111.378 43.835 113.465L41.1553 111.918C43.75 110.444 46.132 109.351 48.3013 108.639C50.4495 107.915 52.47 107.534 54.3629 107.497C56.2558 107.46 58.1167 107.737 59.9458 108.326C61.7962 108.903 63.6998 109.757 65.6564 110.886L81.0654 119.783C83.7026 121.305 86.1803 122.367 88.4987 122.969C90.8381 123.559 93.1033 123.675 95.2938 123.319C97.5058 122.951 99.7602 122.104 102.057 120.777L105.503 122.767ZM43.835 113.465L39.9429 111.218L47.0572 107.11L50.9493 109.358L43.835 113.465Z" fill="#161616"/>
<path d="M193.338 24.2684L196.018 25.8156C192.402 27.9278 190.605 29.7635 190.626 31.3229C190.648 32.907 192.455 34.7365 196.05 36.8118L210.597 45.2108C213.128 46.672 215.074 48.078 216.435 49.4287C217.775 50.7918 218.52 52.1302 218.669 53.444C218.839 54.7703 218.381 56.0903 217.297 57.4041C216.212 58.718 214.489 60.0565 212.129 61.4195L208.683 59.4303C211.001 58.1163 212.469 56.8147 213.086 55.5253C213.702 54.2606 213.5 52.9529 212.48 51.6022C211.437 50.2637 209.598 48.8333 206.96 47.3106L191.552 38.4143C189.595 37.2845 188.117 36.1855 187.117 35.1173C186.096 34.0612 185.607 32.9806 185.65 31.8754C185.713 30.7826 186.362 29.6099 187.596 28.3574C188.85 27.1173 190.765 25.7542 193.338 24.2684ZM130.458 14.267C132.819 12.904 135.137 11.9093 137.413 11.2831C139.689 10.6569 141.975 10.3929 144.272 10.4911C146.548 10.5771 148.866 11.0068 151.227 11.7804C153.566 12.5662 156.001 13.6898 158.532 15.1511L173.08 23.5501C176.674 25.6254 179.833 26.6629 182.555 26.663C185.277 26.6875 188.468 25.6561 192.126 23.5685L194.806 25.1157C192.211 26.5893 189.829 27.6821 187.659 28.3943C185.511 29.1188 183.491 29.4995 181.598 29.5363C179.705 29.5731 177.844 29.2969 176.015 28.7074C174.165 28.1303 172.261 27.2769 170.304 26.1472L154.895 17.2509C152.258 15.7282 149.78 14.666 147.462 14.0643C145.123 13.475 142.858 13.3583 140.667 13.7144C138.455 14.0828 136.201 14.9301 133.904 16.2562L130.458 14.267ZM192.126 23.5685L196.018 25.8156L188.904 29.923L185.012 27.6759L192.126 23.5685Z" fill="#161616"/>
<path d="M61.2034 53.9717L91.4488 36.5095C94.2731 38.1401 94.2732 40.7838 91.4489 42.4144L71.4311 53.9717C68.6068 55.6023 64.0277 55.6023 61.2034 53.9717Z" fill="#161616"/>
<path d="M114.203 86.1951L113.736 83.7642L102.891 84.4601L104.096 78.1988L99.8857 77.9291L98.3884 85.7093C98.3533 85.8915 98.3896 86.076 98.4947 86.2491C98.5998 86.4221 98.771 86.5793 98.9956 86.709C99.2202 86.8387 99.4925 86.9375 99.7922 86.9982C100.092 87.0589 100.411 87.0798 100.727 87.0596L114.203 86.1951ZM105.273 67.8979L126.235 86.916L122.661 88.2292L101.699 69.211L105.273 67.8979Z" fill="#161616"/>
<path d="M112.655 68.4472C112.417 68.5847 112.283 68.7713 112.283 68.9659C112.283 69.1604 112.417 69.347 112.655 69.4845C112.894 69.6221 113.217 69.6994 113.554 69.6994C113.891 69.6994 114.214 69.6221 114.452 69.4845L124.334 63.7791C124.573 63.6415 124.706 63.455 124.706 63.2604C124.706 63.0659 124.573 62.8793 124.334 62.7417C124.096 62.6042 123.773 62.5269 123.436 62.5269C123.099 62.5269 122.776 62.6042 122.538 62.7417L112.655 68.4472ZM123.436 68.4472C123.198 68.5847 123.064 68.7713 123.064 68.9659C123.064 69.1604 123.198 69.347 123.436 69.4845C123.674 69.6221 123.997 69.6994 124.334 69.6994C124.671 69.6994 124.994 69.6221 125.233 69.4845L134.216 64.2978C134.455 64.1602 134.589 63.9736 134.589 63.7791C134.589 63.5845 134.455 63.398 134.216 63.2604C133.978 63.1228 133.655 63.0456 133.318 63.0456C132.981 63.0456 132.658 63.1228 132.42 63.2604L123.436 68.4472ZM127.029 73.634C126.791 73.4964 126.657 73.3098 126.657 73.1153C126.657 72.9207 126.791 72.7342 127.029 72.5966L144.997 62.2231C145.235 62.0855 145.558 62.0082 145.895 62.0082C146.232 62.0082 146.555 62.0855 146.794 62.2231C147.032 62.3606 147.166 62.5472 147.166 62.7417C147.166 62.9363 147.032 63.1228 146.794 63.2604L128.826 73.634C128.588 73.7715 128.265 73.8488 127.928 73.8488C127.591 73.8488 127.268 73.7715 127.029 73.634ZM128.826 77.7834C128.588 77.9209 128.454 78.1075 128.454 78.3021C128.454 78.4966 128.588 78.6832 128.826 78.8207C129.064 78.9583 129.388 79.0356 129.725 79.0356C130.062 79.0356 130.385 78.9583 130.623 78.8207L145.895 70.0032C146.134 69.8657 146.267 69.6791 146.267 69.4845C146.267 69.29 146.134 69.1034 145.895 68.9659C145.657 68.8283 145.334 68.751 144.997 68.751C144.66 68.751 144.337 68.8283 144.099 68.9659L128.826 77.7834ZM136.912 61.7044C136.673 61.5668 136.539 61.3802 136.539 61.1857C136.539 60.9912 136.673 60.8046 136.912 60.667L143.2 57.0363C143.439 56.8987 143.762 56.8214 144.099 56.8214C144.436 56.8214 144.759 56.8987 144.997 57.0363C145.235 57.1738 145.369 57.3604 145.369 57.555C145.369 57.7495 145.235 57.9361 144.997 58.0736L138.708 61.7044C138.47 61.8419 138.147 61.9192 137.81 61.9192C137.473 61.9192 137.15 61.8419 136.912 61.7044ZM127.029 60.1483C126.791 60.2859 126.657 60.4725 126.657 60.667C126.657 60.8616 126.791 61.0481 127.029 61.1857C127.268 61.3233 127.591 61.4005 127.928 61.4005C128.265 61.4005 128.588 61.3233 128.826 61.1857L141.403 53.9242C141.642 53.7867 141.776 53.6001 141.776 53.4055C141.776 53.211 141.642 53.0244 141.403 52.8869C141.165 52.7493 140.842 52.672 140.505 52.672C140.168 52.672 139.845 52.7493 139.607 52.8869L127.029 60.1483Z" fill="#161616"/>
<path d="M235.268 62.5853C239.736 60.0058 239.572 55.7294 234.903 53.0336L173.76 88.3343C174.488 88.8696 175.463 89.3174 173.289 90.5729L154.058 101.676C153.152 102.199 151.773 101.984 150.945 101.507L91.1629 136.022C95.832 138.718 103.239 138.812 107.707 136.233L235.268 62.5853Z" fill="#161616"/>
</svg>
