<svg width="248" height="143" viewBox="0 0 248 143" fill="none" xmlns="http://www.w3.org/2000/svg">
<path d="M42.6227 112.454L39.9429 110.907C43.5586 108.795 45.3558 106.959 45.3344 105.4C45.3132 103.816 43.5055 101.986 39.9111 99.9108L25.3635 91.5118C22.8325 90.0506 20.8865 88.6446 19.5253 87.2939C18.1854 85.9309 17.441 84.5924 17.2921 83.2785C17.122 81.9524 17.5793 80.6323 18.664 79.3184C19.7486 78.0046 21.4713 76.6661 23.8321 75.3032L27.2775 77.2924C24.9593 78.6063 23.4919 79.9078 22.8751 81.1972C22.2583 82.4619 22.4604 83.7697 23.4812 85.1204C24.5234 86.4589 26.3631 87.8894 29.0004 89.412L44.4093 98.3084C46.366 99.4381 47.8442 100.537 48.8437 101.605C49.8646 102.661 50.3538 103.742 50.3112 104.847C50.2474 105.94 49.5987 107.113 48.3651 108.365C47.1103 109.605 45.1962 110.968 42.6227 112.454ZM105.503 122.456C103.142 123.819 100.824 124.813 98.5478 125.439C96.2722 126.066 93.9858 126.33 91.6889 126.232C89.4131 126.145 87.0949 125.716 84.734 124.942C82.3946 124.156 79.9594 123.033 77.4285 121.572L62.8809 113.172C59.2865 111.097 56.1282 110.06 53.4058 110.06C50.6835 110.035 47.4933 111.067 43.835 113.154L41.1553 111.607C43.75 110.133 46.132 109.04 48.3013 108.328C50.4495 107.604 52.47 107.223 54.3629 107.186C56.2558 107.149 58.1167 107.426 59.9458 108.015C61.7962 108.592 63.6998 109.446 65.6564 110.575L81.0654 119.472C83.7026 120.994 86.1803 122.056 88.4987 122.658C90.8381 123.248 93.1033 123.364 95.2938 123.008C97.5058 122.64 99.7602 121.793 102.057 120.466L105.503 122.456ZM43.835 113.154L39.9429 110.907L47.0572 106.799L50.9493 109.047L43.835 113.154Z" fill="#FF003D"/>
<path d="M193.338 23.9575L196.018 25.5047C192.402 27.6168 190.605 29.4525 190.626 31.012C190.648 32.596 192.455 34.4256 196.05 36.5008L210.597 44.8999C213.128 46.3611 215.074 47.767 216.435 49.1178C217.775 50.4809 218.52 51.8193 218.669 53.1331C218.839 54.4593 218.381 55.7794 217.297 57.0932C216.212 58.4071 214.489 59.7456 212.129 61.1086L208.683 59.1193C211.001 57.8054 212.469 56.5037 213.086 55.2144C213.702 53.9497 213.5 52.642 212.48 51.2912C211.437 49.9527 209.598 48.5223 206.96 46.9997L191.552 38.1033C189.595 36.9736 188.117 35.8746 187.117 34.8063C186.096 33.7503 185.607 32.6697 185.65 31.5645C185.713 30.4716 186.362 29.299 187.596 28.0465C188.85 26.8064 190.765 25.4433 193.338 23.9575ZM130.458 13.9561C132.819 12.5931 135.137 11.5984 137.413 10.9722C139.689 10.346 141.975 10.082 144.272 10.1802C146.548 10.2662 148.866 10.6959 151.227 11.4695C153.566 12.2553 156.001 13.3789 158.532 14.8401L173.08 23.2392C176.674 25.3144 179.833 26.352 182.555 26.3521C185.277 26.3766 188.468 25.3451 192.126 23.2576L194.806 24.8048C192.211 26.2783 189.829 27.3712 187.659 28.0833C185.511 28.8078 183.491 29.1885 181.598 29.2254C179.705 29.2622 177.844 28.9859 176.015 28.3965C174.165 27.8193 172.261 26.966 170.304 25.8363L154.895 16.94C152.258 15.4173 149.78 14.3551 147.462 13.7534C145.123 13.164 142.858 13.0474 140.667 13.4034C138.455 13.7718 136.201 14.6192 133.904 15.9453L130.458 13.9561ZM192.126 23.2576L196.018 25.5047L188.904 29.6121L185.012 27.365L192.126 23.2576Z" fill="#FF003D"/>
<path d="M61.2034 53.6608L91.4488 36.1986C94.2731 37.8292 94.2732 40.4729 91.4489 42.1035L71.4311 53.6608C68.6068 55.2914 64.0277 55.2914 61.2034 53.6608Z" fill="#FF003D"/>
<path d="M114.203 85.8842L113.736 83.4533L102.891 84.1492L104.096 77.8879L99.8857 77.6182L98.3884 85.3983C98.3533 85.5806 98.3896 85.7651 98.4947 85.9381C98.5998 86.1112 98.771 86.2684 98.9956 86.3981C99.2202 86.5277 99.4925 86.6266 99.7922 86.6873C100.092 86.7479 100.411 86.7689 100.727 86.7486L114.203 85.8842ZM105.273 67.587L126.235 86.6051L122.661 87.9182L101.699 68.9001L105.273 67.587Z" fill="#FF003D"/>
<path d="M112.655 68.1363C112.417 68.2738 112.283 68.4604 112.283 68.6549C112.283 68.8495 112.417 69.036 112.655 69.1736C112.894 69.3112 113.217 69.3885 113.554 69.3885C113.891 69.3885 114.214 69.3112 114.452 69.1736L124.334 63.4682C124.573 63.3306 124.706 63.144 124.706 62.9495C124.706 62.7549 124.573 62.5684 124.334 62.4308C124.096 62.2932 123.773 62.216 123.436 62.216C123.099 62.216 122.776 62.2932 122.538 62.4308L112.655 68.1363ZM123.436 68.1363C123.198 68.2738 123.064 68.4604 123.064 68.6549C123.064 68.8495 123.198 69.036 123.436 69.1736C123.674 69.3112 123.997 69.3885 124.334 69.3885C124.671 69.3885 124.994 69.3112 125.233 69.1736L134.216 63.9868C134.455 63.8493 134.589 63.6627 134.589 63.4682C134.589 63.2736 134.455 63.087 134.216 62.9495C133.978 62.8119 133.655 62.7346 133.318 62.7346C132.981 62.7346 132.658 62.8119 132.42 62.9495L123.436 68.1363ZM127.029 73.323C126.791 73.1855 126.657 72.9989 126.657 72.8044C126.657 72.6098 126.791 72.4232 127.029 72.2857L144.997 61.9121C145.235 61.7746 145.558 61.6973 145.895 61.6973C146.232 61.6973 146.555 61.7746 146.794 61.9121C147.032 62.0497 147.166 62.2363 147.166 62.4308C147.166 62.6253 147.032 62.8119 146.794 62.9495L128.826 73.323C128.588 73.4606 128.265 73.5379 127.928 73.5379C127.591 73.5379 127.268 73.4606 127.029 73.323ZM128.826 77.4724C128.588 77.61 128.454 77.7966 128.454 77.9911C128.454 78.1857 128.588 78.3722 128.826 78.5098C129.064 78.6474 129.388 78.7246 129.725 78.7246C130.062 78.7246 130.385 78.6474 130.623 78.5098L145.895 69.6923C146.134 69.5547 146.267 69.3681 146.267 69.1736C146.267 68.9791 146.134 68.7925 145.895 68.6549C145.657 68.5174 145.334 68.4401 144.997 68.4401C144.66 68.4401 144.337 68.5174 144.099 68.6549L128.826 77.4724ZM136.912 61.3934C136.673 61.2559 136.539 61.0693 136.539 60.8748C136.539 60.6802 136.673 60.4937 136.912 60.3561L143.2 56.7254C143.439 56.5878 143.762 56.5105 144.099 56.5105C144.436 56.5105 144.759 56.5878 144.997 56.7254C145.235 56.8629 145.369 57.0495 145.369 57.244C145.369 57.4386 145.235 57.6251 144.997 57.7627L138.708 61.3934C138.47 61.531 138.147 61.6083 137.81 61.6083C137.473 61.6083 137.15 61.531 136.912 61.3934ZM127.029 59.8374C126.791 59.975 126.657 60.1616 126.657 60.3561C126.657 60.5506 126.791 60.7372 127.029 60.8748C127.268 61.0123 127.591 61.0896 127.928 61.0896C128.265 61.0896 128.588 61.0123 128.826 60.8748L141.403 53.6133C141.642 53.4757 141.776 53.2892 141.776 53.0946C141.776 52.9001 141.642 52.7135 141.403 52.5759C141.165 52.4384 140.842 52.3611 140.505 52.3611C140.168 52.3611 139.845 52.4384 139.607 52.5759L127.029 59.8374Z" fill="#FF003D"/>
<path d="M235.268 62.2744C239.736 59.6949 239.572 55.4184 234.903 52.7227L173.76 88.0233C174.488 88.5587 175.463 89.0065 173.289 90.262L154.058 101.365C153.152 101.888 151.773 101.673 150.945 101.196L91.1629 135.711C95.832 138.407 103.239 138.501 107.707 135.922L235.268 62.2744Z" fill="#FF003D"/>
</svg>
