<svg width="201" height="201" viewBox="0 0 201 201" fill="none" xmlns="http://www.w3.org/2000/svg">
<path d="M29.7412 174.893V77.2765C29.7412 39.3923 60.4524 8.68104 98.3367 8.68104C136.221 8.68105 166.932 39.3923 166.932 77.2766V180.829C166.932 188.843 160.436 195.34 152.422 195.34C144.408 195.34 137.911 188.843 137.911 180.829V164.34C137.911 157.055 132.005 151.149 124.72 151.149C117.434 151.149 111.528 157.055 111.528 164.34V165.659C111.528 173.309 105.327 179.51 97.6771 179.51C90.0274 179.51 83.8261 173.309 83.8261 165.659V164.34C83.8261 157.055 77.92 151.149 70.6346 151.149C63.3492 151.149 57.4432 157.055 57.4432 164.34V174.893C57.4432 182.543 51.2419 188.744 43.5922 188.744C35.9425 188.744 29.7412 182.543 29.7412 174.893Z" fill="#666666"/>
<g filter="url(#filter0_d_310_710)">
<path d="M33.6473 171.076V73.4593C33.6473 35.5751 64.3585 4.86384 102.243 4.86384C140.127 4.86385 170.838 35.5751 170.838 73.4594V177.012C170.838 185.026 164.342 191.523 156.328 191.523C148.314 191.523 141.817 185.026 141.817 177.012V160.523C141.817 153.237 135.911 147.331 128.626 147.331C121.34 147.331 115.434 153.237 115.434 160.523V161.842C115.434 169.492 109.233 175.693 101.583 175.693C93.9335 175.693 87.7321 169.492 87.7321 161.842V160.523C87.7321 153.237 81.8261 147.331 74.5407 147.331C67.2553 147.331 61.3493 153.237 61.3493 160.523V171.076C61.3493 178.726 55.148 184.927 47.4983 184.927C39.8486 184.927 33.6473 178.726 33.6473 171.076Z" fill="#666666"/>
</g>
<g filter="url(#filter1_i_310_710)">
<path d="M95.5736 54.4153L93.4301 54.4153C88.221 54.4153 83.9982 58.6381 83.9982 63.8472C83.9982 69.0563 88.221 73.2791 93.4301 73.2791H95.5736C100.783 73.2791 105.006 69.0563 105.006 63.8472C105.006 58.6381 100.783 54.4153 95.5736 54.4153Z" fill="#666666"/>
<path d="M132.872 73.2791H132.015C126.806 73.2791 122.583 69.0563 122.583 63.8472C122.583 58.6381 126.806 54.4153 132.015 54.4153H132.872C138.082 54.4153 142.304 58.6381 142.304 63.8472C142.304 69.0563 138.082 73.2791 132.872 73.2791Z" fill="#666666"/>
<path d="M109.453 100.465C111.759 103.001 115.668 103.364 118.364 101.246C121.897 98.4694 121.581 92.9995 117.801 90.5692C115.327 88.9791 112.064 89.2201 109.878 91.1872C107.191 93.6057 107.021 97.7897 109.453 100.465Z" fill="#666666"/>
</g>
<defs>
<filter id="filter0_d_310_710" x="29.6473" y="4.86383" width="145.191" height="194.659" filterUnits="userSpaceOnUse" color-interpolation-filters="sRGB">
<feFlood flood-opacity="0" result="BackgroundImageFix"/>
<feColorMatrix in="SourceAlpha" type="matrix" values="0 0 0 0 0 0 0 0 0 0 0 0 0 0 0 0 0 0 127 0" result="hardAlpha"/>
<feOffset dy="4"/>
<feGaussianBlur stdDeviation="2"/>
<feComposite in2="hardAlpha" operator="out"/>
<feColorMatrix type="matrix" values="0 0 0 0 0 0 0 0 0 0 0 0 0 0 0 0 0 0 0.25 0"/>
<feBlend mode="normal" in2="BackgroundImageFix" result="effect1_dropShadow_310_710"/>
<feBlend mode="normal" in="SourceGraphic" in2="effect1_dropShadow_310_710" result="shape"/>
</filter>
<filter id="filter1_i_310_710" x="79.9982" y="54.4153" width="62.3062" height="52.2119" filterUnits="userSpaceOnUse" color-interpolation-filters="sRGB">
<feFlood flood-opacity="0" result="BackgroundImageFix"/>
<feBlend mode="normal" in="SourceGraphic" in2="BackgroundImageFix" result="shape"/>
<feColorMatrix in="SourceAlpha" type="matrix" values="0 0 0 0 0 0 0 0 0 0 0 0 0 0 0 0 0 0 127 0" result="hardAlpha"/>
<feOffset dx="-4" dy="4"/>
<feGaussianBlur stdDeviation="7"/>
<feComposite in2="hardAlpha" operator="arithmetic" k2="-1" k3="1"/>
<feColorMatrix type="matrix" values="0 0 0 0 0 0 0 0 0 0 0 0 0 0 0 0 0 0 0.25 0"/>
<feBlend mode="normal" in2="shape" result="effect1_innerShadow_310_710"/>
</filter>
</defs>
</svg>
