<svg width="41" height="41" viewBox="0 0 41 41" fill="none" xmlns="http://www.w3.org/2000/svg">
<g clip-path="url(#clip0_832_576)">
<path d="M20.1015 34.0197C20.1015 34.0197 18.2715 33.8372 16.8465 32.8472C15.4077 31.8509 5.87646 25.0347 5.87646 25.0347V38.5309C5.87646 38.5309 5.95521 40.0997 7.68646 40.0997H32.5177C34.2427 40.0997 34.3277 38.5309 34.3277 38.5309V25.0284C34.3277 25.0284 24.7902 31.8509 23.3577 32.8472C21.9252 33.8372 20.1027 34.0197 20.1027 34.0197H20.1015ZM20.1015 0.107176C20.1015 0.107176 8.31146 -0.284073 5.87646 12.8084V21.7209C5.87646 21.7209 5.97396 22.6784 8.66271 24.6184C11.339 26.5522 18.279 32.0072 20.1077 32.0072C21.9177 32.0072 28.864 26.5509 31.5465 24.6109C34.2227 22.6709 34.3265 21.7197 34.3265 21.7197V12.8009C31.8915 -0.279073 20.1015 0.105926 20.1015 0.105926V0.107176ZM28.1815 17.6659H12.029V12.8097C13.6702 6.30593 20.1015 6.22093 20.1015 6.22093C20.1015 6.22093 26.5402 6.30593 28.1815 12.8097V17.6659Z" fill="#FF003D"/>
</g>
<defs>
<clipPath id="clip0_832_576">
<rect width="40" height="40" fill="white" transform="translate(0.101562 0.10083)"/>
</clipPath>
</defs>
</svg>
